<svg xmlns="http://www.w3.org/2000/svg" viewBox="0 0 230.588 153.415"><defs><style>.a{fill:#fee100}</style></defs><path d="M209.763 146.724c0 4.872-3.63 7.547-8.215 5.827l-62.283-27.32a13.79 13.79 0 0 1-8.215-11.937v-86.07c0-4.872 3.821-7.642 8.215-5.827l62.285 27.321a13.79 13.79 0 0 1 8.215 11.941Z" class="a"/><path d="M201.74 48.431a14 14 0 0 1 8.406 12.227v86.069c0 4.012-2.388 6.687-5.827 6.687a7.6 7.6 0 0 1-2.77-.573l-62.378-27.32a14 14 0 0 1-8.406-12.227v-86.07c0-4.012 10.221-13.851 8.024-11.081-2.961 3.726-.382 4.585.573 4.967m-2.77.1c-3.152 0-5.254 2.388-5.254 6.018v86.069c0 4.776 3.63 10.03 8.024 11.654l62.282 27.315a8.2 8.2 0 0 0 2.579.478c3.152 0 5.254-2.388 5.254-6.018V60.658c0-4.776-3.63-10.03-8.024-11.654l-62.283-27.32a6.2 6.2 0 0 0-2.579-.478Z" class="a"/><path d="m205.942 152.65-2.961-3.63 15.666-12.9 2.293-.382a3.76 3.76 0 0 0 3.534-.1 4.02 4.02 0 0 0 1.433-3.439V46.138a11.29 11.29 0 0 0-6.687-9.744h-.1L154.263 9.265a19.6 19.6 0 0 0-14.042 5.349 14.4 14.4 0 0 0-4.776 10.6v2.388h-4.777v-2.388a19.03 19.03 0 0 1 6.3-14.042 24.92 24.92 0 0 1 17.964-6.682l.764.191 65.244 27.32a16.04 16.04 0 0 1 9.648 14.138v86.069a8.69 8.69 0 0 1-3.439 7.355 8.23 8.23 0 0 1-6.591 1.051ZM66.857 0C41.543 0 32.563 24.646 31.13 29.135a17.19 17.19 0 0 0-11.177 9.553h-9.457a6.95 6.95 0 0 0-6.973 6.973v.573a6.95 6.95 0 0 0 6.973 6.973h.478V121.7L.657 131.539a2.163 2.163 0 0 0 2.961 3.152l7.355-6.973v3.439a2.2 2.2 0 1 0 4.394 0v-3.917l7.833 7.451a2.163 2.163 0 0 0 2.961-3.152l-10.793-10.221v-68.11h4.585a17.72 17.72 0 0 0 11.177 9.553c10.508 28.562 30.664 28.753 34.294 29.04 10.985-3.343 11.75-34.007 12.036-42.987C78.32 4.777 66.86 0 66.86 0Zm-.955 85.4s-6.214-13.469-6.014-39.452c0 0 .573-29.04 6.209-39.166 0 0 6.209 12.9 6.209 39.166-.1 0-.1 25.983-6.405 39.452ZM113.664 55.691H97.52v-8.024h16.144ZM100.386 81.006l-5.732 5.732-8.024-8.024 5.732-5.732ZM100.386 22.258l-8.024 8.024-5.732-5.732 8.024-8.024Z" class="a"/></svg>