<svg xmlns="http://www.w3.org/2000/svg" viewBox="0 0 230.588 153.415"><defs><style>.a{fill:#fee100;}</style></defs><g transform="translate(-925.006 -232.366)"><g transform="translate(1055.674 236.833)"><path class="a" d="M245.213,232c0,4.872-3.63,7.547-8.215,5.827l-62.283-27.32A13.793,13.793,0,0,1,166.5,198.57V112.5c0-4.872,3.821-7.642,8.215-5.827L237,133.994a13.793,13.793,0,0,1,8.215,11.941Z" transform="translate(-166.118 -89.743)"/><path class="a" d="M237.176,133.465a14,14,0,0,1,8.406,12.227v86.069c0,4.012-2.388,6.687-5.827,6.687a7.57,7.57,0,0,1-2.77-.573l-62.378-27.32a14,14,0,0,1-8.406-12.227V112.258c0-4.012,10.221-13.851,8.024-11.081-2.961,3.726-.382,4.585.573,4.967m-2.77.1c-3.152,0-5.254,2.388-5.254,6.018v86.069c0,4.776,3.63,10.03,8.024,11.654L237.08,237.3a8.19,8.19,0,0,0,2.579.478c3.152,0,5.254-2.388,5.254-6.018V145.692c0-4.776-3.63-10.03-8.024-11.654l-62.283-27.32a6.173,6.173,0,0,0-2.579-.478Z" transform="translate(-166.104 -89.501)"/><path class="a" d="M241.374,237.16l-2.961-3.63,15.666-12.9,2.293-.382a3.764,3.764,0,0,0,3.534-.1,4.018,4.018,0,0,0,1.433-3.439V130.648a11.29,11.29,0,0,0-6.687-9.744h-.1L189.695,93.775a19.605,19.605,0,0,0-14.042,5.349,14.4,14.4,0,0,0-4.776,10.6v2.388H166.1v-2.388a19.029,19.029,0,0,1,6.3-14.042A24.916,24.916,0,0,1,190.364,89l.764.191,65.244,27.32a16.039,16.039,0,0,1,9.648,14.138v86.069a8.69,8.69,0,0,1-3.439,7.355,8.234,8.234,0,0,1-6.591,1.051Z" transform="translate(-166.1 -88.977)"/></g><path class="a" d="M96.169,84.3c-25.314,0-34.294,24.646-35.727,29.135a17.189,17.189,0,0,0-11.177,9.553H39.808a6.951,6.951,0,0,0-6.973,6.973v.573a6.951,6.951,0,0,0,6.973,6.973h.478V206l-10.317,9.839a2.163,2.163,0,0,0,2.961,3.152l7.355-6.973v3.439a2.2,2.2,0,1,0,4.394,0v-3.917l7.833,7.451a2.163,2.163,0,0,0,2.961-3.152L44.68,205.618v-68.11h4.585a17.719,17.719,0,0,0,11.177,9.553c10.508,28.562,30.664,28.753,34.294,29.04,10.985-3.343,11.75-34.007,12.036-42.987.86-44.037-10.6-48.814-10.6-48.814Zm-.955,85.4S89,156.231,89.2,130.248c0,0,.573-29.04,6.209-39.166,0,0,6.209,12.9,6.209,39.166C101.518,130.248,101.518,156.231,95.213,169.7Z" transform="translate(895.694 148.066)"/><g transform="translate(1011.636 248.892)"><path class="a" d="M147.544,142.224H131.4V134.2h16.144Z" transform="translate(-120.51 -103.059)"/><path class="a" d="M133.756,168.724l-5.732,5.732L120,166.432l5.732-5.732Z" transform="translate(-120 -104.244)"/><path class="a" d="M133.756,107.332l-8.024,8.024L120,109.624l8.024-8.024Z" transform="translate(-120 -101.6)"/></g></g></svg>