<svg xmlns="http://www.w3.org/2000/svg" viewBox="0 0 1212 755.914"><defs><style>.a,.d,.e{fill:#fee100}.a{font-family:YuGo-Bold,YuGothic;font-size:19px;font-weight:700}.e{fill-rule:evenodd}</style></defs><text class="a" transform="translate(902 190.267)"><tspan x="-28.5" y="0">カメラ</tspan><tspan x="-44.831" y="33">800万画素</tspan></text><text class="a" transform="translate(1138 190.267)"><tspan x="-38" y="0">超高演色</tspan><tspan x="-38.418" y="33">LED照明</tspan></text><text style="fill:#fee100;font-family:YuGo-Bold,YuGothic;font-size:21px;font-weight:700" transform="translate(902 646.071)"><tspan x="-62.475" y="0">黒アルマイト</tspan><tspan x="-93.45" y="36">汎用アルミフレーム</tspan></text><text style="fill:#fee100;font-family:YuGo-Bold,YuGothic;font-size:20px;font-weight:700" transform="translate(1138 646.071)"><tspan x="-38.07" y="0">Arduino</tspan><tspan x="-35.39" y="34">Uno R3</tspan></text><text class="a" transform="translate(1138 397.071)"><tspan x="-73.92" y="0">ToF距離センサー</tspan><tspan x="-41.201" y="33">VL53L0X</tspan></text><path d="M868.353 146.81A10.38 10.38 0 0 1 858 136.457V95.044a10.38 10.38 0 0 1 10.353-10.357h14.7l5.1-10.209a2.3 2.3 0 0 1 2.057-1.291h23.007a2.3 2.3 0 0 1 2.049 1.294l5.104 10.206h14.7a10.38 10.38 0 0 1 10.356 10.357v41.413a10.38 10.38 0 0 1-10.353 10.353Zm0-4.6h66.721a5.69 5.69 0 0 0 5.752-5.752V95.044a5.69 5.69 0 0 0-5.752-5.757h-16.1a2.3 2.3 0 0 1-2.049-1.258l-5.146-10.242h-20.131l-5.141 10.247a2.3 2.3 0 0 1-2.049 1.253h-16.1a5.69 5.69 0 0 0-5.758 5.757v41.413a5.69 5.69 0 0 0 5.753 5.751Zm33.36-8.052a18.406 18.406 0 1 1 18.406-18.408 18.44 18.44 0 0 1-18.406 18.406Zm0-4.6a13.8 13.8 0 1 0-13.8-13.8 13.77 13.77 0 0 0 13.8 13.796ZM1195.224 118.186h-34.357V96.027a2.3 2.3 0 1 0-4.594 0v20.07l-33.9-19.573a4.64 4.64 0 0 0-2.327-.67c-2.184 0-3.769 1.759-3.769 4.188v18.137l-34.981.006a2.3 2.3 0 0 0 0 4.594h34.979v17.977c0 2.429 1.585 4.188 3.769 4.188a4.6 4.6 0 0 0 2.327-.67l33.41-19.287v19.867a2.3 2.3 0 1 0 4.594 0l-.006-22.074h34.853a2.3 2.3 0 0 0 0-4.594Zm-74.36 21.644.012-38.861 33.65 19.436Z" class="d"/><path d="m1141.938 101.267 1.573.927 8.77-14.884 3.135 1.842.078-9.1-7.926 4.481 3.141 1.848ZM1131.913 95.327l8.764-14.884 3.136 1.843.078-9.1-7.921 4.481 3.135 1.848-8.764 14.885Z" class="d"/><path d="M940.648 524.834a1.4 1.4 0 0 1 .275.012 1.18 1.18 0 0 1 .668.34 1.18 1.18 0 0 1 .34.668 1.4 1.4 0 0 1 .012.275v58.055a1.2 1.2 0 0 1-.356.856l-19.378 19.379a1.18 1.18 0 0 1-.924.356h-58.071a1.213 1.213 0 0 1-1.211-1.212v-58.07a1.18 1.18 0 0 1 .356-.924l19.379-19.38a1.2 1.2 0 0 1 .855-.355Zm-19.8 19.38 16.962-16.958h-54v16.957Zm-.709 38.759v-36.339h-36.336v36.338Zm-55.713 17.668 16.956-16.96v-37.047h-16.956Zm73.384-15.245h-15.245v15.245Zm-15.245-2.423h16.956v-54l-16.956 16.954Zm-41.183-38.759v-15.245l-15.245 15.245Zm1.714 41.183-16.959 16.956h54v-16.957Z" class="e"/><path d="M1183.78 602.762h-86.277a2.305 2.305 0 0 1-2.3-2.3v-1.15a2.305 2.305 0 0 1 2.3-2.3 2.22 2.22 0 0 1 1.955 1.15h83.283l2.072-2.073v-45.322l-2.759-2.759a2.76 2.76 0 0 1-.575-1.613v-13.806h-81.676v6.9a2.3 2.3 0 1 1-4.6 0v-9.2a2.305 2.305 0 0 1 2.3-2.3h86.277a2.305 2.305 0 0 1 2.3 2.3v15.185l2.759 2.759a2.27 2.27 0 0 1 .692 1.613v47.164a2.26 2.26 0 0 1-.692 1.609l-3.451 3.451a2.26 2.26 0 0 1-1.609.692Z" class="d"/><path d="M1097.503 582.056a2.305 2.305 0 0 1-2.3-2.3v-17.257a2.3 2.3 0 1 1 4.6 0v17.256a2.305 2.305 0 0 1-2.3 2.301" class="d"/><path d="M1106.131 559.044h-18.405a1.77 1.77 0 0 1-1.726-1.721V544.67a1.77 1.77 0 0 1 1.726-1.726h18.405a1.77 1.77 0 0 1 1.726 1.726v12.653a1.77 1.77 0 0 1-1.726 1.721M1109.582 595.86h-16.1a1.77 1.77 0 0 1-1.73-1.726v-9.2a1.77 1.77 0 0 1 1.726-1.728h16.1a1.77 1.77 0 0 1 1.726 1.726v9.2a1.77 1.77 0 0 1-1.722 1.728M1136.615 571.703a1.085 1.085 0 0 0-1.15 1.15v1.15h2.3v-1.15a1.085 1.085 0 0 0-1.15-1.15M1133.164 571.703a1.085 1.085 0 0 0-1.15 1.15v1.15h2.3v-1.15a1.085 1.085 0 0 0-1.15-1.15M1140.066 571.703a1.085 1.085 0 0 0-1.15 1.15v1.15h2.3v-1.15a1.085 1.085 0 0 0-1.15-1.15M1143.517 571.703a1.085 1.085 0 0 0-1.15 1.15v1.15h2.3v-1.15a1.085 1.085 0 0 0-1.15-1.15M1146.968 571.703a1.085 1.085 0 0 0-1.15 1.15v1.15h2.3v-1.15a1.085 1.085 0 0 0-1.15-1.15M1150.419 571.703a1.085 1.085 0 0 0-1.15 1.15v1.15h2.3v-1.15a1.085 1.085 0 0 0-1.15-1.15M1153.87 571.703a1.085 1.085 0 0 0-1.15 1.15v1.15h2.3v-1.15a1.085 1.085 0 0 0-1.15-1.15M1157.322 571.703a1.085 1.085 0 0 0-1.15 1.15v1.15h2.3v-1.15a1.085 1.085 0 0 0-1.15-1.15M1160.773 571.703a1.085 1.085 0 0 0-1.15 1.15v1.15h2.3v-1.15a1.085 1.085 0 0 0-1.15-1.15M1164.224 571.703a1.085 1.085 0 0 0-1.15 1.15v1.15h2.3v-1.15a1.085 1.085 0 0 0-1.15-1.15M1167.675 571.703a1.085 1.085 0 0 0-1.15 1.15v1.15h2.3v-1.15a1.085 1.085 0 0 0-1.15-1.15M1171.126 571.703a1.085 1.085 0 0 0-1.15 1.15v1.15h2.3v-1.15a1.085 1.085 0 0 0-1.15-1.15M1174.577 571.703a1.085 1.085 0 0 0-1.15 1.15v1.15h2.3v-1.15a1.085 1.085 0 0 0-1.15-1.15M1178.028 571.703a1.085 1.085 0 0 0-1.15 1.15v1.15h2.3v-1.15a1.085 1.085 0 0 0-1.15-1.15M1174.577 588.958a1.085 1.085 0 0 0 1.15-1.15v-1.15h-2.3v1.15a1.085 1.085 0 0 0 1.15 1.15M1178.028 588.958a1.085 1.085 0 0 0 1.15-1.15v-1.15h-2.3v1.15a1.085 1.085 0 0 0 1.15 1.15M1171.126 588.958a1.085 1.085 0 0 0 1.15-1.15v-1.15h-2.3v1.15a1.085 1.085 0 0 0 1.15 1.15M1167.675 588.958a1.085 1.085 0 0 0 1.15-1.15v-1.15h-2.3v1.15a1.085 1.085 0 0 0 1.15 1.15M1164.224 588.958a1.085 1.085 0 0 0 1.15-1.15v-1.15h-2.3v1.15a1.085 1.085 0 0 0 1.15 1.15M1160.773 588.958a1.085 1.085 0 0 0 1.15-1.15v-1.15h-2.3v1.15a1.085 1.085 0 0 0 1.15 1.15M1157.322 588.958a1.085 1.085 0 0 0 1.15-1.15v-1.15h-2.3v1.15a1.085 1.085 0 0 0 1.15 1.15M1153.87 588.958a1.085 1.085 0 0 0 1.15-1.15v-1.15h-2.3v1.15a1.085 1.085 0 0 0 1.15 1.15M1150.419 588.958a1.085 1.085 0 0 0 1.15-1.15v-1.15h-2.3v1.15a1.085 1.085 0 0 0 1.15 1.15M1146.968 588.958a1.085 1.085 0 0 0 1.15-1.15v-1.15h-2.3v1.15a1.085 1.085 0 0 0 1.15 1.15M1143.517 588.958a1.085 1.085 0 0 0 1.15-1.15v-1.15h-2.3v1.15a1.085 1.085 0 0 0 1.15 1.15M1140.066 588.958a1.085 1.085 0 0 0 1.15-1.15v-1.15h-2.3v1.15a1.085 1.085 0 0 0 1.15 1.15M1136.615 588.958a1.085 1.085 0 0 0 1.15-1.15v-1.15h-2.3v1.15a1.085 1.085 0 0 0 1.15 1.15M1133.164 588.958a1.085 1.085 0 0 0 1.15-1.15v-1.15h-2.3v1.15a1.085 1.085 0 0 0 1.15 1.15M1180.329 575.154h-49.466a1.085 1.085 0 0 0-1.15 1.15v8.05a1.085 1.085 0 0 0 1.15 1.15h49.466a1.085 1.085 0 0 0 1.15-1.15v-8.05a1.085 1.085 0 0 0-1.15-1.15m0 7.477a2.3 2.3 0 1 1 0-4.6Z" class="d"/><path d="M1120.741 551.114c0 10.007 13.8 13.8 20.589 3.568 7.019 10.582 20.249 6.1 20.249-3.568s-13.113-14.38-20.245-3.568c-6.673-10.7-20.593-6.444-20.593 3.568m3.68 0c0-7.248 10.236-9.549 14.955-3.1738281904836185e-6C1134.541 560.2 1124.42 558.357 1124.42 551.114Zm18.981 0C1147.657 541.453 1158.239 544.095 1158.128 551.114c0 7.015-10.582 9.2-14.726-3.1738281904836185e-6" class="e"/><path d="M1128.218 550.076h6.1v1.955h-6.1ZM1150.302 552.03h-2.068v-2.067h2.067v-2.072h2.073v2.072h1.955v2.067h-1.955v1.961h-2.072Z" class="e"/><text style="fill:#fee100;stroke:#222;stroke-linecap:round;stroke-width:3px;font-family:YuGo-Bold,YuGothic;font-size:48px;font-weight:700" transform="translate(875.5 152.489)"><tspan x="0" y="0">x3</tspan></text><path d="M709.043 755.914H0V0h709.043ZM2.327 753.919h704.389V2.327H2.327Z" class="d"/><path d="M709.043 30.582H0V0h709.043ZM2.327 28.255h704.389V2.327H2.327ZM680.787 755.913H28.255v-30.582h652.532Zm-650.205-1.994H678.46V727.99H30.582ZM680.787 416.849H28.255v-30.582h652.532Zm-650.205-2.327H678.46v-25.928H30.582Z" class="d"/><path d="M30.582 755.913H0V28.255h30.582Zm-28.255-1.994h25.928V30.582H2.327ZM709.043 755.913h-30.582V28.255h30.582Zm-28.255-1.995h25.928V30.582h-25.928Z" class="d"/><path d="M29.253 379.951h282.553v7.646H29.253ZM332.748 29.253h90.75v7.646h-90.75ZM448.576 29.356l199.795 199.795-5.406 5.407L443.169 34.763ZM475.668 415.128l-97.48 265.317-7.18-2.638 97.48-265.317ZM505.937 633.917h142.606v92.744H505.937ZM172.524 705.386h98.063v21.275h-98.063ZM287.54 705.386h9.972v21.275h-9.972ZM172.524 29.253h98.063v21.275h-98.063ZM679.575 289.434v98.063H658.3v-98.063ZM287.54 29.253h9.972v21.275h-9.972Z" class="d"/><text class="a" transform="translate(902 402.267)"><tspan x="-57" y="0">低反射ガラス</tspan><tspan x="-66.12" y="33">クリアサイトⅡ</tspan></text><path d="M880.384 295.47a1.8 1.8 0 1 1-3.6 0 1.8 1.8 0 1 1 3.6 0M892.965 313.443a1.8 1.8 0 1 1-3.6 0 1.8 1.8 0 1 1 3.6 0" class="d"/><path d="M919.177 282.886H866v79.087h19.026l26.435-26.435a1.8 1.8 0 0 1 2.543 2.543l-23.893 23.893h5.7l15.653-15.651a1.8 1.8 0 0 1 2.543 2.543l-13.112 13.109h37v-79.087h-2.845l-26.439 26.435a1.8 1.8 0 0 1-2.543-2.543l23.892-23.893h-5.7l-15.648 15.651a1.8 1.8 0 0 1-2.543-2.543Zm-38.798 19.775a1.8 1.8 0 1 1-3.595 0 5.4 5.4 0 0 0-5.392-5.392 1.8 1.8 0 0 1 0-3.595 5.4 5.4 0 0 0 5.392-5.392 1.8 1.8 0 0 1 3.595 0 5.4 5.4 0 0 0 5.392 5.392 1.8 1.8 0 0 1 0 3.595 5.4 5.4 0 0 0-5.392 5.392m17.971 12.58a5.4 5.4 0 0 0-5.392 5.392 1.8 1.8 0 1 1-3.595 0 5.4 5.4 0 0 0-5.392-5.392 1.8 1.8 0 0 1 0-3.595 5.4 5.4 0 0 0 5.392-5.392 1.8 1.8 0 1 1 3.595 0 5.4 5.4 0 0 0 5.392 5.392 1.8 1.8 0 1 1 0 3.595M1189.059 293.124a1.6 1.6 0 0 0-1.141-.472h-100.295a1.617 1.617 0 0 0-1.618 1.618v46.1a1.61 1.61 0 0 0 1.609 1.612h100.292a1.617 1.617 0 0 0 1.618-1.618l.009-46.1a1.62 1.62 0 0 0-.472-1.141Zm-2.768 45.632h-97.057v-42.869h13.9v9.661a1.618 1.618 0 1 0 3.235 0v-9.661h13.273v16.9a1.618 1.618 0 1 0 3.235 0v-16.9h13.27v9.661a1.618 1.618 0 0 0 3.235 0v-9.664h13.279v16.9a1.618 1.618 0 1 0 3.235 0v-16.9h13.269v9.661a1.618 1.618 0 1 0 3.235 0v-9.661h13.9Z" class="d"/></svg>