<svg xmlns="http://www.w3.org/2000/svg" viewBox="0 0 37.453 36.437"><defs><style>.a{fill:#5d5d5d;fill-rule:evenodd;}</style></defs><path class="a" d="M18.669,0a18.7,18.7,0,0,0-5.956,36.422c.916.115,1.26-.458,1.26-.916V32.3c-5.154,1.145-6.3-2.52-6.3-2.52A4.729,4.729,0,0,0,5.612,27.03c-1.718-1.145.115-1.145.115-1.145A3.991,3.991,0,0,1,8.59,27.832a3.965,3.965,0,0,0,5.383,1.6,3.988,3.988,0,0,1,1.145-2.52C11,26.458,6.643,24.854,6.643,17.638A7.1,7.1,0,0,1,8.59,12.6a6.782,6.782,0,0,1,.229-4.81s1.6-.458,5.154,1.947a16,16,0,0,1,4.7-.573,21.081,21.081,0,0,1,4.7.573c3.551-2.405,5.154-1.947,5.154-1.947a7.171,7.171,0,0,1,.229,4.925,7.408,7.408,0,0,1,1.947,5.04c0,7.216-4.352,8.7-8.476,9.163a4.374,4.374,0,0,1,1.26,3.436v5.154c0,.458.344,1.031,1.26.916A18.7,18.7,0,0,0,18.669,0Z"/></svg>