<svg xmlns="http://www.w3.org/2000/svg" viewBox="0 0 37.453 36.437"><path d="M18.669 0a18.7 18.7 0 0 0-5.956 36.422c.916.115 1.26-.458 1.26-.916V32.3c-5.154 1.145-6.3-2.52-6.3-2.52a4.73 4.73 0 0 0-2.061-2.75c-1.718-1.145.115-1.145.115-1.145a4 4 0 0 1 2.863 1.947 3.965 3.965 0 0 0 5.383 1.6 4 4 0 0 1 1.145-2.52c-4.118-.454-8.475-2.058-8.475-9.274A7.1 7.1 0 0 1 8.59 12.6a6.78 6.78 0 0 1 .229-4.81s1.6-.458 5.154 1.947a16 16 0 0 1 4.7-.573 21 21 0 0 1 4.7.573c3.551-2.405 5.154-1.947 5.154-1.947a7.17 7.17 0 0 1 .229 4.925 7.4 7.4 0 0 1 1.947 5.04c0 7.216-4.352 8.7-8.476 9.163a4.37 4.37 0 0 1 1.26 3.436v5.154c0 .458.344 1.031 1.26.916A18.7 18.7 0 0 0 18.669 0" style="fill:#5d5d5d;fill-rule:evenodd"/></svg>