<svg xmlns="http://www.w3.org/2000/svg" viewBox="0 0 596.886 548.905"><defs><style>.a{fill:#fee100;}</style></defs><path class="a" d="M88.754,134.424h-8a4.421,4.421,0,0,1-4.457-4.457V95.357A4.421,4.421,0,0,1,80.757,90.9h8v2.622h-8a1.875,1.875,0,0,0-1.835,1.835V130.1a1.875,1.875,0,0,0,1.835,1.835h8Z" transform="translate(23.727 28.267)"/><path class="a" d="M306.4,134.424h-8V131.8h8a1.875,1.875,0,0,0,1.835-1.835V95.357a1.875,1.875,0,0,0-1.835-1.835h-8V90.9h8a4.421,4.421,0,0,1,4.457,4.457V130.1A4.394,4.394,0,0,1,306.4,134.424Z" transform="translate(92.794 28.267)"/><rect class="a" width="40.902" height="2.622" transform="translate(490.566 255.378)"/><path class="a" d="M365,489.315H85.5V191.2H365.131V489.315Zm-278.713-.787h277.8V191.987H86.287Z" transform="translate(26.588 59.458)"/><path class="a" d="M365,213.738H85.5V42H365.131V213.738Zm-278.713-.787h277.8V42.787H86.287Z" transform="translate(26.588 13.061)"/><path class="a" d="M365,203.261H85.5V191.2H365.131v12.061Zm-278.713-.918h277.8V192.118H86.287Z" transform="translate(26.588 59.458)"/><path class="a" d="M365,175.861H85.5V163.8H365.131v12.061Zm-278.713-.787h277.8V164.849H86.287Z" transform="translate(26.588 50.937)"/><path class="a" d="M365,54.061H85.5V42H365.131V54.061ZM86.287,53.143h277.8V42.918H86.287Z" transform="translate(26.588 13.061)"/><path class="a" d="M351.213,421.461H94V409.4H351.344v12.061Zm-256.426-.787H350.3V410.449H94.787Z" transform="translate(29.232 127.313)"/><path class="a" d="M351.213,319.461H94V307.4H351.344v12.061Zm-256.426-.918H350.3V308.318H94.787Z" transform="translate(29.232 95.593)"/><path class="a" d="M496.069,489.315H324.2V191.2H496.069V489.315Zm-170.951-.787H495.151V191.987H325.118Z" transform="translate(100.818 59.458)"/><path class="a" d="M365.162,39.367h-1.049V22.718H86.449V39.367H85.4V21.8H365.162Z" transform="translate(26.557 6.779)"/><path class="a" d="M496.069,188.867h-.918V172.349H325.118v16.518H324.2V171.3H496.069Z" transform="translate(100.818 53.27)"/><path class="a" d="M81.867,489.478H64.3V191.1H81.867v1.049H65.218v296.28H81.867Z" transform="translate(19.996 59.427)"/><g transform="translate(226.536)"><path class="a" d="M179.224.2V1.249L174.9,10.688h-1.18l4.457-9.439H172.8V.2Z" transform="translate(-172.8 0.062)"/><path class="a" d="M180.218,8.066a2.106,2.106,0,0,0,2.36,1.835,2.517,2.517,0,0,0,2.491-2.622,2.553,2.553,0,0,0-4.851-1.049H179.3L179.955.2h5.637V1.249H181l-.393,3.54h0a3.063,3.063,0,0,1,2.36-.918,3.416,3.416,0,0,1,3.409,3.54,3.478,3.478,0,0,1-3.671,3.54A3.14,3.14,0,0,1,179.3,8.066Z" transform="translate(-170.779 0.062)"/><path class="a" d="M185.8,5.113C185.8,1.966,187.111,0,189.471,0s3.54,1.966,3.54,5.113V5.9c0,3.146-1.311,4.982-3.54,4.982S185.8,8.915,185.8,5.9Zm1.18.787c0,2.622.918,4.064,2.491,4.064s2.491-1.442,2.491-4.064V5.113c0-2.622-.918-4.064-2.491-4.064s-2.491,1.442-2.491,4.064Z" transform="translate(-168.757)"/><path class="a" d="M192.9,2.031h1.18V3.08h0a2.247,2.247,0,0,1,2.1-1.18,2.332,2.332,0,0,1,2.36,1.311h0A2.614,2.614,0,0,1,201.028,1.9a2.548,2.548,0,0,1,2.753,2.753v5.506H202.6V4.915a1.72,1.72,0,0,0-1.835-1.835,1.824,1.824,0,0,0-1.835,1.966v5.113h-1.18V4.915c0-1.311-.655-1.966-1.835-1.966a1.827,1.827,0,0,0-1.835,1.966v5.113H192.9v-8Z" transform="translate(-166.549 0.591)"/><path class="a" d="M202.9,2.031h1.18V3.08h0a2.247,2.247,0,0,1,2.1-1.18,2.332,2.332,0,0,1,2.36,1.311h0A2.614,2.614,0,0,1,211.028,1.9a2.548,2.548,0,0,1,2.753,2.753v5.506H212.6V4.915a1.72,1.72,0,0,0-1.835-1.835,1.824,1.824,0,0,0-1.835,1.966v5.113h-1.18V4.915c0-1.311-.655-1.966-1.835-1.966a1.827,1.827,0,0,0-1.835,1.966v5.113H202.9v-8Z" transform="translate(-163.44 0.591)"/></g><g transform="translate(485.322 198.35)"><path class="a" d="M376.362,151.5v7.21H377.8v1.049h-1.442v2.229h-1.049v-2.229H370.2V158.71c1.18-2.1,3.146-5.113,4.588-7.21Zm-1.049,7.21v-6.162h0c-1.18,1.7-2.884,4.326-3.933,6.162h3.933Z" transform="translate(-370.2 -151.238)"/><path class="a" d="M377,156.413c0-3.146,1.311-5.113,3.671-5.113s3.54,1.966,3.54,5.113v.787c0,3.146-1.311,4.982-3.54,4.982S377,160.215,377,157.2Zm1.049.787c0,2.622.918,4.064,2.491,4.064s2.491-1.442,2.491-4.064v-.787c0-2.622-.918-4.064-2.491-4.064s-2.491,1.442-2.491,4.064Z" transform="translate(-368.085 -151.3)"/><path class="a" d="M383.6,156.413c0-3.146,1.311-5.113,3.671-5.113s3.54,1.966,3.54,5.113v.787c0,3.146-1.311,4.982-3.54,4.982s-3.671-1.966-3.671-4.982Zm1.18.787c0,2.622.918,4.064,2.491,4.064s2.491-1.442,2.491-4.064v-.787c0-2.622-.918-4.064-2.491-4.064s-2.491,1.442-2.491,4.064Z" transform="translate(-366.033 -151.3)"/><path class="a" d="M390.7,153.431h1.18v1.049h0a2.247,2.247,0,0,1,2.1-1.18,2.332,2.332,0,0,1,2.36,1.311h0a2.614,2.614,0,0,1,2.491-1.311,2.548,2.548,0,0,1,2.753,2.753v5.506H400.4v-5.244a1.72,1.72,0,0,0-1.835-1.835,1.824,1.824,0,0,0-1.835,1.966v5.113h-1.18v-5.113c0-1.311-.655-1.966-1.835-1.966a1.827,1.827,0,0,0-1.835,1.966v5.113H390.7Z" transform="translate(-363.825 -150.678)"/><path class="a" d="M400.7,153.431h1.18v1.049h0a2.247,2.247,0,0,1,2.1-1.18,2.332,2.332,0,0,1,2.36,1.311h0a2.614,2.614,0,0,1,2.491-1.311,2.548,2.548,0,0,1,2.753,2.753v5.506H410.4v-5.244a1.72,1.72,0,0,0-1.835-1.835,1.824,1.824,0,0,0-1.835,1.966v5.113h-1.18v-5.113c0-1.311-.655-1.966-1.835-1.966a1.827,1.827,0,0,0-1.835,1.966v5.113H400.7Z" transform="translate(-360.715 -150.678)"/></g><g transform="translate(0 388.966)"><path class="a" d="M0,304.535a2.6,2.6,0,0,1,2.1-2.622h0a2.5,2.5,0,0,1-1.7-2.36c0-1.573,1.311-2.753,3.277-2.753a3,3,0,0,1,3.277,2.753,2.5,2.5,0,0,1-1.7,2.36h0a2.716,2.716,0,0,1,2.1,2.622c0,1.835-1.573,3.015-3.671,3.015C1.442,307.681,0,306.37,0,304.535Zm6.162,0a2.265,2.265,0,0,0-2.491-2.1,2.265,2.265,0,0,0-2.491,2.1c0,1.311,1.049,2.1,2.491,2.1S6.162,305.846,6.162,304.535Zm-.393-4.982a1.944,1.944,0,0,0-2.1-1.835,1.852,1.852,0,1,0,0,3.671A1.867,1.867,0,0,0,5.768,299.553Z" transform="translate(0 -296.669)"/><path class="a" d="M6.8,301.813c0-3.146,1.311-5.113,3.671-5.113s3.54,1.966,3.54,5.113v.787c0,3.146-1.311,4.982-3.54,4.982S6.8,305.615,6.8,302.6Zm1.049.787c0,2.622.918,4.064,2.491,4.064s2.491-1.442,2.491-4.064v-.787c0-2.622-.918-4.064-2.491-4.064s-2.491,1.442-2.491,4.064Z" transform="translate(2.115 -296.7)"/><path class="a" d="M13.4,301.813c0-3.146,1.311-5.113,3.671-5.113s3.54,1.966,3.54,5.113v.787c0,3.146-1.311,4.982-3.54,4.982S13.4,305.615,13.4,302.6v-.787Zm1.18.787c0,2.622.918,4.064,2.491,4.064s2.491-1.442,2.491-4.064v-.787c0-2.622-.918-4.064-2.491-4.064s-2.491,1.442-2.491,4.064v.787Z" transform="translate(4.167 -296.7)"/><path class="a" d="M20.5,298.831h1.18v1.049h0a2.247,2.247,0,0,1,2.1-1.18,2.332,2.332,0,0,1,2.36,1.311h0a2.614,2.614,0,0,1,2.491-1.311,2.548,2.548,0,0,1,2.753,2.753v5.506H30.2v-5.244a1.72,1.72,0,0,0-1.835-1.835,1.824,1.824,0,0,0-1.835,1.966v5.113h-1.18v-5.244c0-1.311-.655-1.966-1.835-1.966a1.827,1.827,0,0,0-1.835,1.966v5.113H20.5v-8Z" transform="translate(6.375 -296.078)"/><path class="a" d="M30.5,298.831h1.18v1.049h0a2.247,2.247,0,0,1,2.1-1.18,2.332,2.332,0,0,1,2.36,1.311h0a2.614,2.614,0,0,1,2.491-1.311,2.548,2.548,0,0,1,2.753,2.753v5.506H40.2v-5.244a1.72,1.72,0,0,0-1.835-1.835,1.824,1.824,0,0,0-1.835,1.966v5.113h-1.18v-5.244c0-1.311-.655-1.966-1.835-1.966a1.827,1.827,0,0,0-1.835,1.966v5.113H30.5v-8Z" transform="translate(9.485 -296.078)"/></g><path class="a" d="M97.461,486.672H85.4V199.7H97.461Zm-11.143-.787H96.674V200.618H86.449V485.886Z" transform="translate(26.557 62.101)"/><path class="a" d="M336.261,486.672H324.2V199.7h12.061Zm-11.143-.787h10.226V200.618H325.118Z" transform="translate(100.818 62.101)"/><path class="a" d="M458.161,486.672H446.1V199.7h12.061Zm-11.143-.787h10.226V200.618H447.018Z" transform="translate(138.725 62.101)"/><path class="a" d="M301.561,486.672H289.5V199.7h12.061Zm-11.143-.787h10.226V200.618H290.418Z" transform="translate(90.027 62.101)"/><path class="a" d="M97.461,199.951H85.4V50.5H97.461Zm-11.143-.787H96.674V51.418H86.449V199.164Z" transform="translate(26.557 15.704)"/><path class="a" d="M301.561,199.951H289.5V50.5h12.061Zm-11.143-.787h10.226V51.418H290.418Z" transform="translate(90.027 15.704)"/><rect class="a" width="111.433" height="3.015" transform="translate(123.625 400.502)"/><rect class="a" width="35.79" height="3.015" transform="translate(243.186 262.195)"/><rect class="a" width="111.433" height="3.015" transform="translate(288.966 262.272) rotate(45)"/><rect class="a" width="111.433" height="3.015" transform="matrix(-0.345, 0.939, -0.939, -0.345, 299.573, 414.42)"/><rect class="a" width="56.241" height="36.576" transform="translate(311.618 500.661)"/><rect class="a" width="38.674" height="8.39" transform="translate(180.128 528.847)"/><rect class="a" width="3.933" height="8.39" transform="translate(225.356 528.847)"/><rect class="a" width="38.674" height="8.39" transform="translate(180.128 262.195)"/><rect class="a" width="38.674" height="8.39" transform="translate(380.016 364.717) rotate(90)"/><rect class="a" width="3.933" height="8.39" transform="translate(225.356 262.195)"/><path class="a" d="M336.261,203.261H324.2V191.2h12.061Zm-11.143-.918h10.226V192.118H325.118Z" transform="translate(100.818 59.458)"/><path class="a" d="M458.161,203.261H446.1V191.2h12.061Zm-11.143-.918h10.226V192.118H447.018Z" transform="translate(138.725 59.458)"/><path class="a" d="M482.251,203.261H332.8V191.2H482.251Zm-148.664-.918H481.333V192.118H333.587Z" transform="translate(103.492 59.458)"/><path class="a" d="M482.251,421.461H332.8V409.4H482.251Zm-148.664-.787H481.333V410.449H333.587Z" transform="translate(103.492 127.313)"/><path class="a" d="M482.251,319.461H332.8V307.4H482.251Zm-148.664-.918H481.333V308.318H333.587Z" transform="translate(103.492 95.593)"/></svg>