<svg xmlns="http://www.w3.org/2000/svg" viewBox="0 0 596.886 548.905"><defs><style>.a{fill:#fee100}</style></defs><path d="M112.481 162.691h-8a4.42 4.42 0 0 1-4.457-4.457v-34.61a4.42 4.42 0 0 1 4.46-4.457h8v2.622h-8a1.875 1.875 0 0 0-1.835 1.835v34.743a1.875 1.875 0 0 0 1.835 1.835h8ZM399.194 162.691h-8v-2.624h8a1.875 1.875 0 0 0 1.835-1.835v-34.608a1.875 1.875 0 0 0-1.835-1.835h-8v-2.622h8a4.42 4.42 0 0 1 4.457 4.457v34.743a4.394 4.394 0 0 1-4.457 4.324M490.566 255.378h40.902V258h-40.902ZM391.588 548.773h-279.5V250.658h279.631v298.115Zm-278.713-.787h277.8V251.445h-277.8Z" class="a"/><path d="M391.588 226.799h-279.5V55.061h279.631v171.738Zm-278.713-.787h277.8V55.848h-277.8ZM391.588 262.719h-279.5v-12.061h279.631v12.061Zm-278.713-.918h277.8v-10.225h-277.8Z" class="a"/><path d="M391.588 226.798h-279.5v-12.061h279.631v12.061Zm-278.713-.787h277.8v-10.225h-277.8ZM391.588 67.122h-279.5V55.061h279.631v12.061Zm-278.713-.918h277.8V55.979h-277.8ZM380.445 548.774H123.232v-12.061h257.344v12.061Zm-256.426-.787h255.513v-10.225H124.019ZM380.445 415.054H123.232v-12.061h257.344v12.061Zm-256.426-.918h255.513v-10.225H124.019ZM596.887 548.773H425.018V250.658h171.869Zm-170.951-.787h170.033V251.445H425.936ZM391.719 46.146h-1.049V29.497H113.006v16.649h-1.049V28.579h279.762ZM596.887 242.137h-.918v-16.518H425.936v16.518h-.918V224.57h171.869ZM101.863 548.905H84.296V250.527h17.567v1.049H85.214v296.28h16.649ZM232.96.262v1.049l-4.324 9.439h-1.18l4.457-9.439h-5.377V.262ZM235.975 8.128a2.106 2.106 0 0 0 2.36 1.835 2.517 2.517 0 0 0 2.491-2.622 2.553 2.553 0 0 0-4.851-1.049h-.918l.655-6.03h5.637v1.049h-4.592l-.393 3.54a3.06 3.06 0 0 1 2.36-.918 3.416 3.416 0 0 1 3.409 3.54 3.48 3.48 0 0 1-3.671 3.54 3.14 3.14 0 0 1-3.405-2.885Z" class="a"/><path d="M243.579 5.113c0-3.147 1.311-5.113 3.671-5.113s3.54 1.966 3.54 5.113V5.9c0 3.146-1.311 4.982-3.54 4.982s-3.671-1.967-3.671-4.982Zm1.18.787c0 2.622.918 4.064 2.491 4.064s2.491-1.442 2.491-4.064v-.787c0-2.622-.918-4.064-2.491-4.064s-2.491 1.442-2.491 4.064ZM252.887 2.622h1.18v1.049a2.25 2.25 0 0 1 2.1-1.18 2.33 2.33 0 0 1 2.36 1.311 2.61 2.61 0 0 1 2.488-1.311 2.548 2.548 0 0 1 2.753 2.753v5.506h-1.181V5.506a1.72 1.72 0 0 0-1.835-1.835 1.824 1.824 0 0 0-1.835 1.966v5.113h-1.18V5.506c0-1.311-.655-1.966-1.835-1.966a1.827 1.827 0 0 0-1.835 1.966v5.113h-1.18v-8ZM265.996 2.622h1.18v1.049a2.25 2.25 0 0 1 2.1-1.18 2.33 2.33 0 0 1 2.36 1.311 2.61 2.61 0 0 1 2.488-1.311 2.548 2.548 0 0 1 2.753 2.753v5.506h-1.181V5.506a1.72 1.72 0 0 0-1.835-1.835 1.824 1.824 0 0 0-1.835 1.966v5.113h-1.18V5.506c0-1.311-.655-1.966-1.835-1.966a1.827 1.827 0 0 0-1.835 1.966v5.113h-1.18v-8ZM491.484 198.612v7.21h1.438v1.049h-1.442v2.229h-1.049v-2.229h-5.109v-1.049c1.18-2.1 3.146-5.113 4.588-7.21Zm-1.049 7.21v-6.162c-1.18 1.7-2.884 4.326-3.933 6.162ZM494.237 203.463c0-3.146 1.311-5.113 3.671-5.113s3.54 1.966 3.54 5.113v.787c0 3.146-1.311 4.982-3.54 4.982s-3.671-1.967-3.671-4.982Zm1.049.787c0 2.622.918 4.064 2.491 4.064s2.491-1.442 2.491-4.064v-.787c0-2.622-.918-4.064-2.491-4.064s-2.491 1.442-2.491 4.064ZM502.889 203.463c0-3.146 1.311-5.113 3.671-5.113s3.54 1.966 3.54 5.113v.787c0 3.146-1.311 4.982-3.54 4.982s-3.671-1.966-3.671-4.982Zm1.18.787c0 2.622.918 4.064 2.491 4.064s2.491-1.442 2.491-4.064v-.787c0-2.622-.918-4.064-2.491-4.064s-2.491 1.442-2.491 4.064ZM512.197 201.103h1.18v1.049a2.25 2.25 0 0 1 2.1-1.18 2.33 2.33 0 0 1 2.36 1.311 2.61 2.61 0 0 1 2.491-1.311 2.548 2.548 0 0 1 2.753 2.753v5.506h-1.184v-5.244a1.72 1.72 0 0 0-1.835-1.835 1.824 1.824 0 0 0-1.835 1.966v5.113h-1.18v-5.113c0-1.311-.655-1.966-1.835-1.966a1.827 1.827 0 0 0-1.835 1.966v5.113h-1.18ZM525.307 201.103h1.18v1.049a2.25 2.25 0 0 1 2.1-1.18 2.33 2.33 0 0 1 2.36 1.311 2.61 2.61 0 0 1 2.491-1.311 2.548 2.548 0 0 1 2.753 2.753v5.506h-1.184v-5.244a1.72 1.72 0 0 0-1.835-1.835 1.824 1.824 0 0 0-1.835 1.966v5.113h-1.18v-5.113c0-1.311-.655-1.966-1.835-1.966a1.827 1.827 0 0 0-1.835 1.966v5.113h-1.18ZM0 396.832a2.6 2.6 0 0 1 2.1-2.622 2.5 2.5 0 0 1-1.7-2.36c0-1.573 1.311-2.753 3.277-2.753a3 3 0 0 1 3.277 2.753 2.5 2.5 0 0 1-1.7 2.36 2.716 2.716 0 0 1 2.1 2.622c0 1.835-1.573 3.015-3.671 3.015-2.241.131-3.683-1.18-3.683-3.015m6.162 0a2.265 2.265 0 0 0-2.491-2.1 2.265 2.265 0 0 0-2.491 2.1c0 1.311 1.049 2.1 2.491 2.1s2.491-.789 2.491-2.1m-.393-4.982a1.944 1.944 0 0 0-2.1-1.835 1.852 1.852 0 1 0 0 3.671 1.867 1.867 0 0 0 2.099-1.836ZM8.915 394.079c0-3.146 1.311-5.113 3.671-5.113s3.54 1.966 3.54 5.113v.787c0 3.146-1.311 4.982-3.54 4.982s-3.671-1.967-3.671-4.982Zm1.049.787c0 2.622.918 4.064 2.491 4.064s2.491-1.442 2.491-4.064v-.787c0-2.622-.918-4.064-2.491-4.064s-2.491 1.442-2.491 4.064ZM17.567 394.079c0-3.146 1.311-5.113 3.671-5.113s3.54 1.966 3.54 5.113v.787c0 3.146-1.311 4.982-3.54 4.982s-3.671-1.967-3.671-4.982Zm1.18.787c0 2.622.918 4.064 2.491 4.064s2.491-1.442 2.491-4.064v-.787c0-2.622-.918-4.064-2.491-4.064s-2.491 1.442-2.491 4.064ZM26.875 391.719h1.18v1.049a2.25 2.25 0 0 1 2.1-1.18 2.33 2.33 0 0 1 2.36 1.311 2.61 2.61 0 0 1 2.491-1.311 2.548 2.548 0 0 1 2.753 2.753v5.506h-1.184v-5.244a1.72 1.72 0 0 0-1.835-1.835 1.824 1.824 0 0 0-1.835 1.966v5.113h-1.18v-5.244c0-1.311-.655-1.966-1.835-1.966a1.827 1.827 0 0 0-1.835 1.966v5.113h-1.18v-8ZM39.985 391.719h1.18v1.049a2.25 2.25 0 0 1 2.1-1.18 2.33 2.33 0 0 1 2.36 1.311 2.61 2.61 0 0 1 2.491-1.311 2.548 2.548 0 0 1 2.753 2.753v5.506h-1.184v-5.244a1.72 1.72 0 0 0-1.835-1.835 1.824 1.824 0 0 0-1.835 1.966v5.113h-1.18v-5.244c0-1.311-.655-1.966-1.835-1.966a1.827 1.827 0 0 0-1.835 1.966v5.113h-1.18v-8ZM124.018 548.773h-12.061V261.801h12.061Zm-11.143-.787h10.356V262.719h-10.225v285.268ZM437.079 548.773h-12.061V261.801h12.061Zm-11.143-.787h10.226V262.719h-10.226ZM596.886 548.773h-12.061V261.801h12.061Zm-11.143-.787h10.226V262.719h-10.226ZM391.588 548.773h-12.061V261.801h12.061Zm-11.143-.787h10.226V262.719h-10.226ZM124.018 215.655h-12.061V66.204h12.061Zm-11.143-.787h10.356V67.122h-10.225v147.746ZM391.588 215.655h-12.061V66.204h12.061Zm-11.143-.787h10.226V67.122h-10.226Z" class="a"/><path d="M123.625 400.502h111.433v3.015H123.625ZM243.186 262.195h35.79v3.015h-35.79ZM288.966 262.272l78.795 78.795-2.132 2.132-78.795-78.795ZM299.573 414.42l-38.444 104.636-2.831-1.04 38.444-104.636ZM311.618 500.661h56.241v36.576h-56.241ZM180.128 528.847h38.674v8.39h-38.674ZM225.356 528.847h3.933v8.39h-3.933ZM180.128 262.195h38.674v8.39h-38.674ZM380.016 364.717v38.674h-8.39v-38.674ZM225.356 262.195h3.933v8.39h-3.933ZM437.079 262.719h-12.061v-12.061h12.061Zm-11.143-.918h10.226v-10.225h-10.226ZM596.886 262.719h-12.061v-12.061h12.061Zm-11.143-.918h10.226v-10.225h-10.226Z" class="a"/><path d="M585.743 262.719H436.292v-12.061h149.451Zm-148.664-.918h147.746v-10.225H437.079ZM585.743 548.774H436.292v-12.061h149.451Zm-148.664-.787h147.746v-10.225H437.079ZM585.743 415.054H436.292v-12.061h149.451Zm-148.664-.918h147.746v-10.225H437.079Z" class="a"/></svg>