<svg xmlns="http://www.w3.org/2000/svg" xml:space="preserve" id="レイヤー_1" x="0" y="0" style=".1 434.8" viewBox="0 0 984.1 434.8"><style>.st0{fill:none;stroke:#fee100;stroke-width:2px;stroke-miterlimit:10}.st1{fill:#fee100}.st3{fill:none;stroke:#000;stroke-width:.9px;stroke-miterlimit:10}.st4{fill:#7ab648}.st6{enable-background:new}.st7{fill:#222}.st8{fill:none;stroke:#fee100}.st9{fill:none;stroke:#fee100;stroke-width:2px}</style><path d="M125.4 206.35v60.7h153.3" class="st0"/><path d="M130.9 205.65H120l5.5-16.7Z" class="st1"/><path d="M121.8 204.55h7.5l-3.6-11.7Zm10.7 2.4h-14.1l7-21.6Z" class="st1"/><path d="M82.2 206.35v130.8h196.5" class="st0"/><path d="M87.4 205.65H76.7l5.5-16.7Z" class="st1"/><path d="M78.3 204.55h7.8l-3.9-11.7Zm10.7 2.4H75l7-21.6Z" class="st1"/><path d="M38 206.35v201h240.7" class="st0"/><path d="M43.5 205.65H32.8l5.2-16.7Z" class="st1"/><path d="M34.1 204.55h7.5l-3.6-11.7Zm10.9 2.4H31l7-21.6Z" class="st1"/><path d="M536.7 4336.1c6.4 0 11.7-5.2 11.7-11.6v-70.4c0-6.4 5.2-11.7 11.6-11.7h.1c-6.4 0-11.7-5.2-11.7-11.6v-70.4c0-6.4-5.2-11.7-11.6-11.7h-.1" style="fill:none;stroke:#fee100;stroke-width:.9px;stroke-miterlimit:10" transform="translate(-131 -3904.65)"/><path d="M508.9 119.45h163.2v53.9H508.9ZM819.7 119.45h164v53.9h-164Z" class="st1"/><path d="M819.7 119.45h164v53.9h-164ZM819.7 186.35h164v53.9h-164Z" class="st1"/><path d="M819.7 186.35h164v53.9h-164Z" class="st3"/><path d="M819.7 252.95h164v53.9h-164Z" class="st1"/><path d="M819.7 252.95h164v53.9h-164Z" class="st3"/><path d="M672.1 146.55h124.1" class="st0"/><path d="m813.9 146.55-16.4 5.2v-10.7Z" class="st1"/><path d="m798.6 150.45 11.7-3.9-11.7-3.9Zm20-3.9-22.1 7v-14.1Z" class="st1"/><path d="M672.1 146.55h72.6v67.9h51.5" class="st0"/><path d="m813.9 214.45-16.4 5.5v-10.9Z" class="st1"/><path d="m798.6 218.35 11.7-3.9-11.7-3.9Zm20-3.9-22.1 7v-14.1Z" class="st1"/><path d="M672.1 146.55h72.6v133.5h51.5" class="st0"/><path d="m813.9 280.05-16.4 5.5v-10.9Z" class="st1"/><path d="m798.6 283.95 11.7-3.9-11.7-3.9Zm20-3.9-22.1 7v-14.1ZM737.3 343.25h164v75h-164Z" class="st1"/><path d="M640.3 243.65H638v-47.6h2.3Zm0 135.8H741v2.3H638v-107.2h2.3ZM645 195.15h-11.7l6-16.9Z" class="st1"/><path d="M635.6 193.85h7l-3.6-11.7Zm10.7 2.4h-14.1l7-21.6ZM503.9 150.65l-16.9 5.2v-10.7Z" class="st1"/><path d="m488.3 154.35 11.7-3.9-11.7-3.9Zm19.3-3.7-21.6 7v-14.1Z" class="st1"/><path d="M399 401.85h-1.3v-2.3h1ZM492.7 380.75v-1.3ZM541.9 407.85v-.3h1.3Z" class="st4"/><path d="M743.4.05h164v101.8h-164Z" class="st1"/><path d="M682.3 4079.3v42.9" style="fill:none;stroke:#fee100;stroke-width:1.9px;stroke-miterlimit:10" transform="translate(-131 -3904.65)"/><path d="m551.3 235.25-5.2-16.7h10.7Z" class="st1"/><path d="m547.6 219.65 3.9 11.7 3.9-11.7Zm3.7 19.3-7-21.6h14.1ZM509.4 240.35h84.3v38.8h-84.3Z" class="st1"/><path d="M636.9 122.45v-71.5h83" class="st0"/><path d="m737.6 51.05-16.4 5.5v-10.9Z" class="st1"/><path d="m722.3 54.95 11.7-3.9-11.7-3.9Zm20-3.9-22.4 7v-14.1Z" class="st1"/><path d="M415.7 50.55h136.1v46.5" class="st0"/><path d="m551.8 114.55-5.2-16.7h10.7Z" class="st1"/><path d="m547.9 99.15 3.9 11.7 3.9-11.7Zm3.9 19.3-7-21.6h14.1Z" class="st1"/><g class="st6"><path d="M155 292.45c-.7.7-1.8 1.1-3.3 1.1s-2.6-.4-3.2-1.1q-.9-1.05-.9-3.3v-5.5q-.6-.3-.9-.6l.2-1.4h4l.2 1.4q-.3.3-.9.6v5.6c0 .8.1 1.4.4 1.8s.7.6 1.4.6q1.05 0 1.5-.6c.3-.4.4-1 .4-1.8v-5.6q-.75-.3-.9-.6l.2-1.4h3.7l.2 1.4q-.3.3-.9.6v5.5q-.3 2.1-1.2 3.3M163 283.45c-.4-.1-.8-.2-1.2-.2s-.8.1-1 .3c-.3.2-.4.5-.4.9s.1.7.3.9.6.4 1.1.6l1.5.4c.8.2 1.5.6 1.9 1.1.5.5.7 1.2.7 2.2q0 1.8-1.2 2.7c-.8.7-1.9 1-3.1 1q-1.05 0-2.1-.3c-.7-.2-1.3-.4-1.8-.7v-.4c0-.2 0-.5.1-1s.2-.8.3-1.1h1.6c.2.4.3.8.3 1.4.4.2.9.3 1.4.3s1-.1 1.3-.4.5-.6.5-1.1c0-.2 0-.4-.1-.5s-.1-.3-.3-.5-.4-.3-.8-.4l-1.8-.5c-1.8-.5-2.7-1.6-2.7-3.4 0-1 .4-1.9 1.1-2.5s1.7-.9 2.9-.9 2.4.3 3.5.8v.4c0 .2 0 .5-.1 1s-.2.8-.3 1.1H163c.1-.1 0-.6 0-1.2M170.9 281.65c1.3 0 2.3.1 2.9.2s1 .4 1.3.6c.6.5.9 1.3.9 2.3 0 .8-.4 1.5-1.2 2.2 1.1.5 1.6 1.5 1.6 3 0 1.1-.4 2-1.1 2.5s-1.9.9-3.3.9h-5l-.2-1.4c.1-.2.5-.4.9-.6v-7.8q-.75-.3-.9-.6l.2-1.4h3.9Zm.2 1.8h-.9v2.9h1.4c.6 0 1-.1 1.3-.4s.5-.7.5-1.1-.1-.7-.3-1c-.2-.2-.5-.3-.7-.4Zm.7 4.8h-1.5v3.2h1.2q1.2 0 1.8-.3t.6-1.2c0-.6-.2-1-.5-1.3-.4-.3-.9-.4-1.6-.4M181.5 281.45c2.4 0 3.7 1 3.7 3 0 .4-.1.9-.3 1.4s-.5.9-.8 1.2l-2.5 3c-.4.4-.8.9-1.3 1.3l-.3.2.1.2c.5-.1 1.1-.2 1.7-.2h1.3c.1-.6.2-1.1.4-1.5l1.6.1c.2.4.4 1.1.4 2.1 0 .4 0 .8-.1 1.1h-7.8l-.4-2.1 4.2-4.6c.8-.9 1.2-1.7 1.2-2.5q0-.6-.3-.9c-.2-.2-.6-.3-1.1-.3s-1 .1-1.3.2c-.1.8-.2 1.4-.4 1.6l-1.5-.1c-.2-.4-.3-1-.4-1.9v-.4c1-.5 2.3-.9 3.9-.9M186.6 296.55c-.1-.2-.2-.6-.2-1.2 0-.1 0-.3.1-.5l4.6-13.8 1.1.2c.1.1.1.3.2.6s0 .5 0 .6 0 .3-.1.5l-4.6 13.7ZM193.6 282.45v-.4c.3-.1.8-.3 1.4-.4.7-.1 1.2-.2 1.7-.2s.9 0 1.4.1c.4.1.8.2 1.2.5q.6.3.9.9c.2.4.3.9.3 1.4s-.2 1-.5 1.4-.7.8-1.1 1v.2c1.3.5 2 1.4 2 2.6s-.5 2.2-1.4 2.9c-.9.6-2.1 1-3.5 1-.5 0-1-.1-1.5-.2s-1-.3-1.3-.4l.4-1.5c.8.3 1.5.4 2.2.4 1.7 0 2.5-.6 2.5-1.8 0-1.4-.7-2-2-2-.5 0-1 0-1.5.1l-.2-1.4 1.5-.1c1.3-.1 1.9-.7 1.9-1.9 0-.6-.1-1-.4-1.3s-.7-.4-1.2-.4c-.2 0-.4 0-.6.1-.1.6-.2 1.1-.4 1.4l-1.5-.1c-.2-.4-.3-1-.3-1.9" class="st1"/></g><g class="st6"><path d="M284.9 157.45c-.7.7-1.8 1.1-3.3 1.1s-2.6-.4-3.2-1.1q-.9-1.05-.9-3.3v-5.5q-.6-.3-.9-.6l.2-1.4h4l.2 1.4q-.3.3-.9.6v5.6c0 .8.1 1.4.4 1.8s.7.6 1.4.6q1.05 0 1.5-.6c.3-.4.4-1 .4-1.8v-5.6q-.75-.3-.9-.6l.2-1.4h3.7l.2 1.4q-.3.3-.9.6v5.5q-.3 2.1-1.2 3.3M292.9 148.45c-.4-.1-.8-.2-1.2-.2s-.8.1-1 .3c-.3.2-.4.5-.4.9s.1.7.3.9.6.4 1.1.6l1.5.4c.8.2 1.5.6 1.9 1.1.5.5.7 1.2.7 2.2q0 1.8-1.2 2.7c-.8.7-1.9 1-3.1 1q-1.05 0-2.1-.3c-.7-.2-1.3-.4-1.8-.7v-.4c0-.2 0-.5.1-1s.2-.8.3-1.1h1.6c.2.4.3.8.3 1.4.4.2.9.3 1.4.3s1-.1 1.3-.4.5-.6.5-1.1c0-.2 0-.4-.1-.5s-.1-.3-.3-.5-.4-.3-.8-.4l-1.8-.5c-1.8-.5-2.7-1.6-2.7-3.4 0-1 .4-1.9 1.1-2.5s1.7-.9 2.9-.9 2.4.3 3.5.8v.4c0 .2 0 .5-.1 1s-.2.8-.3 1.1h-1.6c.1-.1 0-.6 0-1.2M300.8 146.65c1.3 0 2.3.1 2.9.2s1 .4 1.3.6c.6.5.9 1.3.9 2.3 0 .8-.4 1.5-1.2 2.2 1.1.5 1.6 1.5 1.6 3 0 1.1-.4 2-1.1 2.5s-1.9.9-3.3.9h-4.8l-.2-1.4c.1-.2.5-.4.9-.6v-7.8q-.75-.3-.9-.6l.2-1.4h3.7Zm.2 1.8h-.9v2.9h1.4c.6 0 1-.1 1.3-.4s.5-.7.5-1.1-.1-.7-.3-1c-.2-.2-.5-.3-.7-.4Zm.7 4.8h-1.5v3.2h1.2q1.2 0 1.8-.3t.6-1.2c0-.6-.2-1-.5-1.3-.4-.3-.9-.4-1.6-.4M307 161.55c-.1-.2-.2-.6-.2-1.2 0-.1 0-.3.1-.5l4.6-13.8 1.1.2c.1.1.1.3.2.6s0 .5 0 .6 0 .3-.1.5l-4.6 13.7ZM319.1 148.45c-.4-.1-.8-.2-1.2-.2s-.8.1-1 .3c-.3.2-.4.5-.4.9s.1.7.3.9.6.4 1.1.6l1.5.4c.8.2 1.5.6 1.9 1.1.5.5.7 1.2.7 2.2q0 1.8-1.2 2.7c-.8.7-1.9 1-3.1 1q-1.05 0-2.1-.3c-.7-.2-1.3-.4-1.8-.7v-.4c0-.2 0-.5.1-1s.2-.8.3-1.1h1.6c.2.4.3.8.3 1.4.4.2.9.3 1.4.3s1-.1 1.3-.4.5-.6.5-1.1c0-.2 0-.4-.1-.5s-.1-.3-.3-.5-.4-.3-.8-.4l-1.8-.5c-1.8-.5-2.7-1.6-2.7-3.4 0-1 .4-1.9 1.1-2.5s1.7-.9 2.9-.9 2.4.3 3.5.8v.4c0 .2 0 .5-.1 1s-.2.8-.3 1.1h-1.6c.2-.1 0-.6 0-1.2M327 158.45c-1.4 0-2.4-.4-3.1-1.1s-1-1.8-1-3.2c0-.8.1-1.6.4-2.2.2-.6.6-1.1 1-1.4.8-.6 1.7-1 2.8-1s1.9.3 2.4.8.8 1.5.8 2.9q0 1.2-1.2 1.2h-3.7q0 1.05.6 1.5c.3.3.8.4 1.5.4.4 0 .8 0 1.1-.1.4-.1.6-.2.8-.3l.2-.1.5 1.4-.3.3c-.1.1-.5.3-1 .5s-1.1.4-1.8.4m1.1-5.3v-.6c0-.2-.1-.5-.3-.7-.2-.3-.5-.4-.9-.4s-.8.1-1 .4-.4.7-.5 1.4ZM336.2 151.95c-.9 0-1.5.2-1.8.5v3.9c.9.2 1.5.4 1.9.7l-.2 1.3h-4.9l-.2-1.3q.3-.3.9-.6v-4.7q-.6-.15-.9-.6l.2-1.3c.6-.1 1.2-.2 1.7-.2h1.2v1.1c.3-.3.6-.6 1-.8s.8-.3 1.1-.3.6 0 .7.1l-.1 2.2ZM337.9 149.85c.6-.1 1.2-.2 1.8-.2s1 0 1.4.1v6.8c.4.2.8.4.9.6l-.2 1.3h-3.9l-.2-1.3q.3-.3.9-.6v-4.7q-.6-.15-.9-.6Zm2-1.2c-.9 0-1.4-.4-1.4-1.3s.5-1.3 1.4-1.3 1.4.4 1.4 1.3-.5 1.3-1.4 1.3M343 151.15v-.5c1.1-.6 2.2-.8 3.4-.8s2.1.2 2.6.7.8 1.2.8 2.3v3.6q.6.15.9.3v1.5c-.6.3-1.4.4-2.5.4-.1-.3-.2-.7-.3-1.1-.5.7-1.4 1.1-2.7 1.1-.8 0-1.4-.2-1.9-.7-.5-.4-.8-1-.8-1.8s.3-1.4.8-1.8 1.3-.7 2.3-.7h1.9v-.8c0-.9-.5-1.3-1.4-1.3-.4 0-.6 0-.9.1 0 .5-.1.8-.2 1.1h-1.7c-.2-.5-.3-1-.3-1.6m3.1 5.6c.6 0 1-.2 1.4-.5v-1.4h-1.2q-1.2 0-1.2.9c0 .3.1.5.3.7.1.2.3.3.7.3M351.4 146.25c.6-.1 1.2-.2 1.8-.2.5 0 1 0 1.4.1v10.4c.4.2.8.4.9.6l-.2 1.3h-3.9l-.2-1.3q.3-.3.9-.6v-8.3q-.6-.15-.9-.6Z" class="st1"/></g><g class="st6"><path d="M538 364.65v3l-1.3.2c-.3-.2-.5-.6-.6-1.3h-2.7v3.1h2.4c.1-.3.3-.6.4-.7l1.1.1v3l-1.1.1c-.1-.1-.3-.4-.4-.7h-2.4v2.8c.8.2 1.3.4 1.7.7l-.2 1.4h-4.7l-.2-1.4c.1-.2.5-.4.9-.6v-7.8q-.75-.3-.9-.6l.2-1.4h7.8ZM542.5 376.45c-1.3 0-2.3-.4-3-1.1-.6-.7-1-1.8-1-3.2s.4-2.5 1.1-3.3 1.8-1.1 3.1-1.1 2.3.3 3 1 1 1.7 1 3.2c0 1.4-.4 2.6-1.1 3.4-.7.7-1.7 1.1-3.1 1.1m-1.5-4.4c0 1.8.5 2.7 1.6 2.7q.9 0 1.2-.6c.3-.4.4-1.1.4-2 0-1.8-.6-2.7-1.7-2.7q-.75 0-1.2.6c-.45.6-.3 1-.3 2M551.6 369.45c-1 0-1.6.9-1.6 2.7 0 .9.1 1.5.4 1.9s.7.5 1.2.5c.9 0 1.6-.1 2.3-.2l.5 1.3q-.6.3-1.5.6c-.6.2-1.2.2-1.8.2-2.4 0-3.7-1.4-3.7-4.2 0-1.7.4-2.8 1.3-3.6.8-.6 1.7-1 2.8-1q1.65 0 2.7.6v.3c0 .6-.1 1.3-.4 1.8h-1.5c-.2-.3-.3-.6-.3-1 0 .1-.2.1-.4.1M561.5 375.65c-.8.6-1.7.8-2.8.8s-1.8-.2-2.2-.7c-.4-.4-.6-1.2-.6-2.2v-3.9q-.6-.15-.9-.6l.2-1.3c.6-.1 1.2-.2 1.8-.2s1 0 1.4.1v5.4q0 .9.3 1.2c.2.2.6.3 1.1.3.6 0 1.1-.2 1.5-.5v-4.3q-.6-.15-.9-.6l.2-1.3c.6-.1 1.2-.2 1.8-.2.5 0 1 0 1.4.1v6.6q.6.15.9.3v1.3c-.7.4-1.5.5-2.6.5-.4-.2-.5-.5-.6-.8M568.7 369.25c-.7 0-1.1.2-1.1.7q0 .6 1.2.9l1.3.4q2.1.6 2.1 2.4 0 1.2-.9 2.1c-.6.5-1.5.8-2.8.8s-2.3-.2-3-.5v-.4c0-.6.1-1.2.4-1.7h1.4c.1.3.2.6.3.8.2.1.5.1 1 .1q1.5 0 1.5-.9c0-.2-.1-.3-.2-.5s-.4-.2-.8-.3l-1.3-.4c-.7-.2-1.2-.5-1.6-.9s-.6-.9-.6-1.7.3-1.4.9-1.8c.6-.5 1.5-.7 2.6-.7s2.1.2 2.8.5v.3c0 .6-.1 1.1-.4 1.6h-1.4c-.1-.3-.2-.5-.3-.8Z" class="st1"/></g><g class="st6"><path d="M530.2 383.65c-.3-.1-.8-.2-1.5-.2s-1.2.3-1.6.9-.6 1.6-.6 3.1.2 2.5.6 3.1q.6.9 1.8.9c1.2 0 2.3-.2 3.3-.5l.6 1.5c-1.2.7-2.6 1.1-4.2 1.1s-2.8-.5-3.5-1.4-1.1-2.4-1.1-4.5.4-3.6 1.3-4.6 2.1-1.5 3.7-1.5c1.3 0 2.5.4 3.7 1.1v.4c0 .2 0 .5-.1 1s-.2.8-.3 1.1h-1.6c-.3-.4-.5-.9-.5-1.5M537.3 393.45c-1.3 0-2.3-.4-3-1.1-.6-.7-1-1.8-1-3.2s.4-2.5 1.1-3.3 1.8-1.1 3.1-1.1 2.3.3 3 1 1 1.7 1 3.2c0 1.4-.4 2.6-1.1 3.4-.7.7-1.8 1.1-3.1 1.1m-1.5-4.4c0 1.8.5 2.7 1.6 2.7q.9 0 1.2-.6c.3-.4.4-1.1.4-2 0-1.8-.6-2.7-1.7-2.7q-.75 0-1.2.6c-.2.4-.3 1-.3 2M542.5 384.85c.6-.1 1.2-.2 1.7-.2h1.2v.8c.3-.2.7-.4 1.1-.6.5-.2.9-.2 1.4-.2 1.1 0 1.9.3 2.3.8s.7 1.4.7 2.7v3.3c.4.2.8.4.9.6l-.2 1.3h-3.9l-.2-1.3q.3-.3.9-.6v-3.4q0-.9-.3-1.2c-.3-.3-.6-.3-1.1-.3s-1 .2-1.5.5v4.4c.4.2.8.4.9.6l-.2 1.3h-3.9l-.2-1.3q.3-.3.9-.6v-4.7q-.6-.15-.9-.6ZM555.6 382.75v2.1h2.4v1.4h-2.4v4.3c0 .4.1.6.2.8s.3.2.7.2q.6 0 1.2-.3l.5 1.3c-.9.4-1.8.7-2.7.7s-1.5-.2-1.9-.6c-.3-.4-.5-1-.5-1.7v-4.8h-.8l-.2-1c.2-.2.6-.4 1.1-.6.1-.9.5-1.6 1-1.9h1.4ZM563.9 386.95c-.9 0-1.5.2-1.8.5v3.9c.9.2 1.5.4 1.9.7l-.2 1.3H559l-.2-1.3q.3-.3.9-.6v-4.7q-.6-.15-.9-.6l.2-1.3c.6-.1 1.2-.2 1.7-.2h1.2v1.1c.3-.3.6-.6 1-.8s.8-.3 1.1-.3.6 0 .7.1l-.1 2.2ZM569.3 393.45c-1.3 0-2.3-.4-3-1.1-.6-.7-1-1.8-1-3.2s.4-2.5 1.1-3.3 1.8-1.1 3.1-1.1 2.3.3 3 1 1 1.7 1 3.2c0 1.4-.4 2.6-1.1 3.4s-1.7 1.1-3.1 1.1m-1.5-4.4c0 1.8.5 2.7 1.6 2.7q.9 0 1.2-.6c.3-.4.4-1.1.4-2 0-1.8-.6-2.7-1.7-2.7q-.75 0-1.2.6c-.45.6-.3 1-.3 2M574.4 381.25c.6-.1 1.2-.2 1.8-.2s1 0 1.4.1v10.4c.4.2.8.4.9.6l-.2 1.3h-3.9l-.2-1.3q.3-.3.9-.6v-8.3q-.6-.15-.9-.6Z" class="st1"/></g><g class="st6"><path d="m790.7 369.45-3.2-9.8c-.5-.2-.8-.4-1-.6l.2-1.4h4l.2 1.4c-.2.2-.4.4-.9.5l1.4 5c.2.8.4 1.5.4 2.2v.3h.2c0-.7.2-1.5.4-2.4l1.5-5q-.6-.15-.9-.6l.2-1.4h3.9l.2 1.4c-.2.2-.6.5-1.1.6l-3.2 9.8ZM805.8 369.35H798l-.2-1.4c.1-.2.5-.4.9-.6v-7.8q-.75-.3-.9-.6l.2-1.4h4l.2 1.4q-.3.3-.9.6v7.9h2.7c.1-.6.4-1 .6-1.3l1.3.2v3ZM810.3 361.85c1.1 0 2 .3 2.6.9q.9.9.9 2.7c0 1.4-.4 2.4-1.2 3.1s-2 1-3.4 1c-.5 0-1-.1-1.6-.2s-1-.3-1.3-.5l.5-1.5c.6.2 1.3.4 2.1.4s1.3-.2 1.7-.5q.6-.45.6-1.5 0-1.35-.6-1.8c-.3-.2-.7-.4-1.2-.4s-1.1.1-1.9.2l-.7-1.3v-4.9h6.3v1.9H809v2.4ZM815 358.45v-.4c.3-.1.8-.3 1.4-.4s1.2-.2 1.7-.2.9 0 1.4.1c.4.1.8.2 1.2.5q.6.3.9.9c.2.4.3.9.3 1.4s-.2 1-.5 1.4-.7.8-1.1 1v.2c1.3.5 2 1.4 2 2.6s-.5 2.2-1.4 2.9c-.9.6-2.1 1-3.5 1-.5 0-1-.1-1.5-.2-.6-.1-1-.3-1.3-.4l.4-1.5c.8.3 1.5.4 2.2.4 1.7 0 2.5-.6 2.5-1.8 0-1.4-.7-2-2-2-.5 0-1 0-1.5.1l-.2-1.4 1.5-.1c1.3-.1 1.9-.7 1.9-1.9 0-.6-.1-1-.4-1.3s-.7-.4-1.2-.4c-.2 0-.4 0-.6.1-.1.6-.2 1.1-.4 1.4l-1.5-.1c-.2-.4-.3-1-.3-1.9M831.5 369.35h-7.8l-.2-1.4c.1-.2.5-.4.9-.6v-7.8q-.75-.3-.9-.6l.2-1.4h4l.2 1.4q-.3.3-.9.6v7.9h2.7c.1-.6.4-1 .6-1.3l1.3.2v3ZM836.3 369.45c-1.5 0-2.6-.4-3.2-1.3s-.9-2.4-.9-4.6c0-2.1.3-3.7 1-4.7s1.8-1.4 3.3-1.4 2.6.4 3.2 1.3q.9 1.2.9 4.5c0 2.1-.3 3.7-1 4.7s-1.8 1.5-3.3 1.5m-1.2-9.5c-.2.6-.3 1.7-.3 3.4 0 1.6.1 2.8.3 3.5s.7 1 1.3 1c.5 0 .9-.2 1.2-.7s.5-1.7.5-3.5-.1-3-.3-3.7-.7-1-1.4-1-1.1.4-1.3 1M846.7 362.15c.1-.3.3-.7.6-1.4l.6-1.2c-.4-.2-.7-.4-.8-.5l.2-1.4h3.9l.2 1.4c-.2.2-.6.5-1.1.6l-2.2 3.6 2.3 4.1c.5.2.8.4 1 .6l-.2 1.4h-4l-.2-1.4c.1-.2.4-.3.7-.5l-.8-1.7c-.3-.6-.5-1-.6-1.4l-.1-.2h-.3q-.15.6-.6 1.5l-.8 1.6c.4.2.7.4.8.5l-.2 1.4h-3.9l-.2-1.4c.2-.2.6-.5 1.1-.6l2.3-4.1-2.2-3.6c-.5-.2-.9-.4-1.1-.6l.2-1.4h4l.2 1.4c-.1.2-.4.3-.7.5l.7 1.3c.3.6.5 1 .6 1.4h.6Z" class="st7"/></g><g class="st6"><path d="M791.8 386.35h-4.3l-.2-1.4c.1-.2.5-.4.9-.6v-7.8q-.75-.3-.9-.6l.2-1.4h3.8c1.8 0 3.3.5 4.3 1.5 1.1 1 1.6 2.5 1.6 4.5s-.5 3.4-1.5 4.3-2.3 1.5-3.9 1.5m-1.2-1.9h1.2c.8 0 1.5-.3 2-.8s.7-1.5.7-3c0-2.8-1.1-4.2-3.2-4.2h-.8v8ZM798.3 377.85c.6-.1 1.2-.2 1.8-.2s1 0 1.4.1v6.8c.4.2.8.4.9.6l-.2 1.3h-3.9l-.2-1.3q.3-.3.9-.6v-4.7q-.6-.15-.9-.6Zm1.9-1.2c-.9 0-1.4-.4-1.4-1.3s.5-1.3 1.4-1.3 1.4.4 1.4 1.3-.4 1.3-1.4 1.3M806.5 379.25c-.7 0-1.1.2-1.1.7q0 .6 1.2.9l1.3.4q2.1.6 2.1 2.4 0 1.2-.9 2.1c-.6.5-1.5.8-2.8.8s-2.3-.2-3-.5v-.4c0-.6.1-1.2.4-1.7h1.4c.1.3.2.6.3.8.2.1.5.1 1 .1q1.5 0 1.5-.9c0-.2-.1-.3-.2-.5s-.4-.2-.8-.3l-1.3-.4c-.7-.2-1.2-.5-1.6-.9s-.6-.9-.6-1.7.3-1.4.9-1.8c.6-.5 1.5-.7 2.6-.7s2.1.2 2.8.5v.3c0 .6-.1 1.1-.4 1.6h-1.4c-.1-.3-.2-.5-.3-.8ZM813.8 375.75v2.1h2.4v1.4h-2.4v4.3c0 .4.1.6.2.8s.3.2.7.2q.6 0 1.2-.3l.5 1.3c-.9.4-1.8.7-2.7.7s-1.5-.2-1.9-.6c-.3-.4-.5-1-.5-1.7v-4.8h-.8l-.2-1c.2-.2.6-.4 1.1-.6.1-.9.5-1.6 1-1.9h1.4ZM817.4 379.15v-.5c1.1-.6 2.2-.8 3.4-.8s2.1.2 2.6.7.8 1.2.8 2.3v3.6q.6.15.9.3v1.5c-.6.3-1.4.4-2.5.4-.1-.3-.2-.7-.3-1.1-.5.7-1.4 1.1-2.7 1.1-.8 0-1.4-.2-1.9-.7-.5-.4-.8-1-.8-1.8s.3-1.4.8-1.8 1.3-.7 2.3-.7h1.9v-.8c0-.9-.5-1.3-1.4-1.3-.4 0-.6 0-.9.1 0 .5-.1.8-.2 1.1h-1.7c-.2-.5-.3-1-.3-1.6m3 5.6c.6 0 1-.2 1.4-.5v-1.4h-1.2q-1.2 0-1.2.9c0 .3.1.5.3.7.1.2.4.3.7.3M825.9 377.85c.6-.1 1.2-.2 1.7-.2h1.2v.8c.3-.2.7-.4 1.1-.6.5-.2.9-.2 1.4-.2 1.1 0 1.9.3 2.3.8s.7 1.4.7 2.7v3.3c.4.2.8.4.9.6l-.2 1.3h-3.9l-.2-1.3q.3-.3.9-.6v-3.4q0-.9-.3-1.2c-.2-.2-.6-.3-1.1-.3s-1 .2-1.5.5v4.4c.4.2.8.4.9.6l-.2 1.3h-3.9l-.2-1.3q.3-.3.9-.6v-4.7q-.6-.15-.9-.6ZM839.9 379.45c-1 0-1.6.9-1.6 2.7 0 .9.1 1.5.4 1.9s.7.5 1.2.5c.9 0 1.6-.1 2.3-.2l.5 1.3q-.6.3-1.5.6c-.6.2-1.2.2-1.8.2-2.4 0-3.7-1.4-3.7-4.2 0-1.7.4-2.8 1.3-3.6.8-.6 1.7-1 2.8-1q1.65 0 2.7.6v.3c0 .6-.1 1.3-.4 1.8h-1.5c-.2-.3-.3-.6-.3-1 0 .1-.2.1-.4.1M847.6 386.45c-1.4 0-2.4-.4-3.1-1.1s-1-1.8-1-3.2c0-.8.1-1.6.4-2.2.2-.6.6-1.1 1-1.4.8-.6 1.7-1 2.8-1s1.9.3 2.4.8c.6.5.8 1.5.8 2.9q0 1.2-1.2 1.2H846q0 1.05.6 1.5c.3.3.8.4 1.5.4.4 0 .8 0 1.1-.1.4-.1.6-.2.8-.3l.2-.1.5 1.4-.3.3c-.1.1-.5.3-1 .5-.5.3-1.1.4-1.8.4m1.1-5.3v-.6c0-.2-.1-.5-.3-.7s-.5-.4-.9-.4-.8.1-1 .4-.4.7-.5 1.4Z" class="st7"/></g><g class="st6"><path d="M799.4 393.45c-.4-.1-.8-.2-1.2-.2s-.8.1-1 .3c-.3.2-.4.5-.4.9s.1.7.3.9.6.4 1.1.6l1.5.4c.8.2 1.5.6 1.9 1.1s.7 1.2.7 2.2q0 1.8-1.2 2.7c-.8.7-1.9 1-3.1 1q-1.05 0-2.1-.3c-.7-.2-1.3-.4-1.8-.7v-.4c0-.2 0-.5.1-1s.2-.8.3-1.1h1.6c.2.4.3.8.3 1.4.4.2.9.3 1.4.3s1-.1 1.3-.4.5-.6.5-1.1c0-.2 0-.4-.1-.5s-.1-.3-.3-.5-.4-.3-.8-.4l-1.8-.5c-1.8-.5-2.7-1.6-2.7-3.4 0-1 .4-1.9 1.1-2.5s1.7-.9 2.9-.9 2.4.3 3.5.8v.4c0 .2 0 .5-.1 1s-.2.8-.3 1.1h-1.6c.2-.1 0-.6 0-1.2M807.3 403.45c-1.4 0-2.4-.4-3.1-1.1s-1-1.8-1-3.2c0-.8.1-1.6.4-2.2.2-.6.6-1.1 1-1.4.8-.6 1.7-1 2.8-1s1.9.3 2.4.8c.6.5.8 1.5.8 2.9q0 1.2-1.2 1.2h-3.7q0 1.05.6 1.5c.3.3.8.4 1.5.4.4 0 .8 0 1.1-.1.4-.1.6-.2.8-.3l.2-.1.5 1.4-.3.3c-.1.1-.5.3-1 .5-.5.3-1.1.4-1.8.4m1.1-5.3v-.6c0-.2-.1-.5-.3-.7s-.5-.4-.9-.4-.8.1-1 .4-.4.7-.5 1.4ZM811.6 394.85c.6-.1 1.2-.2 1.7-.2h1.2v.8c.3-.2.7-.4 1.1-.6.5-.2.9-.2 1.4-.2 1.1 0 1.9.3 2.3.8s.7 1.4.7 2.7v3.3c.4.2.8.4.9.6l-.2 1.3h-3.9l-.2-1.3q.3-.3.9-.6v-3.4q0-.9-.3-1.2c-.3-.3-.6-.3-1.1-.3s-1 .2-1.5.5v4.4c.4.2.8.4.9.6l-.2 1.3h-3.9l-.2-1.3q.3-.3.9-.6v-4.7q-.6-.15-.9-.6ZM824.9 396.25c-.7 0-1.1.2-1.1.7q0 .6 1.2.9l1.3.4q2.1.6 2.1 2.4 0 1.2-.9 2.1c-.6.5-1.5.8-2.8.8s-2.3-.2-3-.5v-.4c0-.6.1-1.2.4-1.7h1.4c.1.3.2.6.3.8.2.1.5.1 1 .1q1.5 0 1.5-.9c0-.2-.1-.3-.2-.5s-.4-.2-.8-.3l-1.3-.4c-.7-.2-1.2-.5-1.6-.9s-.6-.9-.6-1.7.3-1.4.9-1.8c.6-.5 1.5-.7 2.6-.7s2.1.2 2.8.5v.3c0 .6-.1 1.1-.4 1.6h-1.4c-.1-.3-.2-.5-.3-.8ZM833.1 403.45c-1.3 0-2.3-.4-3-1.1-.6-.7-1-1.8-1-3.2s.4-2.5 1.1-3.3 1.8-1.1 3.1-1.1 2.3.3 3 1 1 1.7 1 3.2c0 1.4-.4 2.6-1.1 3.4s-1.7 1.1-3.1 1.1m-1.5-4.4c0 1.8.5 2.7 1.6 2.7q.9 0 1.2-.6c.3-.4.4-1.1.4-2 0-1.8-.6-2.7-1.7-2.7q-.75 0-1.2.6c-.45.6-.3 1-.3 2M843.3 396.95c-.9 0-1.5.2-1.8.5v3.9c.9.2 1.5.4 1.9.7l-.2 1.3h-4.9l-.2-1.3q.3-.3.9-.6v-4.7q-.6-.15-.9-.6l.2-1.3c.6-.1 1.2-.2 1.7-.2h1.2v1.1c.3-.3.6-.6 1-.8s.8-.3 1.1-.3.6 0 .7.1l-.1 2.2Z" class="st7"/></g><g class="st6"><path d="m631.5 253.65.2 1.4q-.3.3-.9.6v7.8q.75.3.9.6l-.2 1.4h-4l-.2-1.4c.1-.2.5-.4.9-.6v-7.8q-.75-.3-.9-.6l.2-1.4ZM636.9 253.45c2.4 0 3.7 1 3.7 3 0 .4-.1.9-.3 1.4s-.5.9-.8 1.2l-2.5 3c-.4.4-.8.9-1.3 1.3l-.3.2.1.2c.5-.1 1.1-.2 1.7-.2h1.3c.1-.6.2-1.1.4-1.5l1.6.1c.2.4.4 1.1.4 2.1 0 .4 0 .8-.1 1.1H633l-.4-2.1 4.2-4.6c.8-.9 1.2-1.7 1.2-2.5q0-.6-.3-.9c-.2-.2-.6-.3-1.1-.3s-1 .1-1.3.2c-.1.8-.2 1.4-.4 1.6l-1.5-.1c-.2-.4-.3-1-.4-1.9v-.4c1.1-.5 2.4-.9 3.9-.9M648.3 255.65c-.3-.1-.8-.2-1.5-.2s-1.2.3-1.6.9-.6 1.6-.6 3.1.2 2.5.6 3.1q.6.9 1.8.9c1.2 0 2.3-.2 3.3-.5l.6 1.5c-1.2.7-2.6 1.1-4.2 1.1s-2.8-.5-3.5-1.4-1.1-2.4-1.1-4.5.4-3.6 1.3-4.6 2.1-1.5 3.7-1.5c1.3 0 2.5.4 3.7 1.1v.4c0 .2 0 .5-.1 1s-.2.8-.3 1.1h-1.6c-.3-.4-.4-.9-.5-1.5" class="st1"/></g><g class="st6"><path d="M797 28.65v2.4l-1.1.1c-.1-.1-.3-.4-.4-.7h-2v7.9q.75.3.9.6l-.2 1.4h-4l-.2-1.4c.1-.2.5-.4.9-.6v-7.9h-2c-.1.4-.3.6-.4.7l-1.1-.1v-2.4ZM797.6 28.25c.6-.1 1.2-.2 1.8-.2.5 0 1 0 1.4.1v4.2c.3-.2.6-.3 1.1-.5.5-.1.9-.2 1.2-.2 1.1 0 1.9.3 2.3.8s.6 1.4.6 2.5v3.5c.4.2.8.4.9.6l-.2 1.3h-3.9l-.2-1.3q.3-.3.9-.6v-3.4q0-.9-.3-1.2c-.3-.3-.6-.3-1.1-.3s-1 .2-1.5.5v4.4c.4.2.8.4.9.6l-.2 1.3h-3.9l-.2-1.3q.3-.3.9-.6v-8.3q-.6-.15-.9-.6ZM812.6 33.95c-.9 0-1.5.2-1.8.5v3.9c.9.2 1.5.4 1.9.7l-.2 1.3h-4.9l-.2-1.3q.3-.3.9-.6v-4.7q-.6-.15-.9-.6l.2-1.3c.6-.1 1.2-.2 1.7-.2h1.2v1.1c.3-.3.6-.6 1-.8s.8-.3 1.1-.3.6 0 .7.1l-.1 2.2ZM820.4 39.65c-.8.6-1.7.8-2.8.8s-1.8-.2-2.2-.7c-.4-.4-.6-1.2-.6-2.2v-3.9q-.6-.15-.9-.6l.2-1.3c.6-.1 1.2-.2 1.8-.2s1 0 1.4.1v5.4q0 .9.3 1.2c.2.2.6.3 1.1.3.6 0 1.1-.2 1.5-.5v-4.3q-.6-.15-.9-.6l.2-1.3c.6-.1 1.2-.2 1.8-.2s1 0 1.4.1v6.6q.6.15.9.3v1.3c-.7.4-1.5.5-2.6.5-.4-.2-.6-.5-.6-.8M823.8 28.25c.6-.1 1.2-.2 1.8-.2s1 0 1.4.1v4.2c.2-.2.6-.3 1-.5s.8-.2 1.1-.2c1.2 0 2.1.3 2.6 1 .5.6.7 1.7.7 3.2 0 .8-.1 1.6-.3 2.2s-.5 1.1-.9 1.4c-.7.6-1.6 1-2.7 1-.8 0-1.5-.2-2.3-.6-.2.3-.5.4-.7.4h-.9v-10.2q-.6-.15-.9-.6Zm4.5 10.5c1.1 0 1.6-.9 1.6-2.7 0-1-.1-1.6-.3-2-.2-.3-.5-.5-1-.5-.7 0-1.3.2-1.7.6v4.4c.5.1.9.2 1.4.2M837.3 40.45c-1.4 0-2.4-.4-3.1-1.1s-1-1.8-1-3.2c0-.8.1-1.6.4-2.2.2-.6.6-1.1 1-1.4.8-.6 1.7-1 2.8-1s1.9.3 2.4.8c.6.5.8 1.5.8 2.9q0 1.2-1.2 1.2h-3.7q0 1.05.6 1.5c.3.3.8.4 1.5.4.4 0 .8 0 1.1-.1.4-.1.6-.2.8-.3l.2-.1.5 1.4-.3.3c-.1.1-.5.3-1 .5-.5.3-1.1.4-1.8.4m1.1-5.3v-.6c0-.2-.1-.5-.3-.7s-.5-.4-.9-.4-.8.1-1 .4-.4.7-.5 1.4ZM841.8 33.15v-.5c1.1-.6 2.2-.8 3.4-.8s2.1.2 2.6.7.8 1.2.8 2.3v3.6q.6.15.9.3v1.5c-.6.3-1.4.4-2.5.4-.1-.3-.2-.7-.3-1.1-.5.7-1.4 1.1-2.7 1.1-.8 0-1.4-.2-1.9-.7-.5-.4-.8-1-.8-1.8s.3-1.4.8-1.8 1.3-.7 2.3-.7h1.9v-.8c0-.9-.5-1.3-1.4-1.3-.4 0-.6 0-.9.1 0 .5-.1.8-.2 1.1h-1.7c-.2-.5-.3-1-.3-1.6m3.1 5.6c.6 0 1-.2 1.4-.5v-1.4H845q-1.2 0-1.2.9c0 .3.1.5.3.7s.4.3.8.3M850.3 31.85c.6-.1 1.2-.2 1.7-.2h1.2v.8c.3-.2.6-.4 1-.6s.8-.2 1.1-.2c1.3 0 2.2.3 2.6 1 .3-.3.7-.5 1.1-.7.5-.2.9-.3 1.3-.3 1.2 0 2.1.3 2.5.8.4.6.6 1.6.6 3.2v2.8c.4.2.8.4.9.6l-.2 1.3h-3.9l-.2-1.3q.3-.3.9-.6v-3.4q0-.9-.3-1.2c-.3-.3-.5-.3-1-.3s-1 .2-1.4.6c.1.4.1.9.1 1.6v2.8c.4.2.8.4.9.6l-.2 1.3h-3.9l-.2-1.3q.3-.3.9-.6v-3.4q0-.9-.3-1.2c-.3-.3-.5-.3-1-.3s-1 .2-1.4.5v4.4c.4.2.8.4.9.6l-.2 1.3h-3.9l-.2-1.3q.3-.3.9-.6v-4.7q-.6-.15-.9-.6Z" class="st7"/></g><g class="st6"><path d="M806.4 47.45c-.4-.1-.8-.2-1.2-.2s-.8.1-1 .3c-.3.2-.4.5-.4.9s.1.7.3.9.6.4 1.1.6l1.5.4c.8.2 1.5.6 1.9 1.1s.7 1.2.7 2.2q0 1.8-1.2 2.7c-.8.7-1.9 1-3.1 1q-1.05 0-2.1-.3c-.7-.2-1.3-.4-1.8-.7v-.4c0-.2 0-.5.1-1s.2-.8.3-1.1h1.6c.2.4.3.8.3 1.4.4.2.9.3 1.4.3s1-.1 1.3-.4.5-.6.5-1.1c0-.2 0-.4-.1-.5s-.1-.3-.3-.5-.4-.3-.8-.4l-1.8-.5c-1.8-.5-2.7-1.6-2.7-3.4 0-1 .4-1.9 1.1-2.5s1.7-.9 2.9-.9 2.4.3 3.5.8v.4c0 .2 0 .5-.1 1s-.2.8-.3 1.1h-1.6c.2-.1 0-.6 0-1.2M814.3 57.45c-1.4 0-2.4-.4-3.1-1.1s-1-1.8-1-3.2c0-.8.1-1.6.4-2.2.2-.6.6-1.1 1-1.4.8-.6 1.7-1 2.8-1s1.9.3 2.4.8c.6.5.8 1.5.8 2.9q0 1.2-1.2 1.2h-3.7q0 1.05.6 1.5c.3.3.8.4 1.5.4.4 0 .8 0 1.1-.1.4-.1.6-.2.8-.3l.2-.1.5 1.4-.3.3c-.1.1-.5.3-1 .5-.5.3-1.1.4-1.8.4m1.1-5.3v-.6c0-.2-.1-.5-.3-.7s-.5-.4-.9-.4-.8.1-1 .4-.4.7-.5 1.4ZM818.6 48.85c.6-.1 1.2-.2 1.7-.2h1.2v.8c.3-.2.7-.4 1.1-.6.5-.2.9-.2 1.4-.2 1.1 0 1.9.3 2.3.8s.7 1.4.7 2.7v3.3c.4.2.8.4.9.6l-.2 1.3h-3.9l-.2-1.3q.3-.3.9-.6v-3.4q0-.9-.3-1.2c-.3-.3-.6-.3-1.1-.3s-1 .2-1.5.5v4.4c.4.2.8.4.9.6l-.2 1.3h-3.9l-.2-1.3q.3-.3.9-.6v-4.7q-.6-.15-.9-.6ZM831.9 50.25c-.7 0-1.1.2-1.1.7q0 .6 1.2.9l1.3.4q2.1.6 2.1 2.4 0 1.2-.9 2.1c-.6.5-1.5.8-2.8.8s-2.3-.2-3-.5v-.4c0-.6.1-1.2.4-1.7h1.4c.1.3.2.6.3.8.2.1.5.1 1 .1q1.5 0 1.5-.9c0-.2-.1-.3-.2-.5s-.4-.2-.8-.3l-1.3-.4c-.7-.2-1.2-.5-1.6-.9s-.6-.9-.6-1.7.3-1.4.9-1.8c.6-.5 1.5-.7 2.6-.7s2.1.2 2.8.5v.3c0 .6-.1 1.1-.4 1.6h-1.4c-.1-.3-.2-.5-.3-.8ZM840.1 57.45c-1.3 0-2.3-.4-3-1.1-.6-.7-1-1.8-1-3.2s.4-2.5 1.1-3.3 1.8-1.1 3.1-1.1 2.3.3 3 1 1 1.7 1 3.2c0 1.4-.4 2.6-1.1 3.4s-1.7 1.1-3.1 1.1m-1.5-4.4c0 1.8.5 2.7 1.6 2.7q.9 0 1.2-.6c.3-.4.4-1.1.4-2 0-1.8-.6-2.7-1.7-2.7q-.75 0-1.2.6c-.45.6-.3 1-.3 2M850.3 50.95c-.9 0-1.5.2-1.8.5v3.9c.9.2 1.5.4 1.9.7l-.2 1.3h-4.9l-.2-1.3q.3-.3.9-.6v-4.7q-.6-.15-.9-.6l.2-1.3c.6-.1 1.2-.2 1.7-.2h1.2v1.1c.3-.3.6-.6 1-.8s.8-.3 1.1-.3.6 0 .7.1l-.1 2.2Z" class="st7"/></g><g class="st6"><path d="M788.3 64.35h-1.6c-.1.6-.2 1.1-.4 1.5l-1.6-.1c-.2-.4-.4-1.1-.4-2 0-.4 0-.7.1-1.1h8.3l.2 1.3-4.9 7.4c-.3.5-.6.9-1 1.1l-.2.1.1.2c.5-.1 1.1-.2 1.7-.2h2.1c.1-.6.2-1.1.4-1.5l1.6.1c.2.4.4 1.1.4 2 0 .4 0 .7-.1 1.1h-8.8l-.2-1.3 4.9-7.4c.3-.5.6-.8 1-1.1l.2-.1-.1-.2c-.6.1-1.2.2-1.7.2M798.1 62.45c2.4 0 3.7 1 3.7 3 0 .4-.1.9-.3 1.4s-.5.9-.8 1.2l-2.5 3c-.4.4-.8.9-1.3 1.3l-.3.2.1.2c.5-.1 1.1-.2 1.7-.2h1.3c.1-.6.2-1.1.4-1.5l1.6.1c.2.4.4 1.1.4 2.1 0 .4 0 .8-.1 1.1h-7.8l-.4-2.1 4.2-4.6c.8-.9 1.2-1.7 1.2-2.5q0-.6-.3-.9c-.2-.2-.6-.3-1.1-.3s-1 .1-1.3.2c-.1.8-.2 1.4-.4 1.6l-1.5-.1c-.2-.4-.3-1-.4-1.9v-.4c1-.5 2.3-.9 3.9-.9M812.3 62.65v2.4l-1.1.1c-.1-.1-.3-.4-.4-.7h-2v7.9q.75.3.9.6l-.2 1.4h-4l-.2-1.4c.1-.2.5-.4.9-.6v-7.9h-2c-.1.4-.3.6-.4.7l-1.1-.1v-2.4ZM816.2 70.65h-3.9l-.2-1.1q.6-.6 1.5-.6h3.9l.2 1.1q-.6.6-1.5.6M822.9 62.45c2.4 0 3.7 1 3.7 3 0 .4-.1.9-.3 1.4s-.5.9-.8 1.2l-2.5 3c-.4.4-.8.9-1.3 1.3l-.3.2.1.2c.5-.1 1.1-.2 1.7-.2h1.3c.1-.6.2-1.1.4-1.5l1.6.1c.2.4.4 1.1.4 2.1 0 .4 0 .8-.1 1.1H819l-.4-2.1 4.2-4.6c.8-.9 1.2-1.7 1.2-2.5q0-.6-.3-.9c-.2-.2-.6-.3-1.1-.3s-1 .1-1.3.2c-.1.8-.2 1.4-.4 1.6l-1.5-.1c-.2-.4-.3-1-.4-1.9v-.4c1-.5 2.3-.9 3.9-.9M832.2 74.45c-1.5 0-2.6-.4-3.2-1.3s-.9-2.4-.9-4.6c0-2.1.3-3.7 1-4.7s1.8-1.4 3.3-1.4 2.6.4 3.2 1.3q.9 1.2.9 4.5c0 2.1-.3 3.7-1 4.7s-1.8 1.5-3.3 1.5m-1.2-9.5c-.2.6-.3 1.7-.3 3.4 0 1.6.1 2.8.3 3.5s.7 1 1.3 1c.5 0 .9-.2 1.2-.7s.5-1.7.5-3.5-.1-3-.3-3.7-.7-1-1.4-1c-.7.1-1.1.4-1.3 1M842 74.45c-1.5 0-2.6-.4-3.2-1.3s-.9-2.4-.9-4.6c0-2.1.3-3.7 1-4.7s1.8-1.4 3.3-1.4 2.6.4 3.2 1.3q.9 1.2.9 4.5c0 2.1-.3 3.7-1 4.7q-1.05 1.5-3.3 1.5m-1.2-9.5c-.2.6-.3 1.7-.3 3.4 0 1.6.1 2.8.3 3.5s.7 1 1.3 1c.5 0 .9-.2 1.2-.7s.5-1.7.5-3.5-.1-3-.3-3.7-.7-1-1.4-1-1.1.4-1.3 1M851.8 74.45c-1.5 0-2.6-.4-3.2-1.3s-.9-2.4-.9-4.6c0-2.1.3-3.7 1-4.7s1.8-1.4 3.3-1.4 2.6.4 3.2 1.3q.9 1.2.9 4.5c0 2.1-.3 3.7-1 4.7q-1.05 1.5-3.3 1.5m-1.2-9.5c-.2.6-.3 1.7-.3 3.4 0 1.6.1 2.8.3 3.5s.7 1 1.3 1c.5 0 .9-.2 1.2-.7s.5-1.7.5-3.5-.1-3-.3-3.7-.7-1-1.4-1-1.1.4-1.3 1M860.1 67.95v4.5q.6.3.9.6l-.2 1.3h-3.3l-.2-1.3q.3-.45.9-.6v-7.9c-.5-.2-.8-.4-1-.6l.2-1.3h3.5l3.4 6.6c.2.5.5 1.1.7 1.9l.1.4.2-.1c-.2-1-.2-1.8-.2-2.5v-4.4q-.6-.3-.9-.6l.2-1.3h3.3l.2 1.3q-.3.45-.9.6v9.8h-2.7l-3.4-6.6c-.2-.5-.5-1.1-.7-1.9l-.1-.4-.2.1c.1.9.2 1.7.2 2.4" class="st7"/></g><g class="st6"><path d="M891.3 152.35h-7.8l-.2-1.4c.1-.2.5-.4.9-.6v-7.8q-.75-.3-.9-.6l.2-1.4h4l.2 1.4q-.3.3-.9.6v7.9h2.7c.1-.6.4-1 .6-1.3l1.3.2v3ZM900 152.35h-7.9l-.2-1.4c.1-.2.5-.4.9-.6v-7.8q-.75-.3-.9-.6l.2-1.4h7.8v3l-1.3.2c-.3-.2-.5-.6-.6-1.3h-2.7v2.9h2.4c.1-.3.3-.6.4-.7l1.1.1v3l-1.1.1c-.1-.1-.3-.4-.4-.7h-2.4v3.2h2.8c.1-.6.4-1 .6-1.3l1.3.2ZM905.6 152.35h-4.3l-.2-1.4c.1-.2.5-.4.9-.6v-7.8q-.75-.3-.9-.6l.2-1.4h3.8c1.8 0 3.3.5 4.3 1.5 1.1 1 1.6 2.5 1.6 4.5s-.5 3.4-1.5 4.3-2.3 1.5-3.9 1.5m-1.2-1.9h1.2c.8 0 1.5-.3 2-.8s.7-1.5.7-3c0-2.8-1.1-4.2-3.2-4.2h-.8v8ZM918.8 140.55c.3 0 .6 0 .9.1v9.8q.75.3.9.6l-.2 1.4H916l-.2-1.4c.2-.2.7-.5 1.4-.6v-7.4c-.6-.1-1.1-.2-1.5-.4v-1.3c1-.6 2-.8 3.1-.8" class="st7"/></g><g class="st6"><path d="M889.7 219.35h-7.8l-.2-1.4c.1-.2.5-.4.9-.6v-7.8q-.75-.3-.9-.6l.2-1.4h4l.2 1.4q-.3.3-.9.6v7.9h2.7c.1-.6.4-1 .6-1.3l1.3.2v3ZM898.3 219.35h-7.9l-.2-1.4c.1-.2.5-.4.9-.6v-7.8q-.75-.3-.9-.6l.2-1.4h7.8v3l-1.3.2c-.3-.2-.5-.6-.6-1.3h-2.7v2.9h2.4c.1-.3.3-.6.4-.7l1.1.1v3l-1.1.1c-.1-.1-.3-.4-.4-.7h-2.4v3.2h2.8c.1-.6.4-1 .6-1.3l1.3.2ZM903.9 219.35h-4.3l-.2-1.4c.1-.2.5-.4.9-.6v-7.8q-.75-.3-.9-.6l.2-1.4h3.8c1.8 0 3.3.5 4.3 1.5 1.1 1 1.6 2.5 1.6 4.5s-.5 3.4-1.5 4.3q-1.35 1.5-3.9 1.5m-1.1-1.9h1.2c.8 0 1.5-.3 2-.8s.7-1.5.7-3c0-2.8-1.1-4.2-3.2-4.2h-.8v8ZM918.3 207.45c2.4 0 3.7 1 3.7 3 0 .4-.1.9-.3 1.4s-.5.9-.8 1.2l-2.5 3c-.4.4-.8.9-1.3 1.3l-.3.2.1.2c.5-.1 1.1-.2 1.7-.2h1.3c.1-.6.2-1.1.4-1.5l1.6.1c.2.4.4 1.1.4 2.1 0 .4 0 .8-.1 1.1h-7.8l-.4-2.1 4.2-4.6c.8-.9 1.2-1.7 1.2-2.5q0-.6-.3-.9c-.2-.2-.6-.3-1.1-.3s-1 .1-1.3.2c-.1.8-.2 1.4-.4 1.6l-1.5-.1c-.2-.4-.3-1-.4-1.9v-.4c1-.5 2.3-.9 3.9-.9" class="st7"/></g><g class="st6"><path d="M889.9 286.35h-7.8l-.2-1.4c.1-.2.5-.4.9-.6v-7.8q-.75-.3-.9-.6l.2-1.4h4l.2 1.4q-.3.3-.9.6v7.9h2.7c.1-.6.4-1 .6-1.3l1.3.2v3ZM898.6 286.35h-7.9l-.2-1.4c.1-.2.5-.4.9-.6v-7.8q-.75-.3-.9-.6l.2-1.4h7.8v3l-1.3.2c-.3-.2-.5-.6-.6-1.3h-2.7v2.9h2.4c.1-.3.3-.6.4-.7l1.1.1v3l-1.1.1c-.1-.1-.3-.4-.4-.7h-2.4v3.2h2.8c.1-.6.4-1 .6-1.3l1.3.2ZM904.2 286.35h-4.3l-.2-1.4c.1-.2.5-.4.9-.6v-7.8q-.75-.3-.9-.6l.2-1.4h3.8c1.8 0 3.3.5 4.3 1.5 1.1 1 1.6 2.5 1.6 4.5s-.5 3.4-1.5 4.3c-.9 1-2.3 1.5-3.9 1.5m-1.2-1.9h1.2c.9 0 1.5-.3 2-.8s.7-1.5.7-3c0-2.8-1.1-4.2-3.2-4.2h-.8v8ZM914.6 275.45v-.4c.3-.1.8-.3 1.4-.4.7-.1 1.2-.2 1.7-.2s.9 0 1.4.1c.4.1.8.2 1.2.5q.6.3.9.9c.2.4.3.9.3 1.4s-.2 1-.5 1.4-.7.8-1.1 1v.2c1.3.5 2 1.4 2 2.6s-.5 2.2-1.4 2.9c-.9.6-2.1 1-3.5 1-.5 0-1-.1-1.5-.2-.6-.1-1-.3-1.3-.4l.4-1.5c.8.3 1.5.4 2.2.4 1.7 0 2.5-.6 2.5-1.8 0-1.4-.7-2-2-2-.5 0-1 0-1.5.1l-.2-1.4 1.5-.1c1.3-.1 1.9-.7 1.9-1.9 0-.6-.1-1-.4-1.3s-.7-.4-1.2-.4c-.2 0-.4 0-.6.1-.1.6-.2 1.1-.4 1.4l-1.5-.1c-.2-.4-.3-1-.3-1.9" class="st7"/></g><g class="st6"><path d="M330 45.55c.3 0 .6 0 .9.1v9.8q.75.3.9.6l-.2 1.4h-4.4l-.2-1.4c.2-.2.7-.5 1.4-.6v-7.4c-.6-.1-1.1-.2-1.5-.4v-1.3c1-.6 2-.8 3.1-.8M337.1 45.45c2.4 0 3.7 1 3.7 3 0 .4-.1.9-.3 1.4s-.5.9-.8 1.2l-2.5 3c-.4.4-.8.9-1.3 1.3l-.3.2.1.2c.5-.1 1.1-.2 1.7-.2h1.3c.1-.6.2-1.1.4-1.5l1.6.1c.2.4.4 1.1.4 2.1 0 .4 0 .8-.1 1.1h-7.8l-.4-2.1 4.2-4.6c.8-.9 1.2-1.7 1.2-2.5q0-.6-.3-.9c-.2-.2-.6-.3-1.1-.3s-1 .1-1.3.2c-.1.8-.2 1.4-.4 1.6l-1.5-.1c-.2-.4-.3-1-.4-1.9v-.4c1-.5 2.3-.9 3.9-.9M345.6 57.45l-3.2-9.8c-.5-.2-.8-.4-1-.6l.2-1.4h4l.2 1.4c-.2.2-.4.4-.9.5l1.4 5c.2.8.4 1.5.4 2.2v.3h.2c0-.7.2-1.5.4-2.4l1.5-5q-.6-.15-.9-.6l.2-1.4h3.9l.2 1.4c-.2.2-.6.5-1.1.6l-3.2 9.8ZM360.7 53.25h-.8v2c.8.2 1.3.4 1.5.7l-.2 1.4h-4.6l-.2-1.4c.1-.2.5-.4.9-.6v-7.8q-.75-.3-.9-.6l.2-1.4h4.5c1.6 0 2.8.3 3.5.9.8.5 1.2 1.5 1.2 2.9.1 2.6-1.7 3.9-5.1 3.9m.2-5.8h-1v3.9h1.1c.8 0 1.3-.2 1.7-.5s.6-.8.6-1.6-.2-1.3-.6-1.5c-.4-.1-1-.3-1.8-.3M370.5 57.45c-1.3 0-2.3-.4-3-1.1-.6-.7-1-1.8-1-3.2s.4-2.5 1.1-3.3 1.8-1.1 3.1-1.1 2.3.3 3 1 1 1.7 1 3.2c0 1.4-.4 2.6-1.1 3.4-.7.7-1.8 1.1-3.1 1.1m-1.5-4.4c0 1.8.5 2.7 1.6 2.7q.9 0 1.2-.6c.3-.4.4-1.1.4-2 0-1.8-.6-2.7-1.7-2.7q-.75 0-1.2.6c-.2.4-.3 1-.3 2M383.3 57.45l-.9-2.7c-.2-.5-.3-1.2-.4-2l-.1-.4h-.2c-.1.9-.3 1.7-.5 2.4l-.8 2.7H378l-2.1-6.7c-.5-.2-.8-.4-1-.6l.2-1.3h4l.2 1.3c-.2.2-.5.4-1 .6l1 4.3h.2c.1-.6.3-1.2.4-1.9l1.2-4.4h1.9l1.1 4.3.4 1.9h.2c.4-1.9.7-3.2.8-3.9l.1-.5c-.5-.2-.8-.4-1-.6l.2-1.3h3.8l.2 1.3c-.2.3-.5.5-1.1.6l-2.1 6.6h-2.3ZM393.2 57.45c-1.4 0-2.4-.4-3.1-1.1s-1-1.8-1-3.2c0-.8.1-1.6.4-2.2.2-.6.6-1.1 1-1.4.8-.6 1.7-1 2.8-1s1.9.3 2.4.8.8 1.5.8 2.9q0 1.2-1.2 1.2h-3.7q0 1.05.6 1.5c.3.3.8.4 1.5.4.4 0 .8 0 1.1-.1.4-.1.6-.2.8-.3l.2-.1.5 1.4-.3.3c-.1.1-.5.3-1 .5s-1.1.4-1.8.4m1.1-5.3v-.6c0-.2-.1-.5-.3-.7-.2-.3-.5-.4-.9-.4s-.8.1-1 .4-.4.7-.5 1.4ZM402.4 50.95c-.9 0-1.5.2-1.8.5v3.9c.9.2 1.5.4 1.9.7l-.2 1.3h-4.9l-.2-1.3q.3-.3.9-.6v-4.7q-.6-.15-.9-.6l.2-1.3c.6-.1 1.2-.2 1.7-.2h1.2v1.1c.3-.3.6-.6 1-.8s.8-.3 1.1-.3.6 0 .7.1l-.1 2.2Z" class="st1"/></g><g class="st6"><path d="M526.8 255.45c-.4-.1-.8-.2-1.2-.2s-.8.1-1 .3c-.3.2-.4.5-.4.9s.1.7.3.9.6.4 1.1.6l1.5.4c.8.2 1.5.6 1.9 1.1.5.5.7 1.2.7 2.2q0 1.8-1.2 2.7c-.8.7-1.9 1-3.1 1q-1.05 0-2.1-.3c-.7-.2-1.3-.4-1.8-.7v-.4c0-.2 0-.5.1-1s.2-.8.3-1.1h1.6c.2.4.3.8.3 1.4.4.2.9.3 1.4.3s1-.1 1.3-.4.5-.6.5-1.1c0-.2 0-.4-.1-.5 0-.1-.1-.3-.3-.5s-.4-.3-.8-.4l-1.8-.5c-1.8-.5-2.7-1.6-2.7-3.4 0-1 .4-1.9 1.1-2.5s1.7-.9 2.9-.9 2.4.3 3.5.8v.4c0 .2 0 .5-.1 1s-.2.8-.3 1.1h-1.6c.1-.1 0-.6 0-1.2M530.6 256.85c.6-.1 1.2-.2 1.7-.2h1.2v.8c.8-.5 1.6-.8 2.4-.8 1.1 0 2 .3 2.5 1 .5.6.8 1.7.8 3.2 0 .8-.1 1.5-.4 2.1-.2.6-.6 1.1-1 1.4-.8.7-1.7 1-2.8 1-.5 0-.9 0-1.3-.1v1.5c.7.2 1.1.4 1.3.6l-.2 1.3h-4.3l-.2-1.3c.1-.2.5-.4.9-.6v-8.1q-.6-.15-.9-.6Zm4.3 6.9c.6 0 1-.3 1.3-.8s.5-1.2.5-2.1-.1-1.5-.3-1.8-.5-.5-1-.5c-.7 0-1.3.2-1.7.5v4.5c.4.2.8.2 1.2.2M544.1 265.45c-1.4 0-2.4-.4-3.1-1.1s-1-1.8-1-3.2c0-.8.1-1.6.4-2.2s.6-1.1 1-1.4c.8-.6 1.7-1 2.8-1s1.9.3 2.4.8c.6.5.8 1.5.8 2.9q0 1.2-1.2 1.2h-3.7q0 1.05.6 1.5c.3.3.8.4 1.5.4.4 0 .8 0 1.1-.1.4-.1.6-.2.8-.3l.2-.1.5 1.4-.3.3c-.1.1-.5.3-1 .5-.5.3-1.1.4-1.8.4m1.1-5.3v-.6c0-.2-.1-.5-.3-.7-.2-.3-.5-.4-.9-.4s-.8.1-1 .4-.4.7-.5 1.4ZM548.6 258.15v-.5c1.1-.6 2.2-.8 3.4-.8s2.1.2 2.6.7.8 1.2.8 2.3v3.6q.6.15.9.3v1.5c-.6.3-1.4.4-2.5.4-.1-.3-.2-.7-.3-1.1-.5.7-1.4 1.1-2.7 1.1-.8 0-1.4-.2-1.9-.7-.5-.4-.8-1-.8-1.8s.3-1.4.8-1.8 1.3-.7 2.3-.7h1.9v-.8c0-.9-.5-1.3-1.4-1.3-.4 0-.6 0-.9.1 0 .5-.1.8-.2 1.1h-1.7c-.2-.5-.3-1-.3-1.6m3.1 5.6c.6 0 1-.2 1.4-.5v-1.4h-1.2q-1.2 0-1.2.9c0 .3.1.5.3.7.1.2.3.3.7.3M556.9 253.25c.6-.1 1.2-.2 1.8-.2.5 0 1 0 1.4.1v10.4c.4.2.8.4.9.6l-.2 1.3h-3.9l-.2-1.3q.3-.3.9-.6v-8.3q-.6-.15-.9-.6Zm6.3 12.1-3-4.4 1.9-2.4c-.2-.1-.3-.2-.4-.4l.2-1.3h3.7l.2 1.3c-.2.3-.7.6-1.4.7l-1.6 1.9 1.9 2.5c.7.2 1.2.4 1.5.7l-.2 1.3h-2.8ZM570.7 265.45c-1.4 0-2.4-.4-3.1-1.1s-1-1.8-1-3.2c0-.8.1-1.6.4-2.2.2-.6.6-1.1 1-1.4.8-.6 1.7-1 2.8-1s1.9.3 2.4.8c.6.5.8 1.5.8 2.9q0 1.2-1.2 1.2h-3.7q0 1.05.6 1.5c.3.3.8.4 1.5.4.4 0 .8 0 1.1-.1s.6-.2.8-.3l.2-.1.5 1.4-.3.3c-.1.1-.5.3-1 .5-.5.3-1.1.4-1.8.4m1.1-5.3v-.6c0-.2-.1-.5-.3-.7s-.5-.4-.9-.4-.8.1-1 .4-.4.7-.5 1.4ZM579.9 258.95c-.9 0-1.5.2-1.8.5v3.9c.9.2 1.5.4 1.9.7l-.2 1.3H575l-.2-1.3q.3-.3.9-.6v-4.7q-.6-.15-.9-.6l.2-1.3c.6-.1 1.2-.2 1.7-.2h1.2v1.1c.3-.3.6-.6 1-.8s.8-.3 1.1-.3.6 0 .7.1l-.1 2.2Z" class="st7"/></g><g class="st6"><path d="m549.3 140.55 3.4 9.8c.5.2.8.4 1 .6l-.2 1.4h-4l-.2-1.4c.1-.2.4-.4.8-.5l-.5-1.4h-3.4l-.4 1.4c.4.2.7.3.9.6l-.2 1.4h-3.9l-.2-1.4c.2-.3.6-.5 1.1-.6l3.3-9.8h2.5Zm-1.4 2.4c0 .7-.1 1.5-.4 2.4l-.7 2.1h2.4l-.6-2.1c-.3-.8-.4-1.5-.4-2.2v-.3h-.3ZM559.2 145.95c-.9 0-1.5.2-1.8.5v3.9c.9.2 1.5.4 1.9.7l-.2 1.3h-4.9l-.2-1.3q.3-.3.9-.6v-4.7q-.6-.15-.9-.6l.2-1.3c.6-.1 1.2-.2 1.7-.2h1.2v1.1c.3-.3.6-.6 1-.8s.8-.3 1.1-.3.6 0 .7.1l-.1 2.2ZM565.1 140.25c.6-.1 1.3-.2 1.9-.2s1.1 0 1.5.1v10.2c.3.1.7.2.9.3v1.3c-.7.4-1.5.5-2.6.5l-.3-.3c-.1-.1-.2-.3-.2-.4-.2.2-.6.4-1 .5s-.8.2-1.2.2c-1.2 0-2.1-.3-2.7-1-.5-.7-.8-1.7-.8-3.3 0-1.7.4-2.9 1.3-3.6q1.05-.9 2.7-.9c.5 0 1 .1 1.4.2v-1.7c-.5-.1-.9-.4-1.2-.6Zm-.5 10.5c.6 0 1.2-.2 1.6-.6v-4.6c-.5-.1-1-.2-1.5-.2s-.9.2-1.1.7-.3 1.1-.3 2.1.1 1.6.3 2c.1.4.5.6 1 .6M576.4 151.65c-.8.6-1.7.8-2.8.8s-1.8-.2-2.2-.7c-.4-.4-.6-1.2-.6-2.2v-3.9q-.6-.15-.9-.6l.2-1.3c.6-.1 1.2-.2 1.8-.2s1 0 1.4.1v5.4q0 .9.3 1.2c.2.2.6.3 1.1.3.6 0 1.1-.2 1.5-.5v-4.3q-.6-.15-.9-.6l.2-1.3c.6-.1 1.2-.2 1.8-.2.5 0 1 0 1.4.1v6.6q.6.15.9.3v1.3c-.7.4-1.5.5-2.6.5-.4-.2-.6-.5-.6-.8M580.3 143.85c.6-.1 1.2-.2 1.8-.2s1 0 1.4.1v6.8c.4.2.8.4.9.6l-.2 1.3h-3.9l-.2-1.3q.3-.3.9-.6v-4.7q-.6-.15-.9-.6Zm2-1.2c-.9 0-1.4-.4-1.4-1.3s.5-1.3 1.4-1.3 1.4.4 1.4 1.3-.5 1.3-1.4 1.3M585.3 143.85c.6-.1 1.2-.2 1.7-.2h1.2v.8c.3-.2.7-.4 1.1-.6.5-.2.9-.2 1.4-.2 1.1 0 1.9.3 2.3.8s.7 1.4.7 2.7v3.3c.4.2.8.4.9.6l-.2 1.3h-3.9l-.2-1.3q.3-.3.9-.6v-3.4q0-.9-.3-1.2c-.2-.2-.6-.3-1.1-.3s-1 .2-1.5.5v4.4c.4.2.8.4.9.6l-.2 1.3h-3.9l-.2-1.3q.3-.3.9-.6v-4.7q-.6-.15-.9-.6ZM599.2 152.45c-1.3 0-2.3-.4-3-1.1-.6-.7-1-1.8-1-3.2s.4-2.5 1.1-3.3 1.8-1.1 3.1-1.1 2.3.3 3 1 1 1.7 1 3.2c0 1.4-.4 2.6-1.1 3.4-.8.7-1.8 1.1-3.1 1.1m-1.6-4.4c0 1.8.5 2.7 1.6 2.7q.9 0 1.2-.6c.3-.4.4-1.1.4-2 0-1.8-.6-2.7-1.7-2.7q-.75 0-1.2.6c-.1.4-.3 1-.3 2M616.2 151.45c-.7.7-1.8 1.1-3.3 1.1s-2.6-.4-3.2-1.1q-.9-1.05-.9-3.3v-5.5q-.6-.3-.9-.6l.2-1.4h4l.2 1.4q-.3.3-.9.6v5.6c0 .8.1 1.4.4 1.8s.7.6 1.4.6 1.2-.2 1.5-.6.4-1 .4-1.8v-5.6q-.75-.3-.9-.6l.2-1.4h3.7l.2 1.4q-.3.3-.9.6v5.5q-.3 2.1-1.2 3.3M618.8 143.85c.6-.1 1.2-.2 1.7-.2h1.2v.8c.3-.2.7-.4 1.1-.6.5-.2.9-.2 1.4-.2 1.1 0 1.9.3 2.3.8s.7 1.4.7 2.7v3.3c.4.2.8.4.9.6l-.2 1.3H624l-.2-1.3q.3-.3.9-.6v-3.4q0-.9-.3-1.2c-.2-.2-.6-.3-1.1-.3s-1 .2-1.5.5v4.4c.4.2.8.4.9.6l-.2 1.3h-3.9l-.2-1.3q.3-.3.9-.6v-4.7q-.6-.15-.9-.6ZM632.7 152.45c-1.3 0-2.3-.4-3-1.1-.6-.7-1-1.8-1-3.2s.4-2.5 1.1-3.3 1.8-1.1 3.1-1.1 2.3.3 3 1 1 1.7 1 3.2c0 1.4-.4 2.6-1.1 3.4-.8.7-1.8 1.1-3.1 1.1m-1.5-4.4c0 1.8.5 2.7 1.6 2.7q.9 0 1.2-.6c.3-.4.4-1.1.4-2 0-1.8-.6-2.7-1.7-2.7q-.75 0-1.2.6c-.2.4-.3 1-.3 2" class="st7"/></g><path d="M233.8 240.369h164v53.9h-164ZM233.8 310.569h164v53.9h-164ZM233.8 380.869h164v53.9h-164Z" class="st1"/><g class="st6"><path d="M312.1 252.269v2.4l-1.1.1c-.1-.1-.3-.4-.4-.7h-2v7.9q.75.3.9.6l-.2 1.4h-4l-.2-1.4c.1-.2.5-.4.9-.6v-7.9h-2c-.1.4-.3.6-.4.7l-1.1-.1v-2.4ZM315.4 264.069c-1.3 0-2.3-.4-3-1.1-.6-.7-1-1.8-1-3.2s.4-2.5 1.1-3.3 1.8-1.1 3.1-1.1 2.3.3 3 1 1 1.7 1 3.2c0 1.4-.4 2.6-1.1 3.4-.7.7-1.7 1.1-3.1 1.1m-1.5-4.4c0 1.8.5 2.7 1.6 2.7q.9 0 1.2-.6c.3-.4.4-1.1.4-2 0-1.8-.6-2.7-1.7-2.7q-.75 0-1.2.6c-.1.4-.3 1-.3 2M320.5 255.469c.6-.1 1.2-.2 1.7-.2h1.2v.8c.8-.5 1.6-.8 2.4-.8 1.1 0 2 .3 2.5 1 .5.6.8 1.7.8 3.2 0 .8-.1 1.5-.4 2.1-.2.6-.6 1.1-1 1.4-.8.7-1.7 1-2.8 1-.5 0-.9 0-1.3-.1v1.5c.7.2 1.1.4 1.3.6l-.2 1.3h-4.3l-.2-1.3c.1-.2.5-.4.9-.6v-8.1q-.6-.15-.9-.6Zm4.3 6.9c.6 0 1-.3 1.3-.8s.5-1.2.5-2.1-.1-1.5-.3-1.8-.5-.5-1-.5c-.7 0-1.3.2-1.7.5v4.5c.4.2.8.2 1.2.2" class="st7"/></g><g class="st6"><path d="M294.5 271.269c-.3-.1-.9-.2-1.5-.2-.7 0-1.2.3-1.6.9s-.6 1.6-.6 3.1.2 2.5.6 3.1q.6.9 1.8.9c1.2 0 2.3-.2 3.3-.5l.6 1.5c-1.2.7-2.6 1.1-4.2 1.1s-2.8-.5-3.5-1.4-1.1-2.4-1.1-4.5.4-3.6 1.3-4.6 2.1-1.5 3.7-1.5c1.3 0 2.5.4 3.7 1.1v.4c0 .2 0 .5-.1 1s-.2.8-.3 1.1H295c-.3-.4-.5-.9-.5-1.5M298.1 273.769v-.5c1.1-.6 2.2-.8 3.4-.8s2.1.2 2.6.7.8 1.2.8 2.3v3.6q.6.15.9.3v1.5c-.6.3-1.4.4-2.5.4-.1-.3-.2-.7-.3-1.1-.5.7-1.4 1.1-2.7 1.1-.8 0-1.4-.2-1.9-.7-.5-.4-.8-1-.8-1.8s.3-1.4.8-1.8 1.3-.7 2.3-.7h1.9v-.8c0-.9-.5-1.3-1.4-1.3-.4 0-.6 0-.9.1 0 .5-.1.8-.2 1.1h-1.7c-.2-.5-.3-1-.3-1.6m3 5.6c.6 0 1-.2 1.4-.5v-1.4h-1.2q-1.2 0-1.2.9c0 .3.1.5.3.7.1.2.4.3.7.3M306.6 272.469c.6-.1 1.2-.2 1.7-.2h1.2v.8c.3-.2.6-.4 1-.6s.8-.2 1.1-.2c1.3 0 2.2.3 2.6 1 .3-.3.7-.5 1.1-.7.5-.2.9-.3 1.3-.3 1.2 0 2.1.3 2.5.8.4.6.6 1.6.6 3.2v2.8c.4.2.8.4.9.6l-.2 1.3h-3.9l-.2-1.3q.3-.3.9-.6v-3.4q0-.9-.3-1.2c-.3-.3-.5-.3-1-.3s-1 .2-1.4.6c.1.4.1.9.1 1.6v2.8c.4.2.8.4.9.6l-.2 1.3h-3.9l-.2-1.3q.3-.3.9-.6v-3.4q0-.9-.3-1.2c-.3-.3-.5-.3-1-.3s-1 .2-1.4.5v4.4c.4.2.8.4.9.6l-.2 1.3h-3.9l-.2-1.3q.3-.3.9-.6v-4.7q-.6-.15-.9-.6ZM325.4 281.069c-1.4 0-2.4-.4-3.1-1.1s-1-1.8-1-3.2c0-.8.1-1.6.4-2.2.2-.6.6-1.1 1-1.4.8-.6 1.7-1 2.8-1s1.9.3 2.4.8.8 1.5.8 2.9q0 1.2-1.2 1.2h-3.7q0 1.05.6 1.5c.3.3.8.4 1.5.4.4 0 .8 0 1.1-.1.4-.1.6-.2.8-.3l.2-.1.5 1.4-.3.3c-.1.1-.5.3-1 .5s-1.1.4-1.8.4m1.1-5.3v-.6c0-.2-.1-.5-.3-.7-.2-.3-.5-.4-.9-.4s-.8.1-1 .4-.4.7-.5 1.4ZM334.6 274.569c-.9 0-1.5.2-1.8.5v3.9c.9.2 1.5.4 1.9.7l-.2 1.3h-4.9l-.2-1.3q.3-.3.9-.6v-4.7q-.6-.15-.9-.6l.2-1.3c.6-.1 1.2-.2 1.7-.2h1.2v1.1c.3-.3.6-.6 1-.8s.8-.3 1.1-.3.6 0 .7.1l-.1 2.2ZM336.5 273.769v-.5c1.1-.6 2.2-.8 3.4-.8s2.1.2 2.6.7.8 1.2.8 2.3v3.6q.6.15.9.3v1.5c-.6.3-1.4.4-2.5.4-.1-.3-.2-.7-.3-1.1-.5.7-1.4 1.1-2.7 1.1-.8 0-1.4-.2-1.9-.7-.5-.4-.8-1-.8-1.8s.3-1.4.8-1.8 1.3-.7 2.3-.7h1.9v-.8c0-.9-.5-1.3-1.4-1.3-.4 0-.6 0-.9.1 0 .5-.1.8-.2 1.1h-1.7c-.2-.5-.3-1-.3-1.6m3 5.6c.6 0 1-.2 1.4-.5v-1.4h-1.2q-1.2 0-1.2.9c0 .3.1.5.3.7.1.2.4.3.7.3" class="st7"/></g><g class="st6"><path d="M305.9 325.069c-.4-.1-.8-.2-1.2-.2s-.8.1-1 .3c-.3.2-.4.5-.4.9s.1.7.3.9.6.4 1.1.6l1.5.4c.8.2 1.5.6 1.9 1.1.5.5.7 1.2.7 2.2q0 1.8-1.2 2.7c-.8.7-1.9 1-3.1 1q-1.05 0-2.1-.3c-.7-.2-1.3-.4-1.8-.7v-.4c0-.2 0-.5.1-1s.2-.8.3-1.1h1.6c.2.4.3.8.3 1.4.4.2.9.3 1.4.3s1-.1 1.3-.4.5-.6.5-1.1c0-.2 0-.4-.1-.5s-.1-.3-.3-.5-.4-.3-.8-.4l-1.8-.5c-1.8-.5-2.7-1.6-2.7-3.4 0-1 .4-1.9 1.1-2.5s1.7-.9 2.9-.9 2.4.3 3.5.8v.4c0 .2 0 .5-.1 1s-.2.8-.3 1.1h-1.6c.1-.1 0-.6 0-1.2M309.9 326.469c.6-.1 1.2-.2 1.8-.2s1 0 1.4.1v6.8c.4.2.8.4.9.6l-.2 1.3h-3.9l-.2-1.3q.3-.3.9-.6v-4.7q-.6-.15-.9-.6Zm1.9-1.2c-.9 0-1.4-.4-1.4-1.3s.5-1.3 1.4-1.3 1.4.4 1.4 1.3c.1.9-.4 1.3-1.4 1.3M319.1 322.869c.6-.1 1.3-.2 1.9-.2s1.1 0 1.5.1v10.2c.3.1.7.2.9.3v1.3c-.7.4-1.5.5-2.6.5l-.3-.3c-.1-.1-.2-.3-.2-.4-.2.2-.6.4-1 .5s-.8.2-1.2.2c-1.2 0-2.1-.3-2.7-1-.5-.7-.8-1.7-.8-3.3 0-1.7.4-2.9 1.3-3.6q1.05-.9 2.7-.9c.5 0 1 .1 1.4.2v-1.7c-.5-.1-.9-.4-1.2-.6Zm-.6 10.5c.6 0 1.2-.2 1.6-.6v-4.6c-.5-.1-1-.2-1.5-.2s-.9.2-1.1.7-.3 1.1-.3 2.1.1 1.6.3 2 .5.6 1 .6M328.2 335.069c-1.4 0-2.4-.4-3.1-1.1s-1-1.8-1-3.2c0-.8.1-1.6.4-2.2.2-.6.6-1.1 1-1.4.8-.6 1.7-1 2.8-1s1.9.3 2.4.8.8 1.5.8 2.9q0 1.2-1.2 1.2h-3.7q0 1.05.6 1.5c.3.3.8.4 1.5.4.4 0 .8 0 1.1-.1.4-.1.6-.2.8-.3l.2-.1.5 1.4-.3.3c-.1.1-.5.3-1 .5s-1.1.4-1.8.4m1.1-5.3v-.6c0-.2-.1-.5-.3-.7-.2-.3-.5-.4-.9-.4s-.8.1-1 .4-.4.7-.5 1.4Z" class="st7"/></g><g class="st6"><path d="M294.5 342.269c-.3-.1-.9-.2-1.5-.2-.7 0-1.2.3-1.6.9s-.6 1.6-.6 3.1.2 2.5.6 3.1q.6.9 1.8.9c1.2 0 2.3-.2 3.3-.5l.6 1.5c-1.2.7-2.6 1.1-4.2 1.1s-2.8-.5-3.5-1.4-1.1-2.4-1.1-4.5.4-3.6 1.3-4.6 2.1-1.5 3.7-1.5c1.3 0 2.5.4 3.7 1.1v.4c0 .2 0 .5-.1 1s-.2.8-.3 1.1H295c-.3-.4-.5-.9-.5-1.5M298.1 344.769v-.5c1.1-.6 2.2-.8 3.4-.8s2.1.2 2.6.7.8 1.2.8 2.3v3.6q.6.15.9.3v1.5c-.6.3-1.4.4-2.5.4-.1-.3-.2-.7-.3-1.1-.5.7-1.4 1.1-2.7 1.1-.8 0-1.4-.2-1.9-.7-.5-.4-.8-1-.8-1.8s.3-1.4.8-1.8 1.3-.7 2.3-.7h1.9v-.8c0-.9-.5-1.3-1.4-1.3-.4 0-.6 0-.9.1 0 .5-.1.8-.2 1.1h-1.7c-.2-.5-.3-1-.3-1.6m3 5.6c.6 0 1-.2 1.4-.5v-1.4h-1.2q-1.2 0-1.2.9c0 .3.1.5.3.7.1.2.4.3.7.3M306.6 343.469c.6-.1 1.2-.2 1.7-.2h1.2v.8c.3-.2.6-.4 1-.6s.8-.2 1.1-.2c1.3 0 2.2.3 2.6 1 .3-.3.7-.5 1.1-.7.5-.2.9-.3 1.3-.3 1.2 0 2.1.3 2.5.8.4.6.6 1.6.6 3.2v2.8c.4.2.8.4.9.6l-.2 1.3h-3.9l-.2-1.3q.3-.3.9-.6v-3.4q0-.9-.3-1.2c-.3-.3-.5-.3-1-.3s-1 .2-1.4.6c.1.4.1.9.1 1.6v2.8c.4.2.8.4.9.6l-.2 1.3h-3.9l-.2-1.3q.3-.3.9-.6v-3.4q0-.9-.3-1.2c-.3-.3-.5-.3-1-.3s-1 .2-1.4.5v4.4c.4.2.8.4.9.6l-.2 1.3h-3.9l-.2-1.3q.3-.3.9-.6v-4.7q-.6-.15-.9-.6ZM325.4 352.069c-1.4 0-2.4-.4-3.1-1.1s-1-1.8-1-3.2c0-.8.1-1.6.4-2.2.2-.6.6-1.1 1-1.4.8-.6 1.7-1 2.8-1s1.9.3 2.4.8.8 1.5.8 2.9q0 1.2-1.2 1.2h-3.7q0 1.05.6 1.5c.3.3.8.4 1.5.4.4 0 .8 0 1.1-.1.4-.1.6-.2.8-.3l.2-.1.5 1.4-.3.3c-.1.1-.5.3-1 .5s-1.1.4-1.8.4m1.1-5.3v-.6c0-.2-.1-.5-.3-.7-.2-.3-.5-.4-.9-.4s-.8.1-1 .4-.4.7-.5 1.4ZM334.6 345.569c-.9 0-1.5.2-1.8.5v3.9c.9.2 1.5.4 1.9.7l-.2 1.3h-4.9l-.2-1.3q.3-.3.9-.6v-4.7q-.6-.15-.9-.6l.2-1.3c.6-.1 1.2-.2 1.7-.2h1.2v1.1c.3-.3.6-.6 1-.8s.8-.3 1.1-.3.6 0 .7.1l-.1 2.2ZM336.5 344.769v-.5c1.1-.6 2.2-.8 3.4-.8s2.1.2 2.6.7.8 1.2.8 2.3v3.6q.6.15.9.3v1.5c-.6.3-1.4.4-2.5.4-.1-.3-.2-.7-.3-1.1-.5.7-1.4 1.1-2.7 1.1-.8 0-1.4-.2-1.9-.7-.5-.4-.8-1-.8-1.8s.3-1.4.8-1.8 1.3-.7 2.3-.7h1.9v-.8c0-.9-.5-1.3-1.4-1.3-.4 0-.6 0-.9.1 0 .5-.1.8-.2 1.1h-1.7c-.2-.5-.3-1-.3-1.6m3 5.6c.6 0 1-.2 1.4-.5v-1.4h-1.2q-1.2 0-1.2.9c0 .3.1.5.3.7.1.2.4.3.7.3" class="st7"/></g><g class="st6"><path d="M292.5 393.269c1.3 0 2.3.1 2.9.2s1 .4 1.3.6c.6.5.9 1.3.9 2.3 0 .8-.4 1.5-1.2 2.2 1.1.5 1.6 1.5 1.6 3 0 1.1-.4 2-1.1 2.5s-1.9.9-3.3.9h-4.8l-.2-1.4c.1-.2.5-.4.9-.6v-7.8q-.75-.3-.9-.6l.2-1.4h3.7Zm.3 1.8h-.9v2.9h1.4c.6 0 1-.1 1.3-.4s.5-.7.5-1.1-.1-.7-.3-1c-.2-.2-.5-.3-.7-.4Zm.6 4.8h-1.5v3.2h1.2q1.2 0 1.8-.3t.6-1.2c0-.6-.2-1-.5-1.3-.4-.3-.9-.4-1.6-.4M302.8 405.069c-1.3 0-2.3-.4-3-1.1-.6-.7-1-1.8-1-3.2s.4-2.5 1.1-3.3 1.8-1.1 3.1-1.1 2.3.3 3 1 1 1.7 1 3.2c0 1.4-.4 2.6-1.1 3.4-.7.7-1.7 1.1-3.1 1.1m-1.5-4.4c0 1.8.5 2.7 1.6 2.7q.9 0 1.2-.6c.3-.4.4-1.1.4-2 0-1.8-.6-2.7-1.7-2.7q-.75 0-1.2.6c-.1.4-.3 1-.3 2M311 394.369v2.1h2.4v1.4H311v4.3c0 .4.1.6.2.8s.3.2.7.2.8-.1 1.2-.3l.5 1.3c-.9.4-1.8.7-2.7.7s-1.5-.2-1.9-.6c-.3-.4-.5-1-.5-1.7v-4.8h-.8l-.2-1c.2-.2.6-.4 1.1-.6.1-.9.5-1.6 1-1.9h1.4ZM317.3 394.369v2.1h2.4v1.4h-2.4v4.3c0 .4.1.6.2.8s.3.2.7.2.8-.1 1.2-.3l.5 1.3c-.9.4-1.8.7-2.7.7s-1.5-.2-1.9-.6c-.3-.4-.5-1-.5-1.7v-4.8h-.8l-.2-1c.2-.2.6-.4 1.1-.6.1-.9.5-1.6 1-1.9h1.4ZM324.5 405.069c-1.3 0-2.3-.4-3-1.1-.6-.7-1-1.8-1-3.2s.4-2.5 1.1-3.3 1.8-1.1 3.1-1.1 2.3.3 3 1 1 1.7 1 3.2c0 1.4-.4 2.6-1.1 3.4-.7.7-1.8 1.1-3.1 1.1m-1.5-4.4c0 1.8.5 2.7 1.6 2.7q.9 0 1.2-.6c.3-.4.4-1.1.4-2 0-1.8-.6-2.7-1.7-2.7q-.75 0-1.2.6c-.2.4-.3 1-.3 2M329.7 396.469c.6-.1 1.2-.2 1.7-.2h1.2v.8c.3-.2.6-.4 1-.6s.8-.2 1.1-.2c1.3 0 2.2.3 2.6 1 .3-.3.7-.5 1.1-.7.5-.2.9-.3 1.3-.3 1.2 0 2.1.3 2.5.8.4.6.6 1.6.6 3.2v2.8c.4.2.8.4.9.6l-.2 1.3h-3.9l-.2-1.3q.3-.3.9-.6v-3.4q0-.9-.3-1.2c-.3-.3-.5-.3-1-.3s-1 .2-1.4.6c.1.4.1.9.1 1.6v2.8c.4.2.8.4.9.6l-.2 1.3h-3.9l-.2-1.3q.3-.3.9-.6v-3.4q0-.9-.3-1.2c-.3-.3-.5-.3-1-.3s-1 .2-1.4.5v4.4c.4.2.8.4.9.6l-.2 1.3h-3.9l-.2-1.3q.3-.3.9-.6v-4.7q-.6-.15-.9-.6Z" class="st7"/></g><g class="st6"><path d="M294.5 412.269c-.3-.1-.9-.2-1.5-.2-.7 0-1.2.3-1.6.9s-.6 1.6-.6 3.1.2 2.5.6 3.1q.6.9 1.8.9c1.2 0 2.3-.2 3.3-.5l.6 1.5c-1.2.7-2.6 1.1-4.2 1.1s-2.8-.5-3.5-1.4-1.1-2.4-1.1-4.5.4-3.6 1.3-4.6 2.1-1.5 3.7-1.5c1.3 0 2.5.4 3.7 1.1v.4c0 .2 0 .5-.1 1s-.2.8-.3 1.1H295c-.3-.4-.5-.9-.5-1.5M298.1 414.769v-.5c1.1-.6 2.2-.8 3.4-.8s2.1.2 2.6.7.8 1.2.8 2.3v3.6q.6.15.9.3v1.5c-.6.3-1.4.4-2.5.4-.1-.3-.2-.7-.3-1.1-.5.7-1.4 1.1-2.7 1.1-.8 0-1.4-.2-1.9-.7-.5-.4-.8-1-.8-1.8s.3-1.4.8-1.8 1.3-.7 2.3-.7h1.9v-.8c0-.9-.5-1.3-1.4-1.3-.4 0-.6 0-.9.1 0 .5-.1.8-.2 1.1h-1.7c-.2-.5-.3-1-.3-1.6m3 5.6c.6 0 1-.2 1.4-.5v-1.4h-1.2q-1.2 0-1.2.9c0 .3.1.5.3.7.1.2.4.3.7.3M306.6 413.469c.6-.1 1.2-.2 1.7-.2h1.2v.8c.3-.2.6-.4 1-.6s.8-.2 1.1-.2c1.3 0 2.2.3 2.6 1 .3-.3.7-.5 1.1-.7.5-.2.9-.3 1.3-.3 1.2 0 2.1.3 2.5.8.4.6.6 1.6.6 3.2v2.8c.4.2.8.4.9.6l-.2 1.3h-3.9l-.2-1.3q.3-.3.9-.6v-3.4q0-.9-.3-1.2c-.3-.3-.5-.3-1-.3s-1 .2-1.4.6c.1.4.1.9.1 1.6v2.8c.4.2.8.4.9.6l-.2 1.3h-3.9l-.2-1.3q.3-.3.9-.6v-3.4q0-.9-.3-1.2c-.3-.3-.5-.3-1-.3s-1 .2-1.4.5v4.4c.4.2.8.4.9.6l-.2 1.3h-3.9l-.2-1.3q.3-.3.9-.6v-4.7q-.6-.15-.9-.6ZM325.4 422.069c-1.4 0-2.4-.4-3.1-1.1s-1-1.8-1-3.2c0-.8.1-1.6.4-2.2.2-.6.6-1.1 1-1.4.8-.6 1.7-1 2.8-1s1.9.3 2.4.8.8 1.5.8 2.9q0 1.2-1.2 1.2h-3.7q0 1.05.6 1.5c.3.3.8.4 1.5.4.4 0 .8 0 1.1-.1.4-.1.6-.2.8-.3l.2-.1.5 1.4-.3.3c-.1.1-.5.3-1 .5s-1.1.4-1.8.4m1.1-5.3v-.6c0-.2-.1-.5-.3-.7-.2-.3-.5-.4-.9-.4s-.8.1-1 .4-.4.7-.5 1.4ZM334.6 415.569c-.9 0-1.5.2-1.8.5v3.9c.9.2 1.5.4 1.9.7l-.2 1.3h-4.9l-.2-1.3q.3-.3.9-.6v-4.7q-.6-.15-.9-.6l.2-1.3c.6-.1 1.2-.2 1.7-.2h1.2v1.1c.3-.3.6-.6 1-.8s.8-.3 1.1-.3.6 0 .7.1l-.1 2.2ZM336.5 414.769v-.5c1.1-.6 2.2-.8 3.4-.8s2.1.2 2.6.7.8 1.2.8 2.3v3.6q.6.15.9.3v1.5c-.6.3-1.4.4-2.5.4-.1-.3-.2-.7-.3-1.1-.5.7-1.4 1.1-2.7 1.1-.8 0-1.4-.2-1.9-.7-.5-.4-.8-1-.8-1.8s.3-1.4.8-1.8 1.3-.7 2.3-.7h1.9v-.8c0-.9-.5-1.3-1.4-1.3-.4 0-.6 0-.9.1 0 .5-.1.8-.2 1.1h-1.7c-.2-.5-.3-1-.3-1.6m3 5.6c.6 0 1-.2 1.4-.5v-1.4h-1.2q-1.2 0-1.2.9c0 .3.1.5.3.7.1.2.4.3.7.3" class="st7"/></g><g class="st6"><path d="M452.1 343.45c-.7.7-1.8 1.1-3.3 1.1s-2.6-.4-3.2-1.1q-.9-1.05-.9-3.3v-5.5q-.6-.3-.9-.6l.2-1.4h4l.2 1.4q-.3.3-.9.6v5.6c0 .8.1 1.4.4 1.8s.7.6 1.4.6q1.05 0 1.5-.6c.3-.4.4-1 .4-1.8v-5.6q-.75-.3-.9-.6l.2-1.4h3.7l.2 1.4q-.3.3-.9.6v5.5q-.15 2.1-1.2 3.3M458.5 344.45l-3.2-9.8c-.5-.2-.8-.4-1-.6l.2-1.4h4l.2 1.4c-.2.2-.4.4-.9.5l1.4 5c.2.8.4 1.5.4 2.2v.3h.2c0-.7.2-1.5.4-2.4l1.5-5q-.6-.15-.9-.6l.2-1.4h3.9l.2 1.4c-.2.2-.6.5-1.1.6l-3.2 9.8ZM471.6 334.65c-.3-.1-.9-.2-1.5-.2-.7 0-1.2.3-1.6.9s-.6 1.6-.6 3.1.2 2.5.6 3.1q.6.9 1.8.9c1.2 0 2.3-.2 3.3-.5l.6 1.5c-1.2.7-2.6 1.1-4.2 1.1s-2.8-.5-3.5-1.4-1.1-2.4-1.1-4.5.4-3.6 1.3-4.6 2.1-1.5 3.7-1.5c1.3 0 2.5.4 3.7 1.1v.4c0 .2 0 .5-.1 1s-.2.8-.3 1.1h-1.6c-.3-.4-.4-.9-.5-1.5" class="st1"/></g><path d="M0 140.55h164v43.5H0Z" class="st1"/><path d="M0 140.55h164v43.5H0ZM0 93.65h164v37.5H0Z" class="st1"/><path d="M0 93.65h164v37.5H0ZM0 46.85h164v37.5H0Z" class="st1"/><path d="M0 46.85h164v37.5H0ZM0-.05h164v37.5H0Z" class="st1"/><path d="M0-.05h164v37.5H0Z" class="st1"/><g class="st6"><path d="M52.5 18.25c-.7 0-1.1.2-1.1.7q0 .6 1.2.9l1.3.4q2.1.6 2.1 2.4 0 1.2-.9 2.1c-.6.5-1.5.8-2.8.8s-2.3-.2-3-.5v-.4c0-.6.1-1.2.4-1.7h1.4c.1.3.2.6.3.8.2.1.5.1 1 .1q1.5 0 1.5-.9c0-.2-.1-.3-.2-.5-.1-.1-.4-.2-.8-.3l-1.3-.4c-.7-.2-1.2-.5-1.6-.9s-.6-.9-.6-1.7.3-1.4.9-1.8c.6-.5 1.5-.7 2.6-.7s2.1.2 2.8.5v.3c0 .6-.1 1.1-.4 1.6h-1.4c-.1-.3-.2-.5-.3-.8ZM60.7 25.45c-1.3 0-2.3-.4-3-1.1-.6-.7-1-1.8-1-3.2s.4-2.5 1.1-3.3 1.8-1.1 3.1-1.1 2.3.3 3 1 1 1.7 1 3.2c0 1.4-.4 2.6-1.1 3.4-.7.7-1.8 1.1-3.1 1.1m-1.5-4.4c0 1.8.5 2.7 1.6 2.7q.9 0 1.2-.6c.3-.4.4-1.1.4-2 0-1.8-.6-2.7-1.7-2.7q-.75 0-1.2.6c-.2.4-.3 1-.3 2M66.7 16.55c0-1.2.3-2.1.8-2.7q.75-.9 2.4-.9c1.1 0 2.1.3 2.9.9v.3c0 .2 0 .4-.1.8s-.2.6-.3.9H71c-.2-.4-.3-.7-.3-1.1h-.3c-.4 0-.7.1-.9.4s-.3.7-.3 1.3v.6h2.6v1.6h-2.6v4.8c.9.2 1.4.4 1.7.7l-.2 1.3H66l-.2-1.3q.3-.3.9-.6v-4.9H66l-.2-1.2c.2-.2.6-.4.9-.4Z" class="st7"/><path d="M75.3 14.75v2.1h2.4v1.4h-2.4v4.3c0 .4.1.6.2.8s.3.2.7.2.8-.1 1.2-.3l.5 1.3c-.9.4-1.8.7-2.7.7s-1.5-.2-1.9-.6c-.3-.4-.5-1-.5-1.7v-4.8H72l-.2-1c.2-.2.6-.4 1.1-.6.1-.9.5-1.6 1-1.9h1.4ZM86.6 25.45l-.9-2.7c-.2-.5-.3-1.2-.4-2l-.1-.4H85c-.1.9-.3 1.7-.5 2.4l-.8 2.7h-2.4l-2.1-6.7c-.5-.2-.8-.4-1-.6l.2-1.3h4l.2 1.3c-.2.2-.5.4-1 .6l1 4.3h.2c.1-.6.3-1.2.4-1.9l1.2-4.4h1.9l1.1 4.3.4 1.9h.2c.4-1.9.7-3.2.8-3.9l.1-.5c-.5-.2-.8-.4-1-.6l.2-1.3h3.8l.2 1.3c-.2.3-.5.5-1.1.6l-2.1 6.6h-2.3ZM92.6 18.15v-.5c1.1-.6 2.2-.8 3.4-.8s2.1.2 2.6.7.8 1.2.8 2.3v3.6q.6.15.9.3v1.5c-.6.3-1.4.4-2.5.4-.1-.3-.2-.7-.3-1.1-.5.7-1.4 1.1-2.7 1.1-.8 0-1.4-.2-1.9-.7-.5-.4-.8-1-.8-1.8s.3-1.4.8-1.8 1.3-.7 2.3-.7h1.9v-.8c0-.9-.5-1.3-1.4-1.3-.4 0-.6 0-.9.1 0 .5-.1.8-.2 1.1h-1.7c-.2-.5-.3-1-.3-1.6m3.1 5.6c.6 0 1-.2 1.4-.5v-1.4h-1.2q-1.2 0-1.2.9c0 .3.1.5.3.7.1.2.4.3.7.3M106.1 18.95c-.9 0-1.5.2-1.8.5v3.9c.9.2 1.5.4 1.9.7l-.2 1.3h-4.9l-.2-1.3q.3-.3.9-.6v-4.7q-.6-.15-.9-.6l.2-1.3c.6-.1 1.2-.2 1.7-.2h1.2v1.1c.3-.3.6-.6 1-.8s.8-.3 1.1-.3.6 0 .7.1l-.1 2.2ZM111.7 25.45c-1.4 0-2.4-.4-3.1-1.1s-1-1.8-1-3.2c0-.8.1-1.6.4-2.2.2-.6.6-1.1 1-1.4.8-.6 1.7-1 2.8-1s1.9.3 2.4.8.8 1.5.8 2.9q0 1.2-1.2 1.2H110q0 1.05.6 1.5c.3.3.8.4 1.5.4.4 0 .8 0 1.1-.1.4-.1.6-.2.8-.3l.2-.1.5 1.4-.3.3c-.1.1-.5.3-1 .5s-1.1.4-1.7.4m1-5.3v-.6c0-.2-.1-.5-.3-.7-.2-.3-.5-.4-.9-.4s-.8.1-1 .4-.4.7-.5 1.4Z" class="st7"/></g><g class="st6"><path d="M54.7 67.25h-.8v2c.8.2 1.3.4 1.5.7l-.2 1.4h-4.6l-.2-1.4c.1-.2.5-.4.9-.6v-7.8q-.75-.3-.9-.6l.2-1.4h4.5c1.6 0 2.8.3 3.5.9.8.5 1.2 1.5 1.2 2.9q.15 3.9-5.1 3.9m.2-5.8h-1v3.9H55c.8 0 1.3-.2 1.7-.5s.6-.8.6-1.6-.2-1.3-.6-1.5c-.4-.1-1-.3-1.8-.3M63 73.35c.2 0 .4-.2.7-.6.2-.4.4-.8.5-1.4l-2.8-6.6c-.6-.2-.9-.4-1.1-.6l.2-1.3h3.9l.2 1.3c-.1.2-.4.3-.7.5l.9 2.6c.2.5.3 1.1.4 1.6l.1.2h.2c.1-.6.2-1.2.5-1.8l.9-2.5q-.6-.3-.9-.6l.2-1.3h3.7l.2 1.3c-.2.3-.6.5-1.1.7l-2.8 6.6q-.75 1.95-1.2 2.4c-.5.7-1.2 1-2.1 1s-1.6-.2-2-.7v-.3c0-.6.1-1.2.4-1.8h1.4q.3.45.3 1.2ZM73.5 60.75v2.1h2.4v1.4h-2.4v4.3c0 .4.1.6.2.8s.3.2.7.2.8-.1 1.2-.3l.5 1.3c-.9.4-1.8.7-2.7.7s-1.5-.2-1.9-.6c-.3-.4-.5-1-.5-1.7v-4.8h-.8l-.2-1c.2-.2.6-.4 1.1-.6.1-.9.5-1.6 1-1.9h1.4ZM76.7 59.25c.6-.1 1.2-.2 1.8-.2.5 0 1 0 1.4.1v4.2c.3-.2.6-.3 1.1-.5.5-.1.9-.2 1.2-.2 1.1 0 1.9.3 2.3.8s.6 1.4.6 2.5v3.5c.4.2.8.4.9.6l-.2 1.3h-3.9l-.2-1.3q.3-.3.9-.6v-3.4q0-.9-.3-1.2c-.3-.3-.6-.3-1.1-.3s-1 .2-1.5.5v4.4c.4.2.8.4.9.6l-.2 1.3h-3.9l-.2-1.3q.3-.3.9-.6v-8.3q-.6-.15-.9-.6ZM90.6 71.45c-1.3 0-2.3-.4-3-1.1-.6-.7-1-1.8-1-3.2s.4-2.5 1.1-3.3 1.8-1.1 3.1-1.1 2.3.3 3 1 1 1.7 1 3.2c0 1.4-.4 2.6-1.1 3.4-.8.7-1.8 1.1-3.1 1.1m-1.5-4.4c0 1.8.5 2.7 1.6 2.7q.9 0 1.2-.6c.3-.4.4-1.1.4-2 0-1.8-.6-2.7-1.7-2.7q-.75 0-1.2.6c-.2.4-.3 1-.3 2M95.8 62.85c.6-.1 1.2-.2 1.7-.2h1.2v.8c.3-.2.7-.4 1.1-.6.5-.2.9-.2 1.4-.2 1.1 0 1.9.3 2.3.8s.7 1.4.7 2.7v3.3c.4.2.8.4.9.6l-.2 1.3H101l-.2-1.3q.3-.3.9-.6v-3.4q0-.9-.3-1.2c-.2-.2-.6-.3-1.1-.3s-1 .2-1.5.5v4.4c.4.2.8.4.9.6l-.2 1.3h-3.9l-.2-1.3q.3-.3.9-.6v-4.7q-.6-.15-.9-.6ZM106 60.45v-.4c.3-.1.8-.3 1.4-.4.7-.1 1.2-.2 1.7-.2s.9 0 1.4.1c.4.1.8.2 1.2.5q.6.3.9.9c.2.4.3.9.3 1.4s-.2 1-.5 1.4-.7.8-1.1 1v.2c1.3.5 2 1.4 2 2.6s-.5 2.2-1.4 2.9c-.9.6-2.1 1-3.5 1-.5 0-1-.1-1.5-.2s-1-.3-1.3-.4l.4-1.5c.8.3 1.5.4 2.2.4 1.7 0 2.5-.6 2.5-1.8 0-1.4-.7-2-2-2-.5 0-1 0-1.5.1l-.2-1.4 1.5-.1c1.3-.1 1.9-.7 1.9-1.9 0-.6-.1-1-.4-1.3s-.7-.4-1.2-.4c-.2 0-.4 0-.6.1-.1.6-.2 1.1-.4 1.4l-1.5-.1c-.2-.4-.3-1-.3-1.9" class="st7"/></g><g class="st6"><path d="M57.8 118.45c-1.6 0-2.8-.5-3.6-1.4s-1.2-2.4-1.2-4.5.4-3.6 1.3-4.6 2.1-1.5 3.8-1.5c1.6 0 2.8.4 3.6 1.3s1.2 2.4 1.2 4.4c0 2.1-.4 3.6-1.3 4.7-1 1.1-2.2 1.6-3.8 1.6m-1.7-9.2c-.4.6-.6 1.6-.6 3.1s.2 2.5.6 3.2 1 1 1.8 1 1.3-.3 1.8-.9c.4-.6.6-1.7.6-3.1 0-2.7-.8-4.1-2.4-4.1-.8 0-1.4.2-1.8.8M63.8 109.85c.6-.1 1.2-.2 1.7-.2h1.2v.8c.8-.5 1.6-.8 2.4-.8 1.1 0 2 .3 2.5 1 .5.6.8 1.7.8 3.2 0 .8-.1 1.5-.4 2.1-.2.6-.6 1.1-1 1.4-.8.7-1.7 1-2.8 1-.5 0-.9 0-1.3-.1v1.5c.7.2 1.1.4 1.3.6l-.2 1.3h-4.3l-.2-1.3c.1-.2.5-.4.9-.6v-8.1q-.6-.15-.9-.6Zm4.3 6.9c.6 0 1-.3 1.3-.8s.5-1.2.5-2.1-.1-1.5-.3-1.8-.5-.5-1-.5c-.7 0-1.3.2-1.7.5v4.5c.4.2.8.2 1.2.2M77.4 118.45c-1.4 0-2.4-.4-3.1-1.1s-1-1.8-1-3.2c0-.8.1-1.6.4-2.2.2-.6.6-1.1 1-1.4.8-.6 1.7-1 2.8-1s1.9.3 2.4.8.8 1.5.8 2.9q0 1.2-1.2 1.2h-3.7q0 1.05.6 1.5c.3.3.8.4 1.5.4.4 0 .8 0 1.1-.1.4-.1.6-.2.8-.3l.2-.1.5 1.4-.3.3c-.1.1-.5.3-1 .5s-1.2.4-1.8.4m1-5.3v-.6c0-.2-.1-.5-.3-.7-.2-.3-.5-.4-.9-.4s-.8.1-1 .4-.4.7-.5 1.4ZM81.7 109.85c.6-.1 1.2-.2 1.7-.2h1.2v.8c.3-.2.7-.4 1.1-.6.5-.2.9-.2 1.4-.2 1.1 0 1.9.3 2.3.8s.7 1.4.7 2.7v3.3c.4.2.8.4.9.6l-.2 1.3h-3.9l-.2-1.3q.3-.3.9-.6v-3.4q0-.9-.3-1.2c-.2-.2-.6-.3-1.1-.3s-1 .2-1.5.5v4.4c.4.2.8.4.9.6l-.2 1.3h-3.9l-.2-1.3q.3-.3.9-.6v-4.7q-.6-.15-.9-.6ZM98 108.65c-.3-.1-.9-.2-1.5-.2-.7 0-1.2.3-1.6.9s-.6 1.6-.6 3.1.2 2.5.6 3.1q.6.9 1.8.9c1.2 0 2.3-.2 3.3-.5l.6 1.5c-1.2.7-2.6 1.1-4.2 1.1s-2.8-.5-3.5-1.4-1.1-2.4-1.1-4.5.4-3.6 1.3-4.6 2.1-1.5 3.7-1.5c1.3 0 2.5.4 3.7 1.1v.4c0 .2 0 .5-.1 1s-.2.8-.3 1.1h-1.6c-.3-.4-.4-.9-.5-1.5M105 118.45l-3.2-9.8c-.5-.2-.8-.4-1-.6l.2-1.4h4l.2 1.4c-.2.2-.4.4-.9.5l1.4 5c.2.8.4 1.5.4 2.2v.3h.2c0-.7.2-1.5.4-2.4l1.5-5q-.6-.15-.9-.6l.2-1.4h3.9l.2 1.4c-.2.2-.6.5-1.1.6l-3.2 9.8Z" class="st7"/></g><g class="st6"><path d="M76.7 164.25h-.8v2c.8.2 1.3.4 1.5.7l-.2 1.4h-4.6l-.2-1.4c.1-.2.5-.4.9-.6v-7.8q-.75-.3-.9-.6l.2-1.4h4.5c1.6 0 2.8.3 3.5.9.8.5 1.2 1.5 1.2 2.9q.15 3.9-5.1 3.9m.3-5.8h-1v3.9h1.1c.8 0 1.3-.2 1.7-.5s.6-.8.6-1.6-.2-1.3-.6-1.5c-.5-.1-1.1-.3-1.8-.3M89.2 158.65c-.3-.1-.9-.2-1.5-.2-.7 0-1.2.3-1.6.9s-.6 1.6-.6 3.1.2 2.5.6 3.1q.6.9 1.8.9c1.2 0 2.3-.2 3.3-.5l.6 1.5c-1.2.7-2.6 1.1-4.2 1.1s-2.8-.5-3.5-1.4-1.1-2.4-1.1-4.5.4-3.6 1.3-4.6 2.1-1.5 3.7-1.5c1.3 0 2.5.4 3.7 1.1v.4c0 .2 0 .5-.1 1s-.2.8-.3 1.1h-1.6c-.3-.4-.5-.9-.5-1.5" class="st7"/></g><path d="M397.7 269.35c104 0 96.1 110.5 119.2 110.1M586.7 379.45c19.6 0 44.5 24.5 150.6 26.2" class="st8"/><path d="M164 162.35h54.4v-9.2h50.7M487 150.55H363" class="st9"/></svg>