<svg xmlns="http://www.w3.org/2000/svg" viewBox="0 0 1212 755.914"><defs><style>.a,.b,.c,.d,.e,.f{fill:#fee100;}.a{font-size:19px;}.a,.b,.c,.f{font-family:YuGo-Bold, YuGothic;font-weight:700;}.b{font-size:21px;}.c{font-size:20px;}.e{fill-rule:evenodd;}.f{stroke:#222;stroke-linecap:round;stroke-width:3px;font-size:48px;}</style></defs><g transform="translate(51 -2883.981)"><text class="a" transform="translate(851 3074.248)"><tspan x="-28.5" y="0">カメラ</tspan><tspan x="-44.831" y="33">800万画素</tspan></text><text class="a" transform="translate(1087 3074.248)"><tspan x="-38" y="0">超高演色</tspan><tspan x="-38.418" y="33">LED照明</tspan></text><text class="b" transform="translate(851 3530.052)"><tspan x="-62.475" y="0">黒アルマイト</tspan><tspan x="-93.45" y="36">汎用アルミフレーム</tspan></text><text class="c" transform="translate(1087 3530.052)"><tspan x="-38.07" y="0">Arduino</tspan><tspan x="-35.39" y="34">Uno R3</tspan></text><text class="a" transform="translate(1087 3281.052)"><tspan x="-73.92" y="0">ToF距離センサー</tspan><tspan x="-41.201" y="33">VL53L0X</tspan></text><path class="d" d="M22.353,91.623A10.379,10.379,0,0,1,12,81.27V39.857A10.379,10.379,0,0,1,22.353,29.5h14.7l5.1-10.209A2.3,2.3,0,0,1,44.21,18H67.217a2.3,2.3,0,0,1,2.049,1.294L74.37,29.5h14.7A10.379,10.379,0,0,1,99.426,39.857V81.27A10.379,10.379,0,0,1,89.073,91.623Zm0-4.6H89.074a5.689,5.689,0,0,0,5.752-5.752V39.857A5.689,5.689,0,0,0,89.074,34.1h-16.1a2.3,2.3,0,0,1-2.049-1.258L65.779,22.6H45.648L40.507,32.847A2.3,2.3,0,0,1,38.458,34.1h-16.1A5.689,5.689,0,0,0,16.6,39.857V81.27A5.689,5.689,0,0,0,22.353,87.021Zm33.36-8.052A18.406,18.406,0,1,1,74.119,60.563,18.441,18.441,0,0,1,55.713,78.969Zm0-4.6a13.8,13.8,0,1,0-13.8-13.8A13.768,13.768,0,0,0,55.713,74.367Z" transform="translate(795 2939.168)"/><g transform="translate(1028 2957.168)"><path class="d" d="M127.528,57.042H93.171V34.883a2.3,2.3,0,1,0-4.594,0v20.07l-33.9-19.573a4.635,4.635,0,0,0-2.327-.67c-2.184,0-3.769,1.759-3.769,4.188V57.035L13.6,57.041a2.3,2.3,0,0,0,0,4.594H48.579V79.612c0,2.429,1.585,4.188,3.769,4.188a4.575,4.575,0,0,0,2.327-.67l33.41-19.287V83.71a2.3,2.3,0,1,0,4.594,0l-.006-22.074h34.853a2.3,2.3,0,0,0,0-4.594ZM53.168,78.686l.012-38.861L86.83,59.261Z" transform="translate(-11.304 -12.043)"/><path class="d" d="M52.4,44.869l1.573.927,8.77-14.884,3.135,1.842.078-9.1-7.926,4.481,3.141,1.848Z" transform="translate(10.538 -16.789)"/><path class="d" d="M46.4,41.312l8.764-14.884L58.3,28.271l.078-9.1-7.921,4.481L53.592,25.5,44.828,40.385Z" transform="translate(6.513 -19.172)"/></g><path class="e" d="M78.645,0a1.351,1.351,0,0,1,.275.012,1.176,1.176,0,0,1,.668.34,1.176,1.176,0,0,1,.34.668,1.352,1.352,0,0,1,.012.275V59.35a1.2,1.2,0,0,1-.356.856L60.206,79.585a1.176,1.176,0,0,1-.924.356H1.211A1.213,1.213,0,0,1,0,78.729V20.659a1.176,1.176,0,0,1,.356-.924L19.735.355A1.2,1.2,0,0,1,20.59,0Zm-19.8,19.38L75.807,2.422h-54V19.379Zm-.709,38.759V21.8H21.8V58.138ZM2.423,75.807l16.956-16.96V21.8H2.423ZM75.807,60.562H60.562V75.807ZM60.562,58.139H77.518v-54L60.562,21.093ZM19.379,19.38V4.135L4.134,19.38Zm1.714,41.183L4.134,77.519h54V60.562Z" transform="translate(811.003 3408.815)"/><g transform="translate(1035 3411.971)"><path class="d" d="M101.577,92.773H15.3a2.305,2.305,0,0,1-2.3-2.3v-1.15a2.305,2.305,0,0,1,2.3-2.3,2.224,2.224,0,0,1,1.955,1.15h83.283L102.61,86.1V40.778l-2.759-2.759a2.757,2.757,0,0,1-.575-1.613V22.6H17.6v6.9a2.3,2.3,0,1,1-4.6,0V20.3A2.305,2.305,0,0,1,15.3,18h86.277a2.305,2.305,0,0,1,2.3,2.3V35.485l2.759,2.759a2.273,2.273,0,0,1,.692,1.613V87.021a2.255,2.255,0,0,1-.692,1.609l-3.451,3.451a2.255,2.255,0,0,1-1.609.692Z" transform="translate(-3.797 -18.001)"/><path class="d" d="M15.3,67.857a2.305,2.305,0,0,1-2.3-2.3V48.3a2.3,2.3,0,1,1,4.6,0V65.556A2.305,2.305,0,0,1,15.3,67.857Z" transform="translate(-3.797 -13.791)"/><path class="d" d="M25.131,47.1H6.726A1.768,1.768,0,0,1,5,45.379V32.726A1.768,1.768,0,0,1,6.726,31H25.131a1.768,1.768,0,0,1,1.726,1.726V45.379A1.768,1.768,0,0,1,25.131,47.1Z" transform="translate(-5 -16.046)"/><path class="d" d="M27.83,78.654h-16.1A1.768,1.768,0,0,1,10,76.928v-9.2A1.768,1.768,0,0,1,11.726,66h16.1a1.768,1.768,0,0,1,1.726,1.726v9.2A1.768,1.768,0,0,1,27.83,78.654Z" transform="translate(-4.248 -10.784)"/><path class="d" d="M49.15,56A1.085,1.085,0,0,0,48,57.15V58.3h2.3V57.15A1.085,1.085,0,0,0,49.15,56Z" transform="translate(1.465 -12.287)"/><path class="d" d="M46.15,56A1.085,1.085,0,0,0,45,57.15V58.3h2.3V57.15A1.085,1.085,0,0,0,46.15,56Z" transform="translate(1.014 -12.287)"/><path class="d" d="M52.15,56A1.085,1.085,0,0,0,51,57.15V58.3h2.3V57.15A1.085,1.085,0,0,0,52.15,56Z" transform="translate(1.916 -12.287)"/><path class="d" d="M55.15,56A1.085,1.085,0,0,0,54,57.15V58.3h2.3V57.15A1.085,1.085,0,0,0,55.15,56Z" transform="translate(2.367 -12.287)"/><path class="d" d="M58.15,56A1.085,1.085,0,0,0,57,57.15V58.3h2.3V57.15A1.085,1.085,0,0,0,58.15,56Z" transform="translate(2.818 -12.287)"/><path class="d" d="M61.15,56A1.085,1.085,0,0,0,60,57.15V58.3h2.3V57.15A1.085,1.085,0,0,0,61.15,56Z" transform="translate(3.269 -12.287)"/><path class="d" d="M64.15,56A1.085,1.085,0,0,0,63,57.15V58.3h2.3V57.15A1.085,1.085,0,0,0,64.15,56Z" transform="translate(3.721 -12.287)"/><path class="d" d="M67.15,56A1.085,1.085,0,0,0,66,57.15V58.3h2.3V57.15A1.085,1.085,0,0,0,67.15,56Z" transform="translate(4.172 -12.287)"/><path class="d" d="M70.15,56A1.085,1.085,0,0,0,69,57.15V58.3h2.3V57.15A1.085,1.085,0,0,0,70.15,56Z" transform="translate(4.623 -12.287)"/><path class="d" d="M73.15,56A1.085,1.085,0,0,0,72,57.15V58.3h2.3V57.15A1.085,1.085,0,0,0,73.15,56Z" transform="translate(5.074 -12.287)"/><path class="d" d="M76.15,56A1.085,1.085,0,0,0,75,57.15V58.3h2.3V57.15A1.085,1.085,0,0,0,76.15,56Z" transform="translate(5.525 -12.287)"/><path class="d" d="M79.15,56A1.085,1.085,0,0,0,78,57.15V58.3h2.3V57.15A1.085,1.085,0,0,0,79.15,56Z" transform="translate(5.976 -12.287)"/><path class="d" d="M82.15,56A1.085,1.085,0,0,0,81,57.15V58.3h2.3V57.15A1.085,1.085,0,0,0,82.15,56Z" transform="translate(6.427 -12.287)"/><path class="d" d="M85.15,56A1.085,1.085,0,0,0,84,57.15V58.3h2.3V57.15A1.085,1.085,0,0,0,85.15,56Z" transform="translate(6.878 -12.287)"/><path class="d" d="M82.15,71.3a1.085,1.085,0,0,0,1.15-1.15V69H81v1.15A1.085,1.085,0,0,0,82.15,71.3Z" transform="translate(6.427 -10.332)"/><path class="d" d="M85.15,71.3a1.085,1.085,0,0,0,1.15-1.15V69H84v1.15A1.085,1.085,0,0,0,85.15,71.3Z" transform="translate(6.878 -10.332)"/><path class="d" d="M79.15,71.3a1.085,1.085,0,0,0,1.15-1.15V69H78v1.15A1.085,1.085,0,0,0,79.15,71.3Z" transform="translate(5.976 -10.332)"/><path class="d" d="M76.15,71.3a1.085,1.085,0,0,0,1.15-1.15V69H75v1.15A1.085,1.085,0,0,0,76.15,71.3Z" transform="translate(5.525 -10.332)"/><path class="d" d="M73.15,71.3a1.085,1.085,0,0,0,1.15-1.15V69H72v1.15A1.085,1.085,0,0,0,73.15,71.3Z" transform="translate(5.074 -10.332)"/><path class="d" d="M70.15,71.3a1.085,1.085,0,0,0,1.15-1.15V69H69v1.15A1.085,1.085,0,0,0,70.15,71.3Z" transform="translate(4.623 -10.332)"/><path class="d" d="M67.15,71.3a1.085,1.085,0,0,0,1.15-1.15V69H66v1.15A1.085,1.085,0,0,0,67.15,71.3Z" transform="translate(4.172 -10.332)"/><path class="d" d="M64.15,71.3a1.085,1.085,0,0,0,1.15-1.15V69H63v1.15A1.085,1.085,0,0,0,64.15,71.3Z" transform="translate(3.721 -10.332)"/><path class="d" d="M61.15,71.3a1.085,1.085,0,0,0,1.15-1.15V69H60v1.15A1.085,1.085,0,0,0,61.15,71.3Z" transform="translate(3.269 -10.332)"/><path class="d" d="M58.15,71.3a1.085,1.085,0,0,0,1.15-1.15V69H57v1.15A1.085,1.085,0,0,0,58.15,71.3Z" transform="translate(2.818 -10.332)"/><path class="d" d="M55.15,71.3a1.085,1.085,0,0,0,1.15-1.15V69H54v1.15A1.085,1.085,0,0,0,55.15,71.3Z" transform="translate(2.367 -10.332)"/><path class="d" d="M52.15,71.3a1.085,1.085,0,0,0,1.15-1.15V69H51v1.15A1.085,1.085,0,0,0,52.15,71.3Z" transform="translate(1.916 -10.332)"/><path class="d" d="M49.15,71.3a1.085,1.085,0,0,0,1.15-1.15V69H48v1.15A1.085,1.085,0,0,0,49.15,71.3Z" transform="translate(1.465 -10.332)"/><path class="d" d="M46.15,71.3a1.085,1.085,0,0,0,1.15-1.15V69H45v1.15A1.085,1.085,0,0,0,46.15,71.3Z" transform="translate(1.014 -10.332)"/><path class="d" d="M93.616,59H44.15A1.085,1.085,0,0,0,43,60.15V68.2a1.085,1.085,0,0,0,1.15,1.15H93.616a1.085,1.085,0,0,0,1.15-1.15V60.15A1.085,1.085,0,0,0,93.616,59Zm0,7.477a2.3,2.3,0,1,1,0-4.6Z" transform="translate(0.713 -11.836)"/><path class="e" d="M35.2,39.386c0,10.007,13.8,13.8,20.589,3.568,7.019,10.582,20.249,6.1,20.249-3.568S62.925,25.006,55.793,35.818C49.12,25.118,35.2,29.374,35.2,39.386Zm3.68,0c0-7.248,10.236-9.549,14.955,0C49,48.472,38.879,46.629,38.879,39.386Zm18.981,0c4.255-9.661,14.837-7.019,14.726,0,0,7.015-10.582,9.2-14.726,0Z" transform="translate(-0.459 -16.262)"/><path class="e" d="M41.7,37.2h6.1v1.955H41.7Z" transform="translate(0.518 -15.114)"/><path class="e" d="M61.168,39.439H59.1V37.372h2.067V35.3H63.24v2.072h1.955v2.067H63.24V41.4H61.168Z" transform="translate(3.134 -15.399)"/></g><text class="f" transform="translate(824.5 3036.47)"><tspan x="0" y="0">x3</tspan></text><g transform="translate(-51 2883.981)"><path class="d" d="M709.043,755.914H0V0H709.043ZM2.327,753.919H706.716V2.327H2.327Z"/><path class="d" d="M709.043,30.582H0V0H709.043ZM2.327,28.255H706.716V2.327H2.327Z"/><path class="d" d="M661.032,248.782H8.5V218.2H661.032ZM10.827,246.788H658.705V220.859H10.827Z" transform="translate(19.755 507.131)"/><path class="d" d="M661.032,146.782H8.5V116.2H661.032ZM10.827,144.455H658.705V118.527H10.827Z" transform="translate(19.755 270.067)"/><path class="d" d="M30.582,736.158H0V8.5H30.582ZM2.327,734.164H28.255V10.827H2.327Z" transform="translate(0 19.755)"/><path class="d" d="M234.682,736.158H204.1V8.5h30.582Zm-28.255-1.995h25.928V10.827H206.427Z" transform="translate(474.361 19.755)"/><rect class="d" width="282.553" height="7.646" transform="translate(29.253 379.951)"/><rect class="d" width="90.75" height="7.646" transform="translate(332.748 29.253)"/><rect class="d" width="282.553" height="7.646" transform="translate(448.576 29.356) rotate(45)"/><rect class="d" width="282.553" height="7.646" transform="matrix(-0.345, 0.939, -0.939, -0.345, 475.668, 415.128)"/><rect class="d" width="142.606" height="92.744" transform="translate(505.937 633.917)"/><rect class="d" width="98.063" height="21.275" transform="translate(172.524 705.386)"/><rect class="d" width="9.972" height="21.275" transform="translate(287.54 705.386)"/><rect class="d" width="98.063" height="21.275" transform="translate(172.524 29.253)"/><rect class="d" width="98.063" height="21.275" transform="translate(679.575 289.434) rotate(90)"/><rect class="d" width="9.972" height="21.275" transform="translate(287.54 29.253)"/></g><text class="a" transform="translate(851 3286.248)"><tspan x="-57" y="0">低反射ガラス</tspan><tspan x="-66.12" y="33">クリアサイトⅡ</tspan></text><g transform="translate(815 3166.867)"><path class="d" d="M31.725,26.8a1.8,1.8,0,1,1-3.6,0,1.8,1.8,0,1,1,3.6,0" transform="translate(-17.341 -14.216)"/><path class="d" d="M42.662,42.424a1.8,1.8,0,1,1-3.6,0,1.8,1.8,0,1,1,3.6,0" transform="translate(-15.697 -11.867)"/><path class="d" d="M71.927,15.625H18.75V94.712H37.776L64.211,68.277a1.8,1.8,0,0,1,2.543,2.543L42.861,94.713h5.7L64.214,79.062h0a1.8,1.8,0,0,1,2.543,2.543L53.645,94.714h37V15.627H87.8L61.361,42.062a1.8,1.8,0,0,1-2.543-2.543L82.71,15.626h-5.7L61.362,31.277a1.8,1.8,0,0,1-2.543-2.543ZM33.129,35.4a1.8,1.8,0,1,1-3.595,0,5.4,5.4,0,0,0-5.392-5.392,1.8,1.8,0,0,1,0-3.595,5.4,5.4,0,0,0,5.392-5.392,1.8,1.8,0,0,1,3.595,0,5.4,5.4,0,0,0,5.392,5.392,1.8,1.8,0,0,1,0,3.595A5.4,5.4,0,0,0,33.129,35.4ZM51.1,47.98a5.4,5.4,0,0,0-5.392,5.392,1.8,1.8,0,1,1-3.595,0,5.4,5.4,0,0,0-5.392-5.392,1.8,1.8,0,0,1,0-3.595,5.4,5.4,0,0,0,5.392-5.392,1.8,1.8,0,1,1,3.595,0A5.4,5.4,0,0,0,51.1,44.385a1.8,1.8,0,1,1,0,3.595Z" transform="translate(-18.75 -15.625)"/></g><path class="d" d="M108.06,29.032a1.6,1.6,0,0,0-1.141-.472l-17.121,0s-.009,0-.018,0-.009,0-.018,0H73.294c-.009,0-.009,0-.018,0s-.009,0-.018,0H56.784s-.009,0-.018,0-.009,0-.018,0H40.275s-.009,0-.018,0-.009,0-.018,0H23.771c-.009,0-.009,0-.018,0s-.009,0-.018,0H6.624a1.617,1.617,0,0,0-1.618,1.618l0,46.1A1.611,1.611,0,0,0,6.615,77.89H106.907a1.617,1.617,0,0,0,1.618-1.618l.009-46.1a1.619,1.619,0,0,0-.472-1.141Zm-2.768,45.632H8.235l0-42.869h13.9v9.661a1.618,1.618,0,1,0,3.235,0V31.795H38.643l0,16.9a1.618,1.618,0,1,0,3.235,0v-16.9H55.148v9.661a1.618,1.618,0,0,0,3.235,0V31.792H71.662v16.9a1.618,1.618,0,1,0,3.235,0v-16.9H88.166v9.661a1.618,1.618,0,1,0,3.235,0V31.792h13.9Z" transform="translate(1029.999 3148.073)"/></g></svg>