<svg xmlns="http://www.w3.org/2000/svg" viewBox="0 0 88.206 63.705"><defs><style>.a,.b{fill:#fee100;}.b{fill-rule:evenodd;}</style></defs><path class="a" d="M88.466,81.7H14.96A1.964,1.964,0,0,1,13,79.745v-.98a1.964,1.964,0,0,1,1.96-1.96,1.9,1.9,0,0,1,1.665.98H87.581l1.765-1.765V37.407L87,35.056a2.349,2.349,0,0,1-.49-1.374V21.921H16.92V27.8a1.96,1.96,0,1,1-3.92,0V19.961A1.964,1.964,0,0,1,14.96,18H88.465a1.964,1.964,0,0,1,1.96,1.96V32.9l2.351,2.351a1.936,1.936,0,0,1,.59,1.374V76.8a1.921,1.921,0,0,1-.59,1.371l-2.94,2.94a1.921,1.921,0,0,1-1.371.59Z" transform="translate(-5.159 -18.001)"/><path class="a" d="M14.96,64.621A1.964,1.964,0,0,1,13,62.661V47.96a1.96,1.96,0,1,1,3.92,0v14.7A1.964,1.964,0,0,1,14.96,64.621Z" transform="translate(-5.159 -18.558)"/><path class="a" d="M22.151,44.721H6.47A1.506,1.506,0,0,1,5,43.251V32.47A1.506,1.506,0,0,1,6.47,31H22.151a1.506,1.506,0,0,1,1.47,1.47V43.251A1.506,1.506,0,0,1,22.151,44.721Z" transform="translate(-5 -18.26)"/><path class="a" d="M25.191,76.781H11.47A1.506,1.506,0,0,1,10,75.311V67.47A1.506,1.506,0,0,1,11.47,66H25.191a1.506,1.506,0,0,1,1.47,1.47v7.841A1.506,1.506,0,0,1,25.191,76.781Z" transform="translate(-5.1 -18.957)"/><path class="a" d="M48.98,56a.924.924,0,0,0-.98.98v.98h1.96v-.98A.924.924,0,0,0,48.98,56Z" transform="translate(-5.857 -18.758)"/><path class="a" d="M45.98,56a.924.924,0,0,0-.98.98v.98h1.96v-.98A.924.924,0,0,0,45.98,56Z" transform="translate(-5.797 -18.758)"/><path class="a" d="M51.98,56a.924.924,0,0,0-.98.98v.98h1.96v-.98A.924.924,0,0,0,51.98,56Z" transform="translate(-5.917 -18.758)"/><path class="a" d="M54.98,56a.924.924,0,0,0-.98.98v.98h1.96v-.98A.924.924,0,0,0,54.98,56Z" transform="translate(-5.976 -18.758)"/><path class="a" d="M57.98,56a.924.924,0,0,0-.98.98v.98h1.96v-.98A.924.924,0,0,0,57.98,56Z" transform="translate(-6.036 -18.758)"/><path class="a" d="M60.98,56a.924.924,0,0,0-.98.98v.98h1.96v-.98A.924.924,0,0,0,60.98,56Z" transform="translate(-6.096 -18.758)"/><path class="a" d="M63.98,56a.924.924,0,0,0-.98.98v.98h1.96v-.98A.924.924,0,0,0,63.98,56Z" transform="translate(-6.156 -18.758)"/><path class="a" d="M66.98,56a.924.924,0,0,0-.98.98v.98h1.96v-.98A.924.924,0,0,0,66.98,56Z" transform="translate(-6.215 -18.758)"/><path class="a" d="M69.98,56a.924.924,0,0,0-.98.98v.98h1.96v-.98A.924.924,0,0,0,69.98,56Z" transform="translate(-6.275 -18.758)"/><path class="a" d="M72.98,56a.924.924,0,0,0-.98.98v.98h1.96v-.98A.924.924,0,0,0,72.98,56Z" transform="translate(-6.335 -18.758)"/><path class="a" d="M75.98,56a.924.924,0,0,0-.98.98v.98h1.96v-.98A.924.924,0,0,0,75.98,56Z" transform="translate(-6.395 -18.758)"/><path class="a" d="M78.98,56a.924.924,0,0,0-.98.98v.98h1.96v-.98A.924.924,0,0,0,78.98,56Z" transform="translate(-6.455 -18.758)"/><path class="a" d="M81.98,56a.924.924,0,0,0-.98.98v.98h1.96v-.98A.924.924,0,0,0,81.98,56Z" transform="translate(-6.514 -18.758)"/><path class="a" d="M84.98,56a.924.924,0,0,0-.98.98v.98h1.96v-.98A.924.924,0,0,0,84.98,56Z" transform="translate(-6.574 -18.758)"/><path class="a" d="M81.98,70.96a.924.924,0,0,0,.98-.98V69H81v.98A.924.924,0,0,0,81.98,70.96Z" transform="translate(-6.514 -19.017)"/><path class="a" d="M84.98,70.96a.924.924,0,0,0,.98-.98V69H84v.98A.924.924,0,0,0,84.98,70.96Z" transform="translate(-6.574 -19.017)"/><path class="a" d="M78.98,70.96a.924.924,0,0,0,.98-.98V69H78v.98A.924.924,0,0,0,78.98,70.96Z" transform="translate(-6.455 -19.017)"/><path class="a" d="M75.98,70.96a.924.924,0,0,0,.98-.98V69H75v.98A.924.924,0,0,0,75.98,70.96Z" transform="translate(-6.395 -19.017)"/><path class="a" d="M72.98,70.96a.924.924,0,0,0,.98-.98V69H72v.98A.924.924,0,0,0,72.98,70.96Z" transform="translate(-6.335 -19.017)"/><path class="a" d="M69.98,70.96a.924.924,0,0,0,.98-.98V69H69v.98A.924.924,0,0,0,69.98,70.96Z" transform="translate(-6.275 -19.017)"/><path class="a" d="M66.98,70.96a.924.924,0,0,0,.98-.98V69H66v.98A.924.924,0,0,0,66.98,70.96Z" transform="translate(-6.215 -19.017)"/><path class="a" d="M63.98,70.96a.924.924,0,0,0,.98-.98V69H63v.98A.924.924,0,0,0,63.98,70.96Z" transform="translate(-6.156 -19.017)"/><path class="a" d="M60.98,70.96a.924.924,0,0,0,.98-.98V69H60v.98A.924.924,0,0,0,60.98,70.96Z" transform="translate(-6.096 -19.017)"/><path class="a" d="M57.98,70.96a.924.924,0,0,0,.98-.98V69H57v.98A.924.924,0,0,0,57.98,70.96Z" transform="translate(-6.036 -19.017)"/><path class="a" d="M54.98,70.96a.924.924,0,0,0,.98-.98V69H54v.98A.924.924,0,0,0,54.98,70.96Z" transform="translate(-5.976 -19.017)"/><path class="a" d="M51.98,70.96a.924.924,0,0,0,.98-.98V69H51v.98A.924.924,0,0,0,51.98,70.96Z" transform="translate(-5.917 -19.017)"/><path class="a" d="M48.98,70.96a.924.924,0,0,0,.98-.98V69H48v.98A.924.924,0,0,0,48.98,70.96Z" transform="translate(-5.857 -19.017)"/><path class="a" d="M45.98,70.96a.924.924,0,0,0,.98-.98V69H45v.98A.924.924,0,0,0,45.98,70.96Z" transform="translate(-5.797 -19.017)"/><path class="a" d="M86.123,59H43.98a.924.924,0,0,0-.98.98v6.861a.924.924,0,0,0,.98.98H86.123a.924.924,0,0,0,.98-.98V59.98A.924.924,0,0,0,86.123,59Zm0,6.37a1.96,1.96,0,1,1,0-3.92Z" transform="translate(-5.757 -18.817)"/><path class="b" d="M35.2,37.932c0,8.526,11.761,11.761,17.541,3.04,5.98,9.016,17.251,5.2,17.251-3.04s-11.171-12.251-17.247-3.04C47.059,25.777,35.2,29.4,35.2,37.932Zm3.135,0c0-6.175,8.721-8.135,12.741,0C46.96,45.673,38.334,44.1,38.334,37.932Zm16.171,0c3.625-8.231,12.641-5.98,12.546,0,0,5.976-9.016,7.841-12.546,0Z" transform="translate(-5.602 -18.231)"/><path class="b" d="M41.7,37.2h5.2v1.665H41.7Z" transform="translate(-5.731 -18.383)"/><path class="b" d="M60.862,38.826H59.1V37.065h1.761V35.3h1.765v1.765h1.665v1.761H62.627V40.5H60.862Z" transform="translate(-6.078 -18.345)"/></svg>