<?xml version="1.0" encoding="utf-8"?>
<!-- Generator: Adobe Illustrator 22.1.0, SVG Export Plug-In . SVG Version: 6.00 Build 0)  -->
<svg version="1.1" id="レイヤー_1" xmlns="http://www.w3.org/2000/svg" xmlns:xlink="http://www.w3.org/1999/xlink" x="0px"
	 y="0px" viewBox="0 0 984.1 434.8" style="enable-background:new 0 0 984.1 434.8;" xml:space="preserve">
<style type="text/css">
	.st0{fill:none;stroke:#FEE100;stroke-width:2;stroke-miterlimit:10;}
	.st1{fill:#FEE100;}
	.st2{fill:none;stroke:#FEE100;stroke-width:0.9;stroke-miterlimit:10;}
	.st3{fill:none;stroke:#000000;stroke-width:0.9;stroke-miterlimit:10;}
	.st4{fill:#7AB648;}
	.st5{fill:none;stroke:#FEE100;stroke-width:1.9;stroke-miterlimit:10;}
	.st6{enable-background:new    ;}
	.st7{fill:#222222;}
	.st8{fill:none;stroke:#FEE100;}
	.st9{fill:none;stroke:#FEE100;stroke-width:2;}
</style>
<g transform="translate(-131 -3904.65)">
	<path class="st0" d="M256.4,4111v60.7h153.3"/>
	<path class="st1" d="M261.9,4110.3H251l5.5-16.7L261.9,4110.3z"/>
	<path class="st1" d="M252.8,4109.2h7.5l-3.6-11.7L252.8,4109.2z M263.5,4111.6h-14.1l7-21.6L263.5,4111.6z"/>
	<path class="st0" d="M213.2,4111v130.8h196.5"/>
	<path class="st1" d="M218.4,4110.3h-10.7l5.5-16.7L218.4,4110.3z"/>
	<path class="st1" d="M209.3,4109.2h7.8l-3.9-11.7L209.3,4109.2z M220,4111.6H206l7-21.6L220,4111.6z"/>
	<path class="st0" d="M169,4111v201h240.7"/>
	<path class="st1" d="M174.5,4110.3h-10.7l5.2-16.7L174.5,4110.3z"/>
	<path class="st1" d="M165.1,4109.2h7.5l-3.6-11.7L165.1,4109.2z M176,4111.6H162l7-21.6L176,4111.6z"/>
	<path class="st2" d="M536.7,4336.1c6.4,0,11.7-5.2,11.7-11.6c0,0,0-0.1,0-0.1v-70.3c0-6.4,5.2-11.7,11.6-11.7c0,0,0.1,0,0.1,0
		c-6.4,0-11.7-5.2-11.7-11.6c0,0,0-0.1,0-0.1v-70.3c0-6.4-5.2-11.7-11.6-11.7c0,0-0.1,0-0.1,0"/>
	<rect x="639.9" y="4024.1" class="st1" width="163.2" height="53.9"/>
	<rect x="950.7" y="4024.1" class="st1" width="164" height="53.9"/>
	<rect x="950.7" y="4024.1" class="st1" width="164" height="53.9"/>
	<rect x="950.7" y="4091" class="st1" width="164" height="53.9"/>
	<rect x="950.7" y="4091" class="st3" width="164" height="53.9"/>
	<rect x="950.7" y="4157.6" class="st1" width="164" height="53.9"/>
	<rect x="950.7" y="4157.6" class="st3" width="164" height="53.9"/>
	<line class="st0" x1="803.1" y1="4051.2" x2="927.2" y2="4051.2"/>
	<path class="st1" d="M944.9,4051.2l-16.4,5.2v-10.7L944.9,4051.2z"/>
	<path class="st1" d="M929.6,4055.1l11.7-3.9l-11.7-3.9V4055.1z M949.6,4051.2l-22.1,7v-14.1L949.6,4051.2z"/>
	<path class="st0" d="M803.1,4051.2h72.6v67.9h51.5"/>
	<path class="st1" d="M944.9,4119.1l-16.4,5.5v-10.9L944.9,4119.1z"/>
	<path class="st1" d="M929.6,4123l11.7-3.9l-11.7-3.9V4123z M949.6,4119.1l-22.1,7v-14.1L949.6,4119.1z"/>
	<path class="st0" d="M803.1,4051.2h72.6v133.5h51.5"/>
	<path class="st1" d="M944.9,4184.7l-16.4,5.5v-10.9L944.9,4184.7z"/>
	<path class="st1" d="M929.6,4188.6l11.7-3.9l-11.7-3.9V4188.6z M949.6,4184.7l-22.1,7v-14.1L949.6,4184.7z"/>
	<rect x="868.3" y="4247.9" class="st1" width="164" height="75"/>
	<path class="st1" d="M771.3,4148.3H769v-47.6h2.3L771.3,4148.3z M771.3,4284.1H872v2.3H769v-107.2h2.3L771.3,4284.1z"/>
	<path class="st1" d="M776,4099.8h-11.7l6-16.9L776,4099.8z"/>
	<path class="st1" d="M766.6,4098.5h7l-3.6-11.7L766.6,4098.5z M777.3,4100.9h-14.1l7-21.6L777.3,4100.9z"/>
	<path class="st1" d="M634.9,4055.3l-16.9,5.2v-10.7L634.9,4055.3z"/>
	<path class="st1" d="M619.3,4059l11.7-3.9l-11.7-3.9V4059z M638.6,4055.3l-21.6,7v-14.1L638.6,4055.3z"/>
	<path class="st4" d="M530,4306.5h-1.3v-2.3h1L530,4306.5z"/>
	<path class="st4" d="M623.7,4285.4v-1.3l0,0V4285.4z"/>
	<path class="st4" d="M672.9,4312.5v-0.3h1.3L672.9,4312.5z"/>
	<rect x="874.4" y="3904.7" class="st1" width="164" height="101.8"/>
	<line class="st5" x1="682.3" y1="4079.3" x2="682.3" y2="4122.2"/>
	<path class="st1" d="M682.3,4139.9l-5.2-16.7h10.7L682.3,4139.9z"/>
	<path class="st1" d="M678.6,4124.3l3.9,11.7l3.9-11.7H678.6z M682.3,4143.6l-7-21.6h14.1L682.3,4143.6z"/>
	<rect x="640.4" y="4145" class="st1" width="84.3" height="38.8"/>
	<path class="st0" d="M767.9,4027.1v-71.5h83"/>
	<g transform="translate(0 -23)">
		<path class="st1" d="M868.6,3978.7l-16.4,5.5v-10.9L868.6,3978.7z"/>
		<path class="st1" d="M853.3,3982.6l11.7-3.9l-11.7-3.9V3982.6z M873.3,3978.7l-22.4,7v-14.1L873.3,3978.7z"/>
	</g>
	<path class="st0" d="M546.7,3955.2h136.1v46.5"/>
	<path class="st1" d="M682.8,4019.2l-5.2-16.7h10.7L682.8,4019.2z"/>
	<path class="st1" d="M678.9,4003.8l3.9,11.7l3.9-11.7H678.9z M682.8,4023.1l-7-21.6h14.1L682.8,4023.1z"/>
	<g class="st6">
		<path class="st1" d="M286,4197.1c-0.7,0.7-1.8,1.1-3.3,1.1c-1.5,0-2.6-0.4-3.2-1.1c-0.6-0.7-0.9-1.8-0.9-3.3v-5.5
			c-0.4-0.2-0.7-0.4-0.9-0.6l0.2-1.4h4l0.2,1.4c-0.2,0.2-0.5,0.4-0.9,0.6v5.6c0,0.8,0.1,1.4,0.4,1.8c0.3,0.4,0.7,0.6,1.4,0.6
			c0.7,0,1.2-0.2,1.5-0.6c0.3-0.4,0.4-1,0.4-1.8v-5.6c-0.5-0.2-0.8-0.4-0.9-0.6l0.2-1.4h3.7l0.2,1.4c-0.2,0.2-0.5,0.4-0.9,0.6v5.5
			C287,4195.2,286.6,4196.3,286,4197.1z"/>
		<path class="st1" d="M294,4188.1c-0.4-0.1-0.8-0.2-1.2-0.2c-0.4,0-0.8,0.1-1,0.3c-0.3,0.2-0.4,0.5-0.4,0.9s0.1,0.7,0.3,0.9
			c0.2,0.2,0.6,0.4,1.1,0.6l1.5,0.4c0.8,0.2,1.5,0.6,1.9,1.1c0.5,0.5,0.7,1.2,0.7,2.2c0,1.2-0.4,2.1-1.2,2.7c-0.8,0.7-1.9,1-3.1,1
			c-0.7,0-1.4-0.1-2.1-0.3c-0.7-0.2-1.3-0.4-1.8-0.7c0-0.1,0-0.2,0-0.4s0-0.5,0.1-1c0.1-0.5,0.2-0.8,0.3-1.1h1.6
			c0.2,0.4,0.3,0.8,0.3,1.4c0.4,0.2,0.9,0.3,1.4,0.3c0.5,0,1-0.1,1.3-0.4s0.5-0.6,0.5-1.1c0-0.2,0-0.4-0.1-0.5s-0.1-0.3-0.3-0.5
			s-0.4-0.3-0.8-0.4l-1.8-0.5c-1.8-0.5-2.7-1.6-2.7-3.4c0-1,0.4-1.9,1.1-2.5c0.7-0.6,1.7-0.9,2.9-0.9s2.4,0.3,3.5,0.8
			c0,0.1,0,0.2,0,0.4c0,0.2,0,0.5-0.1,1c-0.1,0.5-0.2,0.8-0.3,1.1h-1.6C294.1,4189.2,294,4188.7,294,4188.1z"/>
		<path class="st1" d="M301.9,4186.3c1.3,0,2.3,0.1,2.9,0.2s1,0.4,1.3,0.6c0.6,0.5,0.9,1.3,0.9,2.3c0,0.8-0.4,1.5-1.2,2.2
			c1.1,0.5,1.6,1.5,1.6,3c0,1.1-0.4,2-1.1,2.5s-1.9,0.9-3.3,0.9H298l-0.2-1.4c0.1-0.2,0.5-0.4,0.9-0.6v-7.8
			c-0.5-0.2-0.8-0.4-0.9-0.6l0.2-1.4H301.9z M302.1,4188.1h-0.9v2.9h1.4c0.6,0,1-0.1,1.3-0.4s0.5-0.7,0.5-1.1c0-0.4-0.1-0.7-0.3-1
			c-0.2-0.2-0.5-0.3-0.7-0.4C303.1,4188.1,302.7,4188.1,302.1,4188.1z M302.8,4192.9h-1.5v3.2h1.2c0.8,0,1.4-0.1,1.8-0.3
			c0.4-0.2,0.6-0.6,0.6-1.2c0-0.6-0.2-1-0.5-1.3C304,4193,303.5,4192.9,302.8,4192.9z"/>
		<path class="st1" d="M312.5,4186.1c2.4,0,3.7,1,3.7,3c0,0.4-0.1,0.9-0.3,1.4s-0.5,0.9-0.8,1.2l-2.5,3c-0.4,0.4-0.8,0.9-1.3,1.3
			l-0.3,0.2l0.1,0.2c0.5-0.1,1.1-0.2,1.7-0.2h1.3c0.1-0.6,0.2-1.1,0.4-1.5l1.6,0.1c0.2,0.4,0.4,1.1,0.4,2.1c0,0.4,0,0.8-0.1,1.1
			h-7.8l-0.4-2.1l4.2-4.6c0.8-0.9,1.2-1.7,1.2-2.5c0-0.4-0.1-0.7-0.3-0.9c-0.2-0.2-0.6-0.3-1.1-0.3s-1,0.1-1.3,0.2
			c-0.1,0.8-0.2,1.4-0.4,1.6l-1.5-0.1c-0.2-0.4-0.3-1-0.4-1.9c0-0.2,0-0.3,0-0.4C309.6,4186.5,310.9,4186.1,312.5,4186.1z"/>
		<path class="st1" d="M317.6,4201.2c-0.1-0.2-0.2-0.6-0.2-1.2c0-0.1,0-0.3,0.1-0.5l4.6-13.8l1.1,0.2c0.1,0.1,0.1,0.3,0.2,0.6
			s0,0.5,0,0.6s0,0.3-0.1,0.5l-4.6,13.7L317.6,4201.2z"/>
		<path class="st1" d="M324.6,4187.1c0-0.1,0-0.3,0-0.4c0.3-0.1,0.8-0.3,1.4-0.4c0.7-0.1,1.2-0.2,1.7-0.2c0.5,0,0.9,0,1.4,0.1
			c0.4,0.1,0.8,0.2,1.2,0.5c0.4,0.2,0.7,0.5,0.9,0.9c0.2,0.4,0.3,0.9,0.3,1.4s-0.2,1-0.5,1.4c-0.3,0.4-0.7,0.8-1.1,1v0.2
			c1.3,0.5,2,1.4,2,2.6s-0.5,2.2-1.4,2.9c-0.9,0.6-2.1,1-3.5,1c-0.5,0-1-0.1-1.5-0.2s-1-0.3-1.3-0.4l0.4-1.5
			c0.8,0.3,1.5,0.4,2.2,0.4c1.7,0,2.5-0.6,2.5-1.8c0-1.4-0.7-2-2-2c-0.5,0-1,0-1.5,0.1l-0.2-1.4l1.5-0.1c1.3-0.1,1.9-0.7,1.9-1.9
			c0-0.6-0.1-1-0.4-1.3s-0.7-0.4-1.2-0.4c-0.2,0-0.4,0-0.6,0.1c-0.1,0.6-0.2,1.1-0.4,1.4l-1.5-0.1
			C324.7,4188.6,324.6,4188,324.6,4187.1z"/>
	</g>
	<g class="st6">
		<path class="st1" d="M415.9,4062.1c-0.7,0.7-1.8,1.1-3.3,1.1c-1.5,0-2.6-0.4-3.2-1.1c-0.6-0.7-0.9-1.8-0.9-3.3v-5.5
			c-0.4-0.2-0.7-0.4-0.9-0.6l0.2-1.4h4l0.2,1.4c-0.2,0.2-0.5,0.4-0.9,0.6v5.6c0,0.8,0.1,1.4,0.4,1.8c0.3,0.4,0.7,0.6,1.4,0.6
			c0.7,0,1.2-0.2,1.5-0.6c0.3-0.4,0.4-1,0.4-1.8v-5.6c-0.5-0.2-0.8-0.4-0.9-0.6l0.2-1.4h3.7l0.2,1.4c-0.2,0.2-0.5,0.4-0.9,0.6v5.5
			C416.9,4060.2,416.5,4061.3,415.9,4062.1z"/>
		<path class="st1" d="M423.9,4053.1c-0.4-0.1-0.8-0.2-1.2-0.2c-0.4,0-0.8,0.1-1,0.3c-0.3,0.2-0.4,0.5-0.4,0.9s0.1,0.7,0.3,0.9
			c0.2,0.2,0.6,0.4,1.1,0.6l1.5,0.4c0.8,0.2,1.5,0.6,1.9,1.1c0.5,0.5,0.7,1.2,0.7,2.2c0,1.2-0.4,2.1-1.2,2.7c-0.8,0.7-1.9,1-3.1,1
			c-0.7,0-1.4-0.1-2.1-0.3c-0.7-0.2-1.3-0.4-1.8-0.7c0-0.1,0-0.2,0-0.4s0-0.5,0.1-1c0.1-0.5,0.2-0.8,0.3-1.1h1.6
			c0.2,0.4,0.3,0.8,0.3,1.4c0.4,0.2,0.9,0.3,1.4,0.3c0.5,0,1-0.1,1.3-0.4s0.5-0.6,0.5-1.1c0-0.2,0-0.4-0.1-0.5s-0.1-0.3-0.3-0.5
			s-0.4-0.3-0.8-0.4l-1.8-0.5c-1.8-0.5-2.7-1.6-2.7-3.4c0-1,0.4-1.9,1.1-2.5c0.7-0.6,1.7-0.9,2.9-0.9s2.4,0.3,3.5,0.8
			c0,0.1,0,0.2,0,0.4c0,0.2,0,0.5-0.1,1c-0.1,0.5-0.2,0.8-0.3,1.1h-1.6C424,4054.2,423.9,4053.7,423.9,4053.1z"/>
		<path class="st1" d="M431.8,4051.3c1.3,0,2.3,0.1,2.9,0.2s1,0.4,1.3,0.6c0.6,0.5,0.9,1.3,0.9,2.3c0,0.8-0.4,1.5-1.2,2.2
			c1.1,0.5,1.6,1.5,1.6,3c0,1.1-0.4,2-1.1,2.5s-1.9,0.9-3.3,0.9h-4.8l-0.2-1.4c0.1-0.2,0.5-0.4,0.9-0.6v-7.8
			c-0.5-0.2-0.8-0.4-0.9-0.6l0.2-1.4H431.8z M432,4053.1h-0.9v2.9h1.4c0.6,0,1-0.1,1.3-0.4s0.5-0.7,0.5-1.1c0-0.4-0.1-0.7-0.3-1
			c-0.2-0.2-0.5-0.3-0.7-0.4C433,4053.1,432.6,4053.1,432,4053.1z M432.7,4057.9h-1.5v3.2h1.2c0.8,0,1.4-0.1,1.8-0.3
			c0.4-0.2,0.6-0.6,0.6-1.2c0-0.6-0.2-1-0.5-1.3C433.9,4058,433.4,4057.9,432.7,4057.9z"/>
		<path class="st1" d="M438,4066.2c-0.1-0.2-0.2-0.6-0.2-1.2c0-0.1,0-0.3,0.1-0.5l4.6-13.8l1.1,0.2c0.1,0.1,0.1,0.3,0.2,0.6
			s0,0.5,0,0.6s0,0.3-0.1,0.5l-4.6,13.7L438,4066.2z"/>
		<path class="st1" d="M450.1,4053.1c-0.4-0.1-0.8-0.2-1.2-0.2c-0.4,0-0.8,0.1-1,0.3c-0.3,0.2-0.4,0.5-0.4,0.9s0.1,0.7,0.3,0.9
			c0.2,0.2,0.6,0.4,1.1,0.6l1.5,0.4c0.8,0.2,1.5,0.6,1.9,1.1c0.5,0.5,0.7,1.2,0.7,2.2c0,1.2-0.4,2.1-1.2,2.7c-0.8,0.7-1.9,1-3.1,1
			c-0.7,0-1.4-0.1-2.1-0.3c-0.7-0.2-1.3-0.4-1.8-0.7c0-0.1,0-0.2,0-0.4s0-0.5,0.1-1c0.1-0.5,0.2-0.8,0.3-1.1h1.6
			c0.2,0.4,0.3,0.8,0.3,1.4c0.4,0.2,0.9,0.3,1.4,0.3c0.5,0,1-0.1,1.3-0.4s0.5-0.6,0.5-1.1c0-0.2,0-0.4-0.1-0.5s-0.1-0.3-0.3-0.5
			s-0.4-0.3-0.8-0.4l-1.8-0.5c-1.8-0.5-2.7-1.6-2.7-3.4c0-1,0.4-1.9,1.1-2.5c0.7-0.6,1.7-0.9,2.9-0.9s2.4,0.3,3.5,0.8
			c0,0.1,0,0.2,0,0.4c0,0.2,0,0.5-0.1,1c-0.1,0.5-0.2,0.8-0.3,1.1h-1.6C450.3,4054.2,450.1,4053.7,450.1,4053.1z"/>
		<path class="st1" d="M458,4063.1c-1.4,0-2.4-0.4-3.1-1.1c-0.7-0.7-1-1.8-1-3.2c0-0.8,0.1-1.6,0.4-2.2c0.2-0.6,0.6-1.1,1-1.4
			c0.8-0.6,1.7-1,2.8-1s1.9,0.3,2.4,0.8s0.8,1.5,0.8,2.9c0,0.8-0.4,1.2-1.2,1.2h-3.7c0,0.7,0.2,1.2,0.6,1.5c0.3,0.3,0.8,0.4,1.5,0.4
			c0.4,0,0.8,0,1.1-0.1c0.4-0.1,0.6-0.2,0.8-0.3l0.2-0.1l0.5,1.4c-0.1,0.1-0.2,0.2-0.3,0.3s-0.5,0.3-1,0.5S458.7,4063.1,458,4063.1z
			 M459.1,4057.8c0-0.2,0-0.4,0-0.6s-0.1-0.5-0.3-0.7c-0.2-0.3-0.5-0.4-0.9-0.4c-0.4,0-0.8,0.1-1,0.4c-0.2,0.3-0.4,0.7-0.5,1.4
			L459.1,4057.8z"/>
		<path class="st1" d="M467.2,4056.6c-0.9,0-1.5,0.2-1.8,0.5v3.9c0.9,0.2,1.5,0.4,1.9,0.7l-0.2,1.3h-4.9l-0.2-1.3
			c0.2-0.2,0.5-0.4,0.9-0.6v-4.7c-0.4-0.1-0.7-0.3-0.9-0.6l0.2-1.3c0.6-0.1,1.2-0.2,1.7-0.2s0.9,0,1.2,0v1.1c0.3-0.3,0.6-0.6,1-0.8
			c0.4-0.2,0.8-0.3,1.1-0.3s0.6,0,0.7,0.1l-0.1,2.2C467.8,4056.6,467.5,4056.6,467.2,4056.6z"/>
		<path class="st1" d="M468.9,4054.5c0.6-0.1,1.2-0.2,1.8-0.2s1,0,1.4,0.1v6.8c0.4,0.2,0.8,0.4,0.9,0.6l-0.2,1.3h-3.9l-0.2-1.3
			c0.2-0.2,0.5-0.4,0.9-0.6v-4.7c-0.4-0.1-0.7-0.3-0.9-0.6L468.9,4054.5z M470.9,4053.3c-0.9,0-1.4-0.4-1.4-1.3
			c0-0.9,0.5-1.3,1.4-1.3c0.9,0,1.4,0.4,1.4,1.3C472.3,4052.9,471.8,4053.3,470.9,4053.3z"/>
		<path class="st1" d="M474,4055.8c0-0.2,0-0.4,0-0.5c1.1-0.6,2.2-0.8,3.4-0.8c1.2,0,2.1,0.2,2.6,0.7s0.8,1.2,0.8,2.3v3.6
			c0.4,0.1,0.7,0.2,0.9,0.3v1.5c-0.6,0.3-1.4,0.4-2.5,0.4c-0.1-0.3-0.2-0.7-0.3-1.1c-0.5,0.7-1.4,1.1-2.7,1.1
			c-0.8,0-1.4-0.2-1.9-0.7c-0.5-0.4-0.8-1-0.8-1.8c0-0.8,0.3-1.4,0.8-1.8c0.5-0.4,1.3-0.7,2.3-0.7h1.9v-0.8c0-0.9-0.5-1.3-1.4-1.3
			c-0.4,0-0.6,0-0.9,0.1c0,0.5-0.1,0.8-0.2,1.1h-1.7C474.1,4056.9,474,4056.4,474,4055.8z M477.1,4061.4c0.6,0,1-0.2,1.4-0.5v-1.4
			h-1.2c-0.8,0-1.2,0.3-1.2,0.9c0,0.3,0.1,0.5,0.3,0.7C476.5,4061.3,476.7,4061.4,477.1,4061.4z"/>
		<path class="st1" d="M482.4,4050.9c0.6-0.1,1.2-0.2,1.8-0.2c0.5,0,1,0,1.4,0.1v10.4c0.4,0.2,0.8,0.4,0.9,0.6l-0.2,1.3h-3.9
			l-0.2-1.3c0.2-0.2,0.5-0.4,0.9-0.6v-8.3c-0.4-0.1-0.7-0.3-0.9-0.6L482.4,4050.9z"/>
	</g>
	<g class="st6">
		<path class="st1" d="M669,4269.3v3l-1.3,0.2c-0.3-0.2-0.5-0.6-0.6-1.3h-2.7v3.1h2.4c0.1-0.3,0.3-0.6,0.4-0.7l1.1,0.1v3l-1.1,0.1
			c-0.1-0.1-0.3-0.4-0.4-0.7h-2.4v2.8c0.8,0.2,1.3,0.4,1.7,0.7l-0.2,1.4h-4.7l-0.2-1.4c0.1-0.2,0.5-0.4,0.9-0.6v-7.8
			c-0.5-0.2-0.8-0.4-0.9-0.6l0.2-1.4H669z"/>
		<path class="st1" d="M673.5,4281.1c-1.3,0-2.3-0.4-3-1.1c-0.6-0.7-1-1.8-1-3.2c0-1.4,0.4-2.5,1.1-3.3c0.7-0.8,1.8-1.1,3.1-1.1
			s2.3,0.3,3,1c0.7,0.7,1,1.7,1,3.2c0,1.4-0.4,2.6-1.1,3.4C675.9,4280.7,674.9,4281.1,673.5,4281.1z M672,4276.7
			c0,1.8,0.5,2.7,1.6,2.7c0.6,0,1-0.2,1.2-0.6c0.3-0.4,0.4-1.1,0.4-2c0-1.8-0.6-2.7-1.7-2.7c-0.5,0-0.9,0.2-1.2,0.6
			S672,4275.7,672,4276.7z"/>
		<path class="st1" d="M682.6,4274.1c-1,0-1.6,0.9-1.6,2.7c0,0.9,0.1,1.5,0.4,1.9c0.3,0.4,0.7,0.5,1.2,0.5c0.9,0,1.6-0.1,2.3-0.2
			l0.5,1.3c-0.4,0.2-0.9,0.4-1.5,0.6c-0.6,0.2-1.2,0.2-1.8,0.2c-2.4,0-3.7-1.4-3.7-4.2c0-1.7,0.4-2.8,1.3-3.6c0.8-0.6,1.7-1,2.8-1
			c1.1,0,2,0.2,2.7,0.6c0,0.1,0,0.2,0,0.3c0,0.6-0.1,1.3-0.4,1.8h-1.5c-0.2-0.3-0.3-0.6-0.3-1C683,4274.1,682.8,4274.1,682.6,4274.1
			z"/>
		<path class="st1" d="M692.5,4280.3c-0.8,0.6-1.7,0.8-2.8,0.8c-1.1,0-1.8-0.2-2.2-0.7c-0.4-0.4-0.6-1.2-0.6-2.2v-3.9
			c-0.4-0.1-0.7-0.3-0.9-0.6l0.2-1.3c0.6-0.1,1.2-0.2,1.8-0.2s1,0,1.4,0.1v5.4c0,0.6,0.1,1,0.3,1.2c0.2,0.2,0.6,0.3,1.1,0.3
			c0.6,0,1.1-0.2,1.5-0.5v-4.3c-0.4-0.1-0.7-0.3-0.9-0.6l0.2-1.3c0.6-0.1,1.2-0.2,1.8-0.2c0.5,0,1,0,1.4,0.1v6.6
			c0.4,0.1,0.7,0.2,0.9,0.3v1.3c-0.7,0.4-1.5,0.5-2.6,0.5C692.7,4280.9,692.6,4280.6,692.5,4280.3z"/>
		<path class="st1" d="M699.7,4273.9c-0.7,0-1.1,0.2-1.1,0.7c0,0.4,0.4,0.7,1.2,0.9l1.3,0.4c1.4,0.4,2.1,1.2,2.1,2.4
			c0,0.8-0.3,1.5-0.9,2.1c-0.6,0.5-1.5,0.8-2.8,0.8s-2.3-0.2-3-0.5c0-0.1,0-0.2,0-0.4c0-0.6,0.1-1.2,0.4-1.7h1.4
			c0.1,0.3,0.2,0.6,0.3,0.8c0.2,0.1,0.5,0.1,1,0.1c1,0,1.5-0.3,1.5-0.9c0-0.2-0.1-0.3-0.2-0.5s-0.4-0.2-0.8-0.3l-1.3-0.4
			c-0.7-0.2-1.2-0.5-1.6-0.9s-0.6-0.9-0.6-1.7s0.3-1.4,0.9-1.8c0.6-0.5,1.5-0.7,2.6-0.7s2.1,0.2,2.8,0.5c0,0.1,0,0.2,0,0.3
			c0,0.6-0.1,1.1-0.4,1.6h-1.4c-0.1-0.3-0.2-0.5-0.3-0.8C700.3,4273.9,700,4273.9,699.7,4273.9z"/>
	</g>
	<g class="st6">
		<path class="st1" d="M661.2,4288.3c-0.3-0.1-0.8-0.2-1.5-0.2c-0.7,0-1.2,0.3-1.6,0.9c-0.4,0.6-0.6,1.6-0.6,3.1s0.2,2.5,0.6,3.1
			c0.4,0.6,1,0.9,1.8,0.9c1.2,0,2.3-0.2,3.3-0.5l0.6,1.5c-1.2,0.7-2.6,1.1-4.2,1.1c-1.6,0-2.8-0.5-3.5-1.4s-1.1-2.4-1.1-4.5
			c0-2.1,0.4-3.6,1.3-4.6s2.1-1.5,3.7-1.5c1.3,0,2.5,0.4,3.7,1.1c0,0.1,0,0.2,0,0.4c0,0.2,0,0.5-0.1,1s-0.2,0.8-0.3,1.1h-1.6
			C661.4,4289.4,661.2,4288.9,661.2,4288.3z"/>
		<path class="st1" d="M668.3,4298.1c-1.3,0-2.3-0.4-3-1.1c-0.6-0.7-1-1.8-1-3.2c0-1.4,0.4-2.5,1.1-3.3c0.7-0.8,1.8-1.1,3.1-1.1
			s2.3,0.3,3,1c0.7,0.7,1,1.7,1,3.2c0,1.4-0.4,2.6-1.1,3.4C670.7,4297.7,669.6,4298.1,668.3,4298.1z M666.8,4293.7
			c0,1.8,0.5,2.7,1.6,2.7c0.6,0,1-0.2,1.2-0.6c0.3-0.4,0.4-1.1,0.4-2c0-1.8-0.6-2.7-1.7-2.7c-0.5,0-0.9,0.2-1.2,0.6
			C666.9,4292.1,666.8,4292.7,666.8,4293.7z"/>
		<path class="st1" d="M673.5,4289.5c0.6-0.1,1.2-0.2,1.7-0.2c0.5,0,0.9,0,1.2,0v0.8c0.3-0.2,0.7-0.4,1.1-0.6
			c0.5-0.2,0.9-0.2,1.4-0.2c1.1,0,1.9,0.3,2.3,0.8c0.4,0.5,0.7,1.4,0.7,2.7v3.3c0.4,0.2,0.8,0.4,0.9,0.6l-0.2,1.3h-3.9l-0.2-1.3
			c0.2-0.2,0.5-0.4,0.9-0.6v-3.4c0-0.6-0.1-1-0.3-1.2s-0.6-0.3-1.1-0.3s-1,0.2-1.5,0.5v4.4c0.4,0.2,0.8,0.4,0.9,0.6l-0.2,1.3h-3.9
			l-0.2-1.3c0.2-0.2,0.5-0.4,0.9-0.6v-4.7c-0.4-0.1-0.7-0.3-0.9-0.6L673.5,4289.5z"/>
		<path class="st1" d="M686.6,4287.4v2.1h2.4v1.4h-2.4v4.3c0,0.4,0.1,0.6,0.2,0.8c0.1,0.2,0.3,0.2,0.7,0.2c0.4,0,0.8-0.1,1.2-0.3
			l0.5,1.3c-0.9,0.4-1.8,0.7-2.7,0.7c-0.9,0-1.5-0.2-1.9-0.6c-0.3-0.4-0.5-1-0.5-1.7v-4.8h-0.8l-0.2-1c0.2-0.2,0.6-0.4,1.1-0.6
			c0.1-0.9,0.5-1.6,1-1.9H686.6z"/>
		<path class="st1" d="M694.9,4291.6c-0.9,0-1.5,0.2-1.8,0.5v3.9c0.9,0.2,1.5,0.4,1.9,0.7l-0.2,1.3H690l-0.2-1.3
			c0.2-0.2,0.5-0.4,0.9-0.6v-4.7c-0.4-0.1-0.7-0.3-0.9-0.6l0.2-1.3c0.6-0.1,1.2-0.2,1.7-0.2c0.5,0,0.9,0,1.2,0v1.1
			c0.3-0.3,0.6-0.6,1-0.8c0.4-0.2,0.8-0.3,1.1-0.3c0.3,0,0.6,0,0.7,0.1l-0.1,2.2C695.4,4291.6,695.2,4291.6,694.9,4291.6z"/>
		<path class="st1" d="M700.3,4298.1c-1.3,0-2.3-0.4-3-1.1c-0.6-0.7-1-1.8-1-3.2c0-1.4,0.4-2.5,1.1-3.3c0.7-0.8,1.8-1.1,3.1-1.1
			s2.3,0.3,3,1c0.7,0.7,1,1.7,1,3.2c0,1.4-0.4,2.6-1.1,3.4S701.7,4298.1,700.3,4298.1z M698.8,4293.7c0,1.8,0.5,2.7,1.6,2.7
			c0.6,0,1-0.2,1.2-0.6c0.3-0.4,0.4-1.1,0.4-2c0-1.8-0.6-2.7-1.7-2.7c-0.5,0-0.9,0.2-1.2,0.6S698.8,4292.7,698.8,4293.7z"/>
		<path class="st1" d="M705.4,4285.9c0.6-0.1,1.2-0.2,1.8-0.2s1,0,1.4,0.1v10.4c0.4,0.2,0.8,0.4,0.9,0.6l-0.2,1.3h-3.9l-0.2-1.3
			c0.2-0.2,0.5-0.4,0.9-0.6v-8.3c-0.4-0.1-0.7-0.3-0.9-0.6L705.4,4285.9z"/>
	</g>
	<g class="st6">
		<path class="st7" d="M921.7,4274.1l-3.2-9.8c-0.5-0.2-0.8-0.4-1-0.6l0.2-1.4h4l0.2,1.4c-0.2,0.2-0.4,0.4-0.9,0.5l1.4,5
			c0.2,0.8,0.4,1.5,0.4,2.2l0,0.3h0.2c0-0.7,0.2-1.5,0.4-2.4l1.5-5c-0.4-0.1-0.7-0.3-0.9-0.6l0.2-1.4h3.9l0.2,1.4
			c-0.2,0.2-0.6,0.5-1.1,0.6l-3.2,9.8H921.7z"/>
		<path class="st7" d="M936.8,4274H929l-0.2-1.4c0.1-0.2,0.5-0.4,0.9-0.6v-7.8c-0.5-0.2-0.8-0.4-0.9-0.6l0.2-1.4h4l0.2,1.4
			c-0.2,0.2-0.5,0.4-0.9,0.6v7.9h2.7c0.1-0.6,0.4-1,0.6-1.3l1.3,0.2V4274z"/>
		<path class="st7" d="M941.3,4266.5c1.1,0,2,0.3,2.6,0.9c0.6,0.6,0.9,1.5,0.9,2.7c0,1.4-0.4,2.4-1.2,3.1c-0.8,0.7-2,1-3.4,1
			c-0.5,0-1-0.1-1.6-0.2c-0.6-0.1-1-0.3-1.3-0.5l0.5-1.5c0.6,0.2,1.3,0.4,2.1,0.4s1.3-0.2,1.7-0.5c0.4-0.3,0.6-0.8,0.6-1.5
			c0-0.9-0.2-1.5-0.6-1.8c-0.3-0.2-0.7-0.4-1.2-0.4c-0.5,0-1.1,0.1-1.9,0.2l-0.7-1.3h0v-4.9h6.3v1.9h-4.1v2.4
			C940.2,4266.5,940.7,4266.5,941.3,4266.5z"/>
		<path class="st7" d="M946,4263.1c0-0.1,0-0.3,0-0.4c0.3-0.1,0.8-0.3,1.4-0.4s1.2-0.2,1.7-0.2c0.5,0,0.9,0,1.4,0.1
			c0.4,0.1,0.8,0.2,1.2,0.5c0.4,0.2,0.7,0.5,0.9,0.9c0.2,0.4,0.3,0.9,0.3,1.4s-0.2,1-0.5,1.4c-0.3,0.4-0.7,0.8-1.1,1v0.2
			c1.3,0.5,2,1.4,2,2.6s-0.5,2.2-1.4,2.9c-0.9,0.6-2.1,1-3.5,1c-0.5,0-1-0.1-1.5-0.2c-0.6-0.1-1-0.3-1.3-0.4l0.4-1.5
			c0.8,0.3,1.5,0.4,2.2,0.4c1.7,0,2.5-0.6,2.5-1.8c0-1.4-0.7-2-2-2c-0.5,0-1,0-1.5,0.1l-0.2-1.4l1.5-0.1c1.3-0.1,1.9-0.7,1.9-1.9
			c0-0.6-0.1-1-0.4-1.3c-0.3-0.3-0.7-0.4-1.2-0.4c-0.2,0-0.4,0-0.6,0.1c-0.1,0.6-0.2,1.1-0.4,1.4l-1.5-0.1
			C946.1,4264.6,946,4264,946,4263.1z"/>
		<path class="st7" d="M962.5,4274h-7.8l-0.2-1.4c0.1-0.2,0.5-0.4,0.9-0.6v-7.8c-0.5-0.2-0.8-0.4-0.9-0.6l0.2-1.4h4l0.2,1.4
			c-0.2,0.2-0.5,0.4-0.9,0.6v7.9h2.7c0.1-0.6,0.4-1,0.6-1.3l1.3,0.2V4274z"/>
		<path class="st7" d="M967.3,4274.1c-1.5,0-2.6-0.4-3.2-1.3s-0.9-2.4-0.9-4.6c0-2.1,0.3-3.7,1-4.7c0.7-1,1.8-1.4,3.3-1.4
			s2.6,0.4,3.2,1.3c0.6,0.8,0.9,2.3,0.9,4.5c0,2.1-0.3,3.7-1,4.7S968.8,4274.1,967.3,4274.1z M966.1,4264.6
			c-0.2,0.6-0.3,1.7-0.3,3.4c0,1.6,0.1,2.8,0.3,3.5c0.2,0.7,0.7,1,1.3,1c0.5,0,0.9-0.2,1.2-0.7c0.3-0.5,0.5-1.7,0.5-3.5
			s-0.1-3-0.3-3.7s-0.7-1-1.4-1S966.3,4264,966.1,4264.6z"/>
		<path class="st7" d="M977.7,4266.8c0.1-0.3,0.3-0.7,0.6-1.4l0.6-1.2c-0.4-0.2-0.7-0.4-0.8-0.5l0.2-1.4h3.9l0.2,1.4
			c-0.2,0.2-0.6,0.5-1.1,0.6l-2.2,3.6l2.3,4.1c0.5,0.2,0.8,0.4,1,0.6l-0.2,1.4h-4l-0.2-1.4c0.1-0.2,0.4-0.3,0.7-0.5l-0.8-1.7
			c-0.3-0.6-0.5-1-0.6-1.4l-0.1-0.2h-0.3c-0.1,0.4-0.3,0.9-0.6,1.5l-0.8,1.6c0.4,0.2,0.7,0.4,0.8,0.5l-0.2,1.4h-3.9l-0.2-1.4
			c0.2-0.2,0.6-0.5,1.1-0.6l2.3-4.1l-2.2-3.6c-0.5-0.2-0.9-0.4-1.1-0.6l0.2-1.4h4l0.2,1.4c-0.1,0.2-0.4,0.3-0.7,0.5l0.7,1.3
			c0.3,0.6,0.5,1,0.6,1.4H977.7z"/>
	</g>
	<g class="st6">
		<path class="st7" d="M922.8,4291h-4.3l-0.2-1.4c0.1-0.2,0.5-0.4,0.9-0.6v-7.8c-0.5-0.2-0.8-0.4-0.9-0.6l0.2-1.4h3.8
			c1.8,0,3.3,0.5,4.3,1.5c1.1,1,1.6,2.5,1.6,4.5s-0.5,3.4-1.5,4.3S924.4,4291,922.8,4291z M921.6,4289.1h1.2c0.8,0,1.5-0.3,2-0.8
			c0.5-0.5,0.7-1.5,0.7-3c0-2.8-1.1-4.2-3.2-4.2h-0.8V4289.1z"/>
		<path class="st7" d="M929.3,4282.5c0.6-0.1,1.2-0.2,1.8-0.2s1,0,1.4,0.1v6.8c0.4,0.2,0.8,0.4,0.9,0.6l-0.2,1.3h-3.9l-0.2-1.3
			c0.2-0.2,0.5-0.4,0.9-0.6v-4.7c-0.4-0.1-0.7-0.3-0.9-0.6L929.3,4282.5z M931.2,4281.3c-0.9,0-1.4-0.4-1.4-1.3
			c0-0.9,0.5-1.3,1.4-1.3c0.9,0,1.4,0.4,1.4,1.3C932.6,4280.9,932.2,4281.3,931.2,4281.3z"/>
		<path class="st7" d="M937.5,4283.9c-0.7,0-1.1,0.2-1.1,0.7c0,0.4,0.4,0.7,1.2,0.9l1.3,0.4c1.4,0.4,2.1,1.2,2.1,2.4
			c0,0.8-0.3,1.5-0.9,2.1c-0.6,0.5-1.5,0.8-2.8,0.8c-1.3,0-2.3-0.2-3-0.5c0-0.1,0-0.2,0-0.4c0-0.6,0.1-1.2,0.4-1.7h1.4
			c0.1,0.3,0.2,0.6,0.3,0.8c0.2,0.1,0.5,0.1,1,0.1c1,0,1.5-0.3,1.5-0.9c0-0.2-0.1-0.3-0.2-0.5s-0.4-0.2-0.8-0.3l-1.3-0.4
			c-0.7-0.2-1.2-0.5-1.6-0.9c-0.4-0.4-0.6-0.9-0.6-1.7s0.3-1.4,0.9-1.8c0.6-0.5,1.5-0.7,2.6-0.7s2.1,0.2,2.8,0.5c0,0.1,0,0.2,0,0.3
			c0,0.6-0.1,1.1-0.4,1.6h-1.4c-0.1-0.3-0.2-0.5-0.3-0.8C938.1,4283.9,937.8,4283.9,937.5,4283.9z"/>
		<path class="st7" d="M944.8,4280.4v2.1h2.4v1.4h-2.4v4.3c0,0.4,0.1,0.6,0.2,0.8c0.1,0.2,0.3,0.2,0.7,0.2c0.4,0,0.8-0.1,1.2-0.3
			l0.5,1.3c-0.9,0.4-1.8,0.7-2.7,0.7c-0.9,0-1.5-0.2-1.9-0.6c-0.3-0.4-0.5-1-0.5-1.7v-4.8h-0.8l-0.2-1c0.2-0.2,0.6-0.4,1.1-0.6
			c0.1-0.9,0.5-1.6,1-1.9H944.8z"/>
		<path class="st7" d="M948.4,4283.8c0-0.2,0-0.4,0-0.5c1.1-0.6,2.2-0.8,3.4-0.8c1.2,0,2.1,0.2,2.6,0.7c0.5,0.5,0.8,1.2,0.8,2.3v3.6
			c0.4,0.1,0.7,0.2,0.9,0.3v1.5c-0.6,0.3-1.4,0.4-2.5,0.4c-0.1-0.3-0.2-0.7-0.3-1.1c-0.5,0.7-1.4,1.1-2.7,1.1
			c-0.8,0-1.4-0.2-1.9-0.7c-0.5-0.4-0.8-1-0.8-1.8c0-0.8,0.3-1.4,0.8-1.8c0.5-0.4,1.3-0.7,2.3-0.7h1.9v-0.8c0-0.9-0.5-1.3-1.4-1.3
			c-0.4,0-0.6,0-0.9,0.1c0,0.5-0.1,0.8-0.2,1.1h-1.7C948.5,4284.9,948.4,4284.4,948.4,4283.8z M951.4,4289.4c0.6,0,1-0.2,1.4-0.5
			v-1.4h-1.2c-0.8,0-1.2,0.3-1.2,0.9c0,0.3,0.1,0.5,0.3,0.7C950.8,4289.3,951.1,4289.4,951.4,4289.4z"/>
		<path class="st7" d="M956.9,4282.5c0.6-0.1,1.2-0.2,1.7-0.2c0.5,0,0.9,0,1.2,0v0.8c0.3-0.2,0.7-0.4,1.1-0.6
			c0.5-0.2,0.9-0.2,1.4-0.2c1.1,0,1.9,0.3,2.3,0.8c0.4,0.5,0.7,1.4,0.7,2.7v3.3c0.4,0.2,0.8,0.4,0.9,0.6l-0.2,1.3h-3.9l-0.2-1.3
			c0.2-0.2,0.5-0.4,0.9-0.6v-3.4c0-0.6-0.1-1-0.3-1.2c-0.2-0.2-0.6-0.3-1.1-0.3c-0.5,0-1,0.2-1.5,0.5v4.4c0.4,0.2,0.8,0.4,0.9,0.6
			l-0.2,1.3h-3.9l-0.2-1.3c0.2-0.2,0.5-0.4,0.9-0.6v-4.7c-0.4-0.1-0.7-0.3-0.9-0.6L956.9,4282.5z"/>
		<path class="st7" d="M970.9,4284.1c-1,0-1.6,0.9-1.6,2.7c0,0.9,0.1,1.5,0.4,1.9c0.3,0.4,0.7,0.5,1.2,0.5c0.9,0,1.6-0.1,2.3-0.2
			l0.5,1.3c-0.4,0.2-0.9,0.4-1.5,0.6c-0.6,0.2-1.2,0.2-1.8,0.2c-2.4,0-3.7-1.4-3.7-4.2c0-1.7,0.4-2.8,1.3-3.6c0.8-0.6,1.7-1,2.8-1
			c1.1,0,2,0.2,2.7,0.6c0,0.1,0,0.2,0,0.3c0,0.6-0.1,1.3-0.4,1.8h-1.5c-0.2-0.3-0.3-0.6-0.3-1
			C971.3,4284.1,971.1,4284.1,970.9,4284.1z"/>
		<path class="st7" d="M978.6,4291.1c-1.4,0-2.4-0.4-3.1-1.1c-0.7-0.7-1-1.8-1-3.2c0-0.8,0.1-1.6,0.4-2.2c0.2-0.6,0.6-1.1,1-1.4
			c0.8-0.6,1.7-1,2.8-1c1.1,0,1.9,0.3,2.4,0.8c0.6,0.5,0.8,1.5,0.8,2.9c0,0.8-0.4,1.2-1.2,1.2H977c0,0.7,0.2,1.2,0.6,1.5
			c0.3,0.3,0.8,0.4,1.5,0.4c0.4,0,0.8,0,1.1-0.1c0.4-0.1,0.6-0.2,0.8-0.3l0.2-0.1l0.5,1.4c-0.1,0.1-0.2,0.2-0.3,0.3
			c-0.1,0.1-0.5,0.3-1,0.5C979.9,4291,979.3,4291.1,978.6,4291.1z M979.7,4285.8c0-0.2,0-0.4,0-0.6s-0.1-0.5-0.3-0.7
			s-0.5-0.4-0.9-0.4s-0.8,0.1-1,0.4c-0.2,0.3-0.4,0.7-0.5,1.4L979.7,4285.8z"/>
	</g>
	<g class="st6">
		<path class="st7" d="M930.4,4298.1c-0.4-0.1-0.8-0.2-1.2-0.2s-0.8,0.1-1,0.3c-0.3,0.2-0.4,0.5-0.4,0.9s0.1,0.7,0.3,0.9
			c0.2,0.2,0.6,0.4,1.1,0.6l1.5,0.4c0.8,0.2,1.5,0.6,1.9,1.1s0.7,1.2,0.7,2.2c0,1.2-0.4,2.1-1.2,2.7c-0.8,0.7-1.9,1-3.1,1
			c-0.7,0-1.4-0.1-2.1-0.3c-0.7-0.2-1.3-0.4-1.8-0.7c0-0.1,0-0.2,0-0.4s0-0.5,0.1-1s0.2-0.8,0.3-1.1h1.6c0.2,0.4,0.3,0.8,0.3,1.4
			c0.4,0.2,0.9,0.3,1.4,0.3c0.5,0,1-0.1,1.3-0.4s0.5-0.6,0.5-1.1c0-0.2,0-0.4-0.1-0.5s-0.1-0.3-0.3-0.5s-0.4-0.3-0.8-0.4l-1.8-0.5
			c-1.8-0.5-2.7-1.6-2.7-3.4c0-1,0.4-1.9,1.1-2.5c0.7-0.6,1.7-0.9,2.9-0.9s2.4,0.3,3.5,0.8c0,0.1,0,0.2,0,0.4c0,0.2,0,0.5-0.1,1
			s-0.2,0.8-0.3,1.1h-1.6C930.6,4299.2,930.4,4298.7,930.4,4298.1z"/>
		<path class="st7" d="M938.3,4308.1c-1.4,0-2.4-0.4-3.1-1.1c-0.7-0.7-1-1.8-1-3.2c0-0.8,0.1-1.6,0.4-2.2c0.2-0.6,0.6-1.1,1-1.4
			c0.8-0.6,1.7-1,2.8-1c1.1,0,1.9,0.3,2.4,0.8c0.6,0.5,0.8,1.5,0.8,2.9c0,0.8-0.4,1.2-1.2,1.2h-3.7c0,0.7,0.2,1.2,0.6,1.5
			c0.3,0.3,0.8,0.4,1.5,0.4c0.4,0,0.8,0,1.1-0.1c0.4-0.1,0.6-0.2,0.8-0.3l0.2-0.1l0.5,1.4c-0.1,0.1-0.2,0.2-0.3,0.3
			c-0.1,0.1-0.5,0.3-1,0.5C939.6,4308,939,4308.1,938.3,4308.1z M939.4,4302.8c0-0.2,0-0.4,0-0.6s-0.1-0.5-0.3-0.7s-0.5-0.4-0.9-0.4
			s-0.8,0.1-1,0.4c-0.2,0.3-0.4,0.7-0.5,1.4L939.4,4302.8z"/>
		<path class="st7" d="M942.6,4299.5c0.6-0.1,1.2-0.2,1.7-0.2c0.5,0,0.9,0,1.2,0v0.8c0.3-0.2,0.7-0.4,1.1-0.6
			c0.5-0.2,0.9-0.2,1.4-0.2c1.1,0,1.9,0.3,2.3,0.8c0.4,0.5,0.7,1.4,0.7,2.7v3.3c0.4,0.2,0.8,0.4,0.9,0.6l-0.2,1.3h-3.9l-0.2-1.3
			c0.2-0.2,0.5-0.4,0.9-0.6v-3.4c0-0.6-0.1-1-0.3-1.2s-0.6-0.3-1.1-0.3s-1,0.2-1.5,0.5v4.4c0.4,0.2,0.8,0.4,0.9,0.6l-0.2,1.3h-3.9
			l-0.2-1.3c0.2-0.2,0.5-0.4,0.9-0.6v-4.7c-0.4-0.1-0.7-0.3-0.9-0.6L942.6,4299.5z"/>
		<path class="st7" d="M955.9,4300.9c-0.7,0-1.1,0.2-1.1,0.7c0,0.4,0.4,0.7,1.2,0.9l1.3,0.4c1.4,0.4,2.1,1.2,2.1,2.4
			c0,0.8-0.3,1.5-0.9,2.1c-0.6,0.5-1.5,0.8-2.8,0.8c-1.3,0-2.3-0.2-3-0.5c0-0.1,0-0.2,0-0.4c0-0.6,0.1-1.2,0.4-1.7h1.4
			c0.1,0.3,0.2,0.6,0.3,0.8c0.2,0.1,0.5,0.1,1,0.1c1,0,1.5-0.3,1.5-0.9c0-0.2-0.1-0.3-0.2-0.5s-0.4-0.2-0.8-0.3l-1.3-0.4
			c-0.7-0.2-1.2-0.5-1.6-0.9c-0.4-0.4-0.6-0.9-0.6-1.7s0.3-1.4,0.9-1.8c0.6-0.5,1.5-0.7,2.6-0.7s2.1,0.2,2.8,0.5c0,0.1,0,0.2,0,0.3
			c0,0.6-0.1,1.1-0.4,1.6h-1.4c-0.1-0.3-0.2-0.5-0.3-0.8C956.6,4300.9,956.3,4300.9,955.9,4300.9z"/>
		<path class="st7" d="M964.1,4308.1c-1.3,0-2.3-0.4-3-1.1c-0.6-0.7-1-1.8-1-3.2c0-1.4,0.4-2.5,1.1-3.3c0.7-0.8,1.8-1.1,3.1-1.1
			s2.3,0.3,3,1c0.7,0.7,1,1.7,1,3.2c0,1.4-0.4,2.6-1.1,3.4S965.5,4308.1,964.1,4308.1z M962.6,4303.7c0,1.8,0.5,2.7,1.6,2.7
			c0.6,0,1-0.2,1.2-0.6c0.3-0.4,0.4-1.1,0.4-2c0-1.8-0.6-2.7-1.7-2.7c-0.5,0-0.9,0.2-1.2,0.6S962.6,4302.7,962.6,4303.7z"/>
		<path class="st7" d="M974.3,4301.6c-0.9,0-1.5,0.2-1.8,0.5v3.9c0.9,0.2,1.5,0.4,1.9,0.7l-0.2,1.3h-4.9l-0.2-1.3
			c0.2-0.2,0.5-0.4,0.9-0.6v-4.7c-0.4-0.1-0.7-0.3-0.9-0.6l0.2-1.3c0.6-0.1,1.2-0.2,1.7-0.2c0.5,0,0.9,0,1.2,0v1.1
			c0.3-0.3,0.6-0.6,1-0.8s0.8-0.3,1.1-0.3c0.3,0,0.6,0,0.7,0.1l-0.1,2.2C974.8,4301.6,974.6,4301.6,974.3,4301.6z"/>
	</g>
	<g class="st6">
		<path class="st1" d="M762.5,4158.3l0.2,1.4c-0.2,0.2-0.5,0.4-0.9,0.6v7.8c0.5,0.2,0.8,0.4,0.9,0.6l-0.2,1.4h-4l-0.2-1.4
			c0.1-0.2,0.5-0.4,0.9-0.6v-7.8c-0.5-0.2-0.8-0.4-0.9-0.6l0.2-1.4H762.5z"/>
		<path class="st1" d="M767.9,4158.1c2.4,0,3.7,1,3.7,3c0,0.4-0.1,0.9-0.3,1.4c-0.2,0.5-0.5,0.9-0.8,1.2l-2.5,3
			c-0.4,0.4-0.8,0.9-1.3,1.3l-0.3,0.2l0.1,0.2c0.5-0.1,1.1-0.2,1.7-0.2h1.3c0.1-0.6,0.2-1.1,0.4-1.5l1.6,0.1
			c0.2,0.4,0.4,1.1,0.4,2.1c0,0.4,0,0.8-0.1,1.1H764l-0.4-2.1l4.2-4.6c0.8-0.9,1.2-1.7,1.2-2.5c0-0.4-0.1-0.7-0.3-0.9
			c-0.2-0.2-0.6-0.3-1.1-0.3s-1,0.1-1.3,0.2c-0.1,0.8-0.2,1.4-0.4,1.6l-1.5-0.1c-0.2-0.4-0.3-1-0.4-1.9c0-0.2,0-0.3,0-0.4
			C765.1,4158.5,766.4,4158.1,767.9,4158.1z"/>
		<path class="st1" d="M779.3,4160.3c-0.3-0.1-0.8-0.2-1.5-0.2c-0.7,0-1.2,0.3-1.6,0.9c-0.4,0.6-0.6,1.6-0.6,3.1s0.2,2.5,0.6,3.1
			c0.4,0.6,1,0.9,1.8,0.9c1.2,0,2.3-0.2,3.3-0.5l0.6,1.5c-1.2,0.7-2.6,1.1-4.2,1.1c-1.6,0-2.8-0.5-3.5-1.4s-1.1-2.4-1.1-4.5
			c0-2.1,0.4-3.6,1.3-4.6s2.1-1.5,3.7-1.5c1.3,0,2.5,0.4,3.7,1.1c0,0.1,0,0.2,0,0.4c0,0.2,0,0.5-0.1,1s-0.2,0.8-0.3,1.1h-1.6
			C779.5,4161.4,779.4,4160.9,779.3,4160.3z"/>
	</g>
	<g class="st6">
		<path class="st7" d="M928,3933.3v2.4l-1.1,0.1c-0.1-0.1-0.3-0.4-0.4-0.7h-2v7.9c0.5,0.2,0.8,0.4,0.9,0.6l-0.2,1.4h-4l-0.2-1.4
			c0.1-0.2,0.5-0.4,0.9-0.6v-7.9h-2c-0.1,0.4-0.3,0.6-0.4,0.7l-1.1-0.1v-2.4H928z"/>
		<path class="st7" d="M928.6,3932.9c0.6-0.1,1.2-0.2,1.8-0.2c0.5,0,1,0,1.4,0.1v4.2c0.3-0.2,0.6-0.3,1.1-0.5
			c0.5-0.1,0.9-0.2,1.2-0.2c1.1,0,1.9,0.3,2.3,0.8s0.6,1.4,0.6,2.5v3.5c0.4,0.2,0.8,0.4,0.9,0.6l-0.2,1.3h-3.9l-0.2-1.3
			c0.2-0.2,0.5-0.4,0.9-0.6v-3.4c0-0.6-0.1-1-0.3-1.2s-0.6-0.3-1.1-0.3c-0.5,0-1,0.2-1.5,0.5v4.4c0.4,0.2,0.8,0.4,0.9,0.6l-0.2,1.3
			h-3.9l-0.2-1.3c0.2-0.2,0.5-0.4,0.9-0.6v-8.3c-0.4-0.1-0.7-0.3-0.9-0.6L928.6,3932.9z"/>
		<path class="st7" d="M943.6,3938.6c-0.9,0-1.5,0.2-1.8,0.5v3.9c0.9,0.2,1.5,0.4,1.9,0.7l-0.2,1.3h-4.9l-0.2-1.3
			c0.2-0.2,0.5-0.4,0.9-0.6v-4.7c-0.4-0.1-0.7-0.3-0.9-0.6l0.2-1.3c0.6-0.1,1.2-0.2,1.7-0.2c0.5,0,0.9,0,1.2,0v1.1
			c0.3-0.3,0.6-0.6,1-0.8c0.4-0.2,0.8-0.3,1.1-0.3c0.3,0,0.6,0,0.7,0.1l-0.1,2.2C944.1,3938.6,943.9,3938.6,943.6,3938.6z"/>
		<path class="st7" d="M951.4,3944.3c-0.8,0.6-1.7,0.8-2.8,0.8s-1.8-0.2-2.2-0.7c-0.4-0.4-0.6-1.2-0.6-2.2v-3.9
			c-0.4-0.1-0.7-0.3-0.9-0.6l0.2-1.3c0.6-0.1,1.2-0.2,1.8-0.2s1,0,1.4,0.1v5.4c0,0.6,0.1,1,0.3,1.2c0.2,0.2,0.6,0.3,1.1,0.3
			c0.6,0,1.1-0.2,1.5-0.5v-4.3c-0.4-0.1-0.7-0.3-0.9-0.6l0.2-1.3c0.6-0.1,1.2-0.2,1.8-0.2s1,0,1.4,0.1v6.6c0.4,0.1,0.7,0.2,0.9,0.3
			v1.3c-0.7,0.4-1.5,0.5-2.6,0.5C951.6,3944.9,951.4,3944.6,951.4,3944.3z"/>
		<path class="st7" d="M954.8,3932.9c0.6-0.1,1.2-0.2,1.8-0.2s1,0,1.4,0.1v4.2c0.2-0.2,0.6-0.3,1-0.5s0.8-0.2,1.1-0.2
			c1.2,0,2.1,0.3,2.6,1c0.5,0.6,0.7,1.7,0.7,3.2c0,0.8-0.1,1.6-0.3,2.2s-0.5,1.1-0.9,1.4c-0.7,0.6-1.6,1-2.7,1
			c-0.8,0-1.5-0.2-2.3-0.6c-0.2,0.3-0.5,0.4-0.7,0.4h-0.9v-10.2c-0.4-0.1-0.7-0.3-0.9-0.6L954.8,3932.9z M959.3,3943.4
			c1.1,0,1.6-0.9,1.6-2.7c0-1-0.1-1.6-0.3-2c-0.2-0.3-0.5-0.5-1-0.5c-0.7,0-1.3,0.2-1.7,0.6v4.4
			C958.4,3943.3,958.8,3943.4,959.3,3943.4z"/>
		<path class="st7" d="M968.3,3945.1c-1.4,0-2.4-0.4-3.1-1.1c-0.7-0.7-1-1.8-1-3.2c0-0.8,0.1-1.6,0.4-2.2c0.2-0.6,0.6-1.1,1-1.4
			c0.8-0.6,1.7-1,2.8-1c1.1,0,1.9,0.3,2.4,0.8c0.6,0.5,0.8,1.5,0.8,2.9c0,0.8-0.4,1.2-1.2,1.2h-3.7c0,0.7,0.2,1.2,0.6,1.5
			c0.3,0.3,0.8,0.4,1.5,0.4c0.4,0,0.8,0,1.1-0.1c0.4-0.1,0.6-0.2,0.8-0.3l0.2-0.1l0.5,1.4c-0.1,0.1-0.2,0.2-0.3,0.3
			c-0.1,0.1-0.5,0.3-1,0.5C969.6,3945,969,3945.1,968.3,3945.1z M969.4,3939.8c0-0.2,0-0.4,0-0.6s-0.1-0.5-0.3-0.7s-0.5-0.4-0.9-0.4
			s-0.8,0.1-1,0.4c-0.2,0.3-0.4,0.7-0.5,1.4L969.4,3939.8z"/>
		<path class="st7" d="M972.8,3937.8c0-0.2,0-0.4,0-0.5c1.1-0.6,2.2-0.8,3.4-0.8s2.1,0.2,2.6,0.7c0.5,0.5,0.8,1.2,0.8,2.3v3.6
			c0.4,0.1,0.7,0.2,0.9,0.3v1.5c-0.6,0.3-1.4,0.4-2.5,0.4c-0.1-0.3-0.2-0.7-0.3-1.1c-0.5,0.7-1.4,1.1-2.7,1.1
			c-0.8,0-1.4-0.2-1.9-0.7c-0.5-0.4-0.8-1-0.8-1.8c0-0.8,0.3-1.4,0.8-1.8c0.5-0.4,1.3-0.7,2.3-0.7h1.9v-0.8c0-0.9-0.5-1.3-1.4-1.3
			c-0.4,0-0.6,0-0.9,0.1c0,0.5-0.1,0.8-0.2,1.1h-1.7C972.9,3938.9,972.8,3938.4,972.8,3937.8z M975.9,3943.4c0.6,0,1-0.2,1.4-0.5
			v-1.4H976c-0.8,0-1.2,0.3-1.2,0.9c0,0.3,0.1,0.5,0.3,0.7C975.3,3943.3,975.5,3943.4,975.9,3943.4z"/>
		<path class="st7" d="M981.3,3936.5c0.6-0.1,1.2-0.2,1.7-0.2c0.5,0,0.9,0,1.2,0v0.8c0.3-0.2,0.6-0.4,1-0.6c0.4-0.2,0.8-0.2,1.1-0.2
			c1.3,0,2.2,0.3,2.6,1c0.3-0.3,0.7-0.5,1.1-0.7c0.5-0.2,0.9-0.3,1.3-0.3c1.2,0,2.1,0.3,2.5,0.8c0.4,0.6,0.6,1.6,0.6,3.2v2.8
			c0.4,0.2,0.8,0.4,0.9,0.6l-0.2,1.3h-3.9l-0.2-1.3c0.2-0.2,0.5-0.4,0.9-0.6v-3.4c0-0.6-0.1-1-0.3-1.2s-0.5-0.3-1-0.3
			c-0.5,0-1,0.2-1.4,0.6c0.1,0.4,0.1,0.9,0.1,1.6v2.8c0.4,0.2,0.8,0.4,0.9,0.6l-0.2,1.3h-3.9l-0.2-1.3c0.2-0.2,0.5-0.4,0.9-0.6v-3.4
			c0-0.6-0.1-1-0.3-1.2s-0.5-0.3-1-0.3c-0.5,0-1,0.2-1.4,0.5v4.4c0.4,0.2,0.8,0.4,0.9,0.6l-0.2,1.3h-3.9l-0.2-1.3
			c0.2-0.2,0.5-0.4,0.9-0.6v-4.7c-0.4-0.1-0.7-0.3-0.9-0.6L981.3,3936.5z"/>
	</g>
	<g class="st6">
		<path class="st7" d="M937.4,3952.1c-0.4-0.1-0.8-0.2-1.2-0.2s-0.8,0.1-1,0.3c-0.3,0.2-0.4,0.5-0.4,0.9s0.1,0.7,0.3,0.9
			c0.2,0.2,0.6,0.4,1.1,0.6l1.5,0.4c0.8,0.2,1.5,0.6,1.9,1.1s0.7,1.2,0.7,2.2c0,1.2-0.4,2.1-1.2,2.7c-0.8,0.7-1.9,1-3.1,1
			c-0.7,0-1.4-0.1-2.1-0.3c-0.7-0.2-1.3-0.4-1.8-0.7c0-0.1,0-0.2,0-0.4s0-0.5,0.1-1s0.2-0.8,0.3-1.1h1.6c0.2,0.4,0.3,0.8,0.3,1.4
			c0.4,0.2,0.9,0.3,1.4,0.3c0.5,0,1-0.1,1.3-0.4s0.5-0.6,0.5-1.1c0-0.2,0-0.4-0.1-0.5s-0.1-0.3-0.3-0.5s-0.4-0.3-0.8-0.4l-1.8-0.5
			c-1.8-0.5-2.7-1.6-2.7-3.4c0-1,0.4-1.9,1.1-2.5c0.7-0.6,1.7-0.9,2.9-0.9s2.4,0.3,3.5,0.8c0,0.1,0,0.2,0,0.4c0,0.2,0,0.5-0.1,1
			s-0.2,0.8-0.3,1.1h-1.6C937.6,3953.2,937.4,3952.7,937.4,3952.1z"/>
		<path class="st7" d="M945.3,3962.1c-1.4,0-2.4-0.4-3.1-1.1c-0.7-0.7-1-1.8-1-3.2c0-0.8,0.1-1.6,0.4-2.2c0.2-0.6,0.6-1.1,1-1.4
			c0.8-0.6,1.7-1,2.8-1c1.1,0,1.9,0.3,2.4,0.8c0.6,0.5,0.8,1.5,0.8,2.9c0,0.8-0.4,1.2-1.2,1.2h-3.7c0,0.7,0.2,1.2,0.6,1.5
			c0.3,0.3,0.8,0.4,1.5,0.4c0.4,0,0.8,0,1.1-0.1c0.4-0.1,0.6-0.2,0.8-0.3l0.2-0.1l0.5,1.4c-0.1,0.1-0.2,0.2-0.3,0.3
			c-0.1,0.1-0.5,0.3-1,0.5C946.6,3962,946,3962.1,945.3,3962.1z M946.4,3956.8c0-0.2,0-0.4,0-0.6s-0.1-0.5-0.3-0.7s-0.5-0.4-0.9-0.4
			s-0.8,0.1-1,0.4c-0.2,0.3-0.4,0.7-0.5,1.4L946.4,3956.8z"/>
		<path class="st7" d="M949.6,3953.5c0.6-0.1,1.2-0.2,1.7-0.2c0.5,0,0.9,0,1.2,0v0.8c0.3-0.2,0.7-0.4,1.1-0.6
			c0.5-0.2,0.9-0.2,1.4-0.2c1.1,0,1.9,0.3,2.3,0.8c0.4,0.5,0.7,1.4,0.7,2.7v3.3c0.4,0.2,0.8,0.4,0.9,0.6l-0.2,1.3h-3.9l-0.2-1.3
			c0.2-0.2,0.5-0.4,0.9-0.6v-3.4c0-0.6-0.1-1-0.3-1.2s-0.6-0.3-1.1-0.3s-1,0.2-1.5,0.5v4.4c0.4,0.2,0.8,0.4,0.9,0.6l-0.2,1.3h-3.9
			l-0.2-1.3c0.2-0.2,0.5-0.4,0.9-0.6v-4.7c-0.4-0.1-0.7-0.3-0.9-0.6L949.6,3953.5z"/>
		<path class="st7" d="M962.9,3954.9c-0.7,0-1.1,0.2-1.1,0.7c0,0.4,0.4,0.7,1.2,0.9l1.3,0.4c1.4,0.4,2.1,1.2,2.1,2.4
			c0,0.8-0.3,1.5-0.9,2.1c-0.6,0.5-1.5,0.8-2.8,0.8c-1.3,0-2.3-0.2-3-0.5c0-0.1,0-0.2,0-0.4c0-0.6,0.1-1.2,0.4-1.7h1.4
			c0.1,0.3,0.2,0.6,0.3,0.8c0.2,0.1,0.5,0.1,1,0.1c1,0,1.5-0.3,1.5-0.9c0-0.2-0.1-0.3-0.2-0.5s-0.4-0.2-0.8-0.3l-1.3-0.4
			c-0.7-0.2-1.2-0.5-1.6-0.9c-0.4-0.4-0.6-0.9-0.6-1.7s0.3-1.4,0.9-1.8c0.6-0.5,1.5-0.7,2.6-0.7s2.1,0.2,2.8,0.5c0,0.1,0,0.2,0,0.3
			c0,0.6-0.1,1.1-0.4,1.6h-1.4c-0.1-0.3-0.2-0.5-0.3-0.8C963.6,3954.9,963.3,3954.9,962.9,3954.9z"/>
		<path class="st7" d="M971.1,3962.1c-1.3,0-2.3-0.4-3-1.1c-0.6-0.7-1-1.8-1-3.2c0-1.4,0.4-2.5,1.1-3.3c0.7-0.8,1.8-1.1,3.1-1.1
			s2.3,0.3,3,1c0.7,0.7,1,1.7,1,3.2c0,1.4-0.4,2.6-1.1,3.4S972.5,3962.1,971.1,3962.1z M969.6,3957.7c0,1.8,0.5,2.7,1.6,2.7
			c0.6,0,1-0.2,1.2-0.6c0.3-0.4,0.4-1.1,0.4-2c0-1.8-0.6-2.7-1.7-2.7c-0.5,0-0.9,0.2-1.2,0.6S969.6,3956.7,969.6,3957.7z"/>
		<path class="st7" d="M981.3,3955.6c-0.9,0-1.5,0.2-1.8,0.5v3.9c0.9,0.2,1.5,0.4,1.9,0.7l-0.2,1.3h-4.9l-0.2-1.3
			c0.2-0.2,0.5-0.4,0.9-0.6v-4.7c-0.4-0.1-0.7-0.3-0.9-0.6l0.2-1.3c0.6-0.1,1.2-0.2,1.7-0.2c0.5,0,0.9,0,1.2,0v1.1
			c0.3-0.3,0.6-0.6,1-0.8s0.8-0.3,1.1-0.3c0.3,0,0.6,0,0.7,0.1l-0.1,2.2C981.8,3955.6,981.6,3955.6,981.3,3955.6z"/>
	</g>
	<g class="st6">
		<path class="st7" d="M919.3,3969h-1.6c-0.1,0.6-0.2,1.1-0.4,1.5l-1.6-0.1c-0.2-0.4-0.4-1.1-0.4-2c0-0.4,0-0.7,0.1-1.1h8.3l0.2,1.3
			l-4.9,7.4c-0.3,0.5-0.6,0.9-1,1.1l-0.2,0.1l0.1,0.2c0.5-0.1,1.1-0.2,1.7-0.2h2.1c0.1-0.6,0.2-1.1,0.4-1.5l1.6,0.1
			c0.2,0.4,0.4,1.1,0.4,2c0,0.4,0,0.7-0.1,1.1h-8.8l-0.2-1.3l4.9-7.4c0.3-0.5,0.6-0.8,1-1.1l0.2-0.1l-0.1-0.2
			C920.4,3968.9,919.8,3969,919.3,3969z"/>
		<path class="st7" d="M929.1,3967.1c2.4,0,3.7,1,3.7,3c0,0.4-0.1,0.9-0.3,1.4c-0.2,0.5-0.5,0.9-0.8,1.2l-2.5,3
			c-0.4,0.4-0.8,0.9-1.3,1.3l-0.3,0.2l0.1,0.2c0.5-0.1,1.1-0.2,1.7-0.2h1.3c0.1-0.6,0.2-1.1,0.4-1.5l1.6,0.1
			c0.2,0.4,0.4,1.1,0.4,2.1c0,0.4,0,0.8-0.1,1.1h-7.8l-0.4-2.1l4.2-4.6c0.8-0.9,1.2-1.7,1.2-2.5c0-0.4-0.1-0.7-0.3-0.9
			c-0.2-0.2-0.6-0.3-1.1-0.3s-1,0.1-1.3,0.2c-0.1,0.8-0.2,1.4-0.4,1.6l-1.5-0.1c-0.2-0.4-0.3-1-0.4-1.9c0-0.2,0-0.3,0-0.4
			C926.2,3967.5,927.5,3967.1,929.1,3967.1z"/>
		<path class="st7" d="M943.3,3967.3v2.4l-1.1,0.1c-0.1-0.1-0.3-0.4-0.4-0.7h-2v7.9c0.5,0.2,0.8,0.4,0.9,0.6l-0.2,1.4h-4l-0.2-1.4
			c0.1-0.2,0.5-0.4,0.9-0.6v-7.9h-2c-0.1,0.4-0.3,0.6-0.4,0.7l-1.1-0.1v-2.4H943.3z"/>
		<path class="st7" d="M947.2,3975.3h-3.9l-0.2-1.1c0.4-0.4,0.9-0.6,1.5-0.6h3.9l0.2,1.1C948.3,3975.1,947.8,3975.3,947.2,3975.3z"
			/>
		<path class="st7" d="M953.9,3967.1c2.4,0,3.7,1,3.7,3c0,0.4-0.1,0.9-0.3,1.4c-0.2,0.5-0.5,0.9-0.8,1.2l-2.5,3
			c-0.4,0.4-0.8,0.9-1.3,1.3l-0.3,0.2l0.1,0.2c0.5-0.1,1.1-0.2,1.7-0.2h1.3c0.1-0.6,0.2-1.1,0.4-1.5l1.6,0.1
			c0.2,0.4,0.4,1.1,0.4,2.1c0,0.4,0,0.8-0.1,1.1H950l-0.4-2.1l4.2-4.6c0.8-0.9,1.2-1.7,1.2-2.5c0-0.4-0.1-0.7-0.3-0.9
			c-0.2-0.2-0.6-0.3-1.1-0.3s-1,0.1-1.3,0.2c-0.1,0.8-0.2,1.4-0.4,1.6l-1.5-0.1c-0.2-0.4-0.3-1-0.4-1.9c0-0.2,0-0.3,0-0.4
			C951,3967.5,952.3,3967.1,953.9,3967.1z"/>
		<path class="st7" d="M963.2,3979.1c-1.5,0-2.6-0.4-3.2-1.3c-0.6-0.9-0.9-2.4-0.9-4.6c0-2.1,0.3-3.7,1-4.7s1.8-1.4,3.3-1.4
			c1.5,0,2.6,0.4,3.2,1.3c0.6,0.8,0.9,2.3,0.9,4.5c0,2.1-0.3,3.7-1,4.7S964.7,3979.1,963.2,3979.1z M962,3969.6
			c-0.2,0.6-0.3,1.7-0.3,3.4c0,1.6,0.1,2.8,0.3,3.5c0.2,0.7,0.7,1,1.3,1c0.5,0,0.9-0.2,1.2-0.7c0.3-0.5,0.5-1.7,0.5-3.5
			s-0.1-3-0.3-3.7c-0.2-0.7-0.7-1-1.4-1C962.6,3968.7,962.2,3969,962,3969.6z"/>
		<path class="st7" d="M973,3979.1c-1.5,0-2.6-0.4-3.2-1.3c-0.6-0.9-0.9-2.4-0.9-4.6c0-2.1,0.3-3.7,1-4.7c0.7-1,1.8-1.4,3.3-1.4
			c1.5,0,2.6,0.4,3.2,1.3c0.6,0.8,0.9,2.3,0.9,4.5c0,2.1-0.3,3.7-1,4.7C975.6,3978.6,974.5,3979.1,973,3979.1z M971.8,3969.6
			c-0.2,0.6-0.3,1.7-0.3,3.4c0,1.6,0.1,2.8,0.3,3.5c0.2,0.7,0.7,1,1.3,1c0.5,0,0.9-0.2,1.2-0.7c0.3-0.5,0.5-1.7,0.5-3.5
			s-0.1-3-0.3-3.7s-0.7-1-1.4-1S972,3969,971.8,3969.6z"/>
		<path class="st7" d="M982.8,3979.1c-1.5,0-2.6-0.4-3.2-1.3s-0.9-2.4-0.9-4.6c0-2.1,0.3-3.7,1-4.7s1.8-1.4,3.3-1.4s2.6,0.4,3.2,1.3
			c0.6,0.8,0.9,2.3,0.9,4.5c0,2.1-0.3,3.7-1,4.7C985.4,3978.6,984.3,3979.1,982.8,3979.1z M981.6,3969.6c-0.2,0.6-0.3,1.7-0.3,3.4
			c0,1.6,0.1,2.8,0.3,3.5c0.2,0.7,0.7,1,1.3,1c0.5,0,0.9-0.2,1.2-0.7c0.3-0.5,0.5-1.7,0.5-3.5s-0.1-3-0.3-3.7s-0.7-1-1.4-1
			S981.8,3969,981.6,3969.6z"/>
		<path class="st7" d="M991.1,3972.6v4.5c0.4,0.2,0.7,0.4,0.9,0.6l-0.2,1.3h-3.3l-0.2-1.3c0.2-0.3,0.5-0.5,0.9-0.6v-7.9
			c-0.5-0.2-0.8-0.4-1-0.6l0.2-1.3h3.5l3.4,6.6c0.2,0.5,0.5,1.1,0.7,1.9l0.1,0.4l0.2-0.1c-0.2-1-0.2-1.8-0.2-2.5v-4.4
			c-0.4-0.2-0.7-0.4-0.9-0.6l0.2-1.3h3.3l0.2,1.3c-0.2,0.3-0.5,0.5-0.9,0.6v9.8h-2.7l-3.4-6.6c-0.2-0.5-0.5-1.1-0.7-1.9l-0.1-0.4
			l-0.2,0.1C991,3971.1,991.1,3971.9,991.1,3972.6z"/>
	</g>
	<g class="st6">
		<path class="st7" d="M1022.3,4057h-7.8l-0.2-1.4c0.1-0.2,0.5-0.4,0.9-0.6v-7.8c-0.5-0.2-0.8-0.4-0.9-0.6l0.2-1.4h4l0.2,1.4
			c-0.2,0.2-0.5,0.4-0.9,0.6v7.9h2.7c0.1-0.6,0.4-1,0.6-1.3l1.3,0.2V4057z"/>
		<path class="st7" d="M1031,4057h-7.9l-0.2-1.4c0.1-0.2,0.5-0.4,0.9-0.6v-7.8c-0.5-0.2-0.8-0.4-0.9-0.6l0.2-1.4h7.8v3l-1.3,0.2
			c-0.3-0.2-0.5-0.6-0.6-1.3h-2.7v2.9h2.4c0.1-0.3,0.3-0.6,0.4-0.7l1.1,0.1v3l-1.1,0.1c-0.1-0.1-0.3-0.4-0.4-0.7h-2.4v3.2h2.8
			c0.1-0.6,0.4-1,0.6-1.3l1.3,0.2V4057z"/>
		<path class="st7" d="M1036.6,4057h-4.3l-0.2-1.4c0.1-0.2,0.5-0.4,0.9-0.6v-7.8c-0.5-0.2-0.8-0.4-0.9-0.6l0.2-1.4h3.8
			c1.8,0,3.3,0.5,4.3,1.5c1.1,1,1.6,2.5,1.6,4.5s-0.5,3.4-1.5,4.3S1038.2,4057,1036.6,4057z M1035.4,4055.1h1.2c0.8,0,1.5-0.3,2-0.8
			c0.5-0.5,0.7-1.5,0.7-3c0-2.8-1.1-4.2-3.2-4.2h-0.8V4055.1z"/>
		<path class="st7" d="M1049.8,4045.2c0.3,0,0.6,0,0.9,0.1v0l0,0v9.8c0.5,0.2,0.8,0.4,0.9,0.6l-0.2,1.4h-4.4l-0.2-1.4
			c0.2-0.2,0.7-0.5,1.4-0.6v-7.4c-0.6-0.1-1.1-0.2-1.5-0.4v-1.3C1047.7,4045.4,1048.7,4045.2,1049.8,4045.2z"/>
	</g>
	<g class="st6">
		<path class="st7" d="M1020.7,4124h-7.8l-0.2-1.4c0.1-0.2,0.5-0.4,0.9-0.6v-7.8c-0.5-0.2-0.8-0.4-0.9-0.6l0.2-1.4h4l0.2,1.4
			c-0.2,0.2-0.5,0.4-0.9,0.6v7.9h2.7c0.1-0.6,0.4-1,0.6-1.3l1.3,0.2V4124z"/>
		<path class="st7" d="M1029.3,4124h-7.9l-0.2-1.4c0.1-0.2,0.5-0.4,0.9-0.6v-7.8c-0.5-0.2-0.8-0.4-0.9-0.6l0.2-1.4h7.8v3l-1.3,0.2
			c-0.3-0.2-0.5-0.6-0.6-1.3h-2.7v2.9h2.4c0.1-0.3,0.3-0.6,0.4-0.7l1.1,0.1v3l-1.1,0.1c-0.1-0.1-0.3-0.4-0.4-0.7h-2.4v3.2h2.8
			c0.1-0.6,0.4-1,0.6-1.3l1.3,0.2V4124z"/>
		<path class="st7" d="M1034.9,4124h-4.3l-0.2-1.4c0.1-0.2,0.5-0.4,0.9-0.6v-7.8c-0.5-0.2-0.8-0.4-0.9-0.6l0.2-1.4h3.8
			c1.8,0,3.3,0.5,4.3,1.5c1.1,1,1.6,2.5,1.6,4.5s-0.5,3.4-1.5,4.3C1037.9,4123.5,1036.6,4124,1034.9,4124z M1033.8,4122.1h1.2
			c0.8,0,1.5-0.3,2-0.8c0.5-0.5,0.7-1.5,0.7-3c0-2.8-1.1-4.2-3.2-4.2h-0.8V4122.1z"/>
		<path class="st7" d="M1049.3,4112.1c2.4,0,3.7,1,3.7,3c0,0.4-0.1,0.9-0.3,1.4c-0.2,0.5-0.5,0.9-0.8,1.2l-2.5,3
			c-0.4,0.4-0.8,0.9-1.3,1.3l-0.3,0.2l0.1,0.2c0.5-0.1,1.1-0.2,1.7-0.2h1.3c0.1-0.6,0.2-1.1,0.4-1.5l1.6,0.1
			c0.2,0.4,0.4,1.1,0.4,2.1c0,0.4,0,0.8-0.1,1.1h-7.8l-0.4-2.1l4.2-4.6c0.8-0.9,1.2-1.7,1.2-2.5c0-0.4-0.1-0.7-0.3-0.9
			c-0.2-0.2-0.6-0.3-1.1-0.3s-1,0.1-1.3,0.2c-0.1,0.8-0.2,1.4-0.4,1.6l-1.5-0.1c-0.2-0.4-0.3-1-0.4-1.9c0-0.2,0-0.3,0-0.4
			C1046.4,4112.5,1047.7,4112.1,1049.3,4112.1z"/>
	</g>
	<g class="st6">
		<path class="st7" d="M1020.9,4191h-7.8l-0.2-1.4c0.1-0.2,0.5-0.4,0.9-0.6v-7.8c-0.5-0.2-0.8-0.4-0.9-0.6l0.2-1.4h4l0.2,1.4
			c-0.2,0.2-0.5,0.4-0.9,0.6v7.9h2.7c0.1-0.6,0.4-1,0.6-1.3l1.3,0.2V4191z"/>
		<path class="st7" d="M1029.6,4191h-7.9l-0.2-1.4c0.1-0.2,0.5-0.4,0.9-0.6v-7.8c-0.5-0.2-0.8-0.4-0.9-0.6l0.2-1.4h7.8v3l-1.3,0.2
			c-0.3-0.2-0.5-0.6-0.6-1.3h-2.7v2.9h2.4c0.1-0.3,0.3-0.6,0.4-0.7l1.1,0.1v3l-1.1,0.1c-0.1-0.1-0.3-0.4-0.4-0.7h-2.4v3.2h2.8
			c0.1-0.6,0.4-1,0.6-1.3l1.3,0.2V4191z"/>
		<path class="st7" d="M1035.2,4191h-4.3l-0.2-1.4c0.1-0.2,0.5-0.4,0.9-0.6v-7.8c-0.5-0.2-0.8-0.4-0.9-0.6l0.2-1.4h3.8
			c1.8,0,3.3,0.5,4.3,1.5c1.1,1,1.6,2.5,1.6,4.5s-0.5,3.4-1.5,4.3C1038.2,4190.5,1036.8,4191,1035.2,4191z M1034,4189.1h1.2
			c0.9,0,1.5-0.3,2-0.8c0.5-0.5,0.7-1.5,0.7-3c0-2.8-1.1-4.2-3.2-4.2h-0.8V4189.1z"/>
		<path class="st7" d="M1045.6,4180.1c0-0.1,0-0.3,0-0.4c0.3-0.1,0.8-0.3,1.4-0.4c0.7-0.1,1.2-0.2,1.7-0.2s0.9,0,1.4,0.1
			c0.4,0.1,0.8,0.2,1.2,0.5c0.4,0.2,0.7,0.5,0.9,0.9c0.2,0.4,0.3,0.9,0.3,1.4s-0.2,1-0.5,1.4c-0.3,0.4-0.7,0.8-1.1,1v0.2
			c1.3,0.5,2,1.4,2,2.6s-0.5,2.2-1.4,2.9c-0.9,0.6-2.1,1-3.5,1c-0.5,0-1-0.1-1.5-0.2c-0.6-0.1-1-0.3-1.3-0.4l0.4-1.5
			c0.8,0.3,1.5,0.4,2.2,0.4c1.7,0,2.5-0.6,2.5-1.8c0-1.4-0.7-2-2-2c-0.5,0-1,0-1.5,0.1l-0.2-1.4l1.5-0.1c1.3-0.1,1.9-0.7,1.9-1.9
			c0-0.6-0.1-1-0.4-1.3c-0.3-0.3-0.7-0.4-1.2-0.4c-0.2,0-0.4,0-0.6,0.1c-0.1,0.6-0.2,1.1-0.4,1.4l-1.5-0.1
			C1045.7,4181.6,1045.6,4181,1045.6,4180.1z"/>
	</g>
	<g class="st6">
		<path class="st1" d="M461,3950.2c0.3,0,0.6,0,0.9,0.1v0l0,0v9.8c0.5,0.2,0.8,0.4,0.9,0.6l-0.2,1.4h-4.4l-0.2-1.4
			c0.2-0.2,0.7-0.5,1.4-0.6v-7.4c-0.6-0.1-1.1-0.2-1.5-0.4v-1.3C458.9,3950.4,459.9,3950.2,461,3950.2z"/>
		<path class="st1" d="M468.1,3950.1c2.4,0,3.7,1,3.7,3c0,0.4-0.1,0.9-0.3,1.4s-0.5,0.9-0.8,1.2l-2.5,3c-0.4,0.4-0.8,0.9-1.3,1.3
			l-0.3,0.2l0.1,0.2c0.5-0.1,1.1-0.2,1.7-0.2h1.3c0.1-0.6,0.2-1.1,0.4-1.5l1.6,0.1c0.2,0.4,0.4,1.1,0.4,2.1c0,0.4,0,0.8-0.1,1.1
			h-7.8l-0.4-2.1l4.2-4.6c0.8-0.9,1.2-1.7,1.2-2.5c0-0.4-0.1-0.7-0.3-0.9c-0.2-0.2-0.6-0.3-1.1-0.3s-1,0.1-1.3,0.2
			c-0.1,0.8-0.2,1.4-0.4,1.6l-1.5-0.1c-0.2-0.4-0.3-1-0.4-1.9c0-0.2,0-0.3,0-0.4C465.2,3950.5,466.5,3950.1,468.1,3950.1z"/>
		<path class="st1" d="M476.6,3962.1l-3.2-9.8c-0.5-0.2-0.8-0.4-1-0.6l0.2-1.4h4l0.2,1.4c-0.2,0.2-0.4,0.4-0.9,0.5l1.4,5
			c0.2,0.8,0.4,1.5,0.4,2.2l0,0.3h0.2c0-0.7,0.2-1.5,0.4-2.4l1.5-5c-0.4-0.1-0.7-0.3-0.9-0.6l0.2-1.4h3.9l0.2,1.4
			c-0.2,0.2-0.6,0.5-1.1,0.6l-3.2,9.8H476.6z"/>
		<path class="st1" d="M491.7,3957.9h-0.8v2c0.8,0.2,1.3,0.4,1.5,0.7l-0.2,1.4h-4.6l-0.2-1.4c0.1-0.2,0.5-0.4,0.9-0.6v-7.8
			c-0.5-0.2-0.8-0.4-0.9-0.6l0.2-1.4h4.5c1.6,0,2.8,0.3,3.5,0.9c0.8,0.5,1.2,1.5,1.2,2.9C496.9,3956.6,495.1,3957.9,491.7,3957.9z
			 M491.9,3952.1h-1v3.9h1.1c0.8,0,1.3-0.2,1.7-0.5c0.4-0.3,0.6-0.8,0.6-1.6s-0.2-1.3-0.6-1.5
			C493.3,3952.3,492.7,3952.1,491.9,3952.1z"/>
		<path class="st1" d="M501.5,3962.1c-1.3,0-2.3-0.4-3-1.1c-0.6-0.7-1-1.8-1-3.2c0-1.4,0.4-2.5,1.1-3.3c0.7-0.8,1.8-1.1,3.1-1.1
			s2.3,0.3,3,1c0.7,0.7,1,1.7,1,3.2c0,1.4-0.4,2.6-1.1,3.4C503.9,3961.7,502.8,3962.1,501.5,3962.1z M500,3957.7
			c0,1.8,0.5,2.7,1.6,2.7c0.6,0,1-0.2,1.2-0.6c0.3-0.4,0.4-1.1,0.4-2c0-1.8-0.6-2.7-1.7-2.7c-0.5,0-0.9,0.2-1.2,0.6
			C500.1,3956.1,500,3956.7,500,3957.7z"/>
		<path class="st1" d="M514.3,3962.1l-0.9-2.7c-0.2-0.5-0.3-1.2-0.4-2l-0.1-0.4h-0.2c-0.1,0.9-0.3,1.7-0.5,2.4l-0.8,2.7H509
			l-2.1-6.7c-0.5-0.2-0.8-0.4-1-0.6l0.2-1.3h4l0.2,1.3c-0.2,0.2-0.5,0.4-1,0.6l1,4.3h0.2c0.1-0.6,0.3-1.2,0.4-1.9l1.2-4.4h1.9
			l1.1,4.3l0.4,1.9h0.2c0.4-1.9,0.7-3.2,0.8-3.9l0.1-0.5c-0.5-0.2-0.8-0.4-1-0.6l0.2-1.3h3.8l0.2,1.3c-0.2,0.3-0.5,0.5-1.1,0.6
			l-2.1,6.6H514.3z"/>
		<path class="st1" d="M524.2,3962.1c-1.4,0-2.4-0.4-3.1-1.1c-0.7-0.7-1-1.8-1-3.2c0-0.8,0.1-1.6,0.4-2.2c0.2-0.6,0.6-1.1,1-1.4
			c0.8-0.6,1.7-1,2.8-1s1.9,0.3,2.4,0.8s0.8,1.5,0.8,2.9c0,0.8-0.4,1.2-1.2,1.2h-3.7c0,0.7,0.2,1.2,0.6,1.5c0.3,0.3,0.8,0.4,1.5,0.4
			c0.4,0,0.8,0,1.1-0.1c0.4-0.1,0.6-0.2,0.8-0.3l0.2-0.1l0.5,1.4c-0.1,0.1-0.2,0.2-0.3,0.3s-0.5,0.3-1,0.5
			S524.9,3962.1,524.2,3962.1z M525.3,3956.8c0-0.2,0-0.4,0-0.6s-0.1-0.5-0.3-0.7c-0.2-0.3-0.5-0.4-0.9-0.4c-0.4,0-0.8,0.1-1,0.4
			c-0.2,0.3-0.4,0.7-0.5,1.4L525.3,3956.8z"/>
		<path class="st1" d="M533.4,3955.6c-0.9,0-1.5,0.2-1.8,0.5v3.9c0.9,0.2,1.5,0.4,1.9,0.7l-0.2,1.3h-4.9l-0.2-1.3
			c0.2-0.2,0.5-0.4,0.9-0.6v-4.7c-0.4-0.1-0.7-0.3-0.9-0.6l0.2-1.3c0.6-0.1,1.2-0.2,1.7-0.2s0.9,0,1.2,0v1.1c0.3-0.3,0.6-0.6,1-0.8
			c0.4-0.2,0.8-0.3,1.1-0.3s0.6,0,0.7,0.1l-0.1,2.2C534,3955.6,533.7,3955.6,533.4,3955.6z"/>
	</g>
	<g class="st6">
		<path class="st7" d="M657.8,4160.1c-0.4-0.1-0.8-0.2-1.2-0.2c-0.4,0-0.8,0.1-1,0.3c-0.3,0.2-0.4,0.5-0.4,0.9s0.1,0.7,0.3,0.9
			c0.2,0.2,0.6,0.4,1.1,0.6l1.5,0.4c0.8,0.2,1.5,0.6,1.9,1.1c0.5,0.5,0.7,1.2,0.7,2.2c0,1.2-0.4,2.1-1.2,2.7c-0.8,0.7-1.9,1-3.1,1
			c-0.7,0-1.4-0.1-2.1-0.3c-0.7-0.2-1.3-0.4-1.8-0.7c0-0.1,0-0.2,0-0.4s0-0.5,0.1-1c0.1-0.5,0.2-0.8,0.3-1.1h1.6
			c0.2,0.4,0.3,0.8,0.3,1.4c0.4,0.2,0.9,0.3,1.4,0.3s1-0.1,1.3-0.4s0.5-0.6,0.5-1.1c0-0.2,0-0.4-0.1-0.5c0-0.1-0.1-0.3-0.3-0.5
			s-0.4-0.3-0.8-0.4l-1.8-0.5c-1.8-0.5-2.7-1.6-2.7-3.4c0-1,0.4-1.9,1.1-2.5c0.7-0.6,1.7-0.9,2.9-0.9s2.4,0.3,3.5,0.8
			c0,0.1,0,0.2,0,0.4c0,0.2,0,0.5-0.1,1c-0.1,0.5-0.2,0.8-0.3,1.1h-1.6C657.9,4161.2,657.8,4160.7,657.8,4160.1z"/>
		<path class="st7" d="M661.6,4161.5c0.6-0.1,1.2-0.2,1.7-0.2c0.5,0,0.9,0,1.2,0v0.8c0.8-0.5,1.6-0.8,2.4-0.8c1.1,0,2,0.3,2.5,1
			c0.5,0.6,0.8,1.7,0.8,3.2c0,0.8-0.1,1.5-0.4,2.1c-0.2,0.6-0.6,1.1-1,1.4c-0.8,0.7-1.7,1-2.8,1c-0.5,0-0.9,0-1.3-0.1v1.5
			c0.7,0.2,1.1,0.4,1.3,0.6l-0.2,1.3h-4.3l-0.2-1.3c0.1-0.2,0.5-0.4,0.9-0.6v-8.1c-0.4-0.1-0.7-0.3-0.9-0.6L661.6,4161.5z
			 M665.9,4168.4c0.6,0,1-0.3,1.3-0.8c0.3-0.5,0.5-1.2,0.5-2.1s-0.1-1.5-0.3-1.8c-0.2-0.3-0.5-0.5-1-0.5c-0.7,0-1.3,0.2-1.7,0.5v4.5
			C665.1,4168.4,665.5,4168.4,665.9,4168.4z"/>
		<path class="st7" d="M675.1,4170.1c-1.4,0-2.4-0.4-3.1-1.1c-0.7-0.7-1-1.8-1-3.2c0-0.8,0.1-1.6,0.4-2.2s0.6-1.1,1-1.4
			c0.8-0.6,1.7-1,2.8-1s1.9,0.3,2.4,0.8c0.6,0.5,0.8,1.5,0.8,2.9c0,0.8-0.4,1.2-1.2,1.2h-3.7c0,0.7,0.2,1.2,0.6,1.5
			c0.3,0.3,0.8,0.4,1.5,0.4c0.4,0,0.8,0,1.1-0.1c0.4-0.1,0.6-0.2,0.8-0.3l0.2-0.1l0.5,1.4c-0.1,0.1-0.2,0.2-0.3,0.3s-0.5,0.3-1,0.5
			C676.4,4170,675.8,4170.1,675.1,4170.1z M676.2,4164.8c0-0.2,0-0.4,0-0.6s-0.1-0.5-0.3-0.7c-0.2-0.3-0.5-0.4-0.9-0.4
			c-0.4,0-0.8,0.1-1,0.4c-0.2,0.3-0.4,0.7-0.5,1.4L676.2,4164.8z"/>
		<path class="st7" d="M679.6,4162.8c0-0.2,0-0.4,0-0.5c1.1-0.6,2.2-0.8,3.4-0.8c1.2,0,2.1,0.2,2.6,0.7c0.5,0.5,0.8,1.2,0.8,2.3v3.6
			c0.4,0.1,0.7,0.2,0.9,0.3v1.5c-0.6,0.3-1.4,0.4-2.5,0.4c-0.1-0.3-0.2-0.7-0.3-1.1c-0.5,0.7-1.4,1.1-2.7,1.1
			c-0.8,0-1.4-0.2-1.9-0.7c-0.5-0.4-0.8-1-0.8-1.8c0-0.8,0.3-1.4,0.8-1.8c0.5-0.4,1.3-0.7,2.3-0.7h1.9v-0.8c0-0.9-0.5-1.3-1.4-1.3
			c-0.4,0-0.6,0-0.9,0.1c0,0.5-0.1,0.8-0.2,1.1h-1.7C679.7,4163.9,679.6,4163.4,679.6,4162.8z M682.7,4168.4c0.6,0,1-0.2,1.4-0.5
			v-1.4h-1.2c-0.8,0-1.2,0.3-1.2,0.9c0,0.3,0.1,0.5,0.3,0.7C682.1,4168.3,682.3,4168.4,682.7,4168.4z"/>
		<path class="st7" d="M687.9,4157.9c0.6-0.1,1.2-0.2,1.8-0.2c0.5,0,1,0,1.4,0.1v10.4c0.4,0.2,0.8,0.4,0.9,0.6l-0.2,1.3h-3.9
			l-0.2-1.3c0.2-0.2,0.5-0.4,0.9-0.6v-8.3c-0.4-0.1-0.7-0.3-0.9-0.6L687.9,4157.9z M694.2,4170l-3-4.4l1.9-2.4
			c-0.2-0.1-0.3-0.2-0.4-0.4l0.2-1.3h3.7l0.2,1.3c-0.2,0.3-0.7,0.6-1.4,0.7l-1.6,1.9l1.9,2.5c0.7,0.2,1.2,0.4,1.5,0.7l-0.2,1.3
			H694.2z"/>
		<path class="st7" d="M701.7,4170.1c-1.4,0-2.4-0.4-3.1-1.1c-0.7-0.7-1-1.8-1-3.2c0-0.8,0.1-1.6,0.4-2.2c0.2-0.6,0.6-1.1,1-1.4
			c0.8-0.6,1.7-1,2.8-1s1.9,0.3,2.4,0.8c0.6,0.5,0.8,1.5,0.8,2.9c0,0.8-0.4,1.2-1.2,1.2h-3.7c0,0.7,0.2,1.2,0.6,1.5
			c0.3,0.3,0.8,0.4,1.5,0.4c0.4,0,0.8,0,1.1-0.1s0.6-0.2,0.8-0.3l0.2-0.1l0.5,1.4c-0.1,0.1-0.2,0.2-0.3,0.3s-0.5,0.3-1,0.5
			C703,4170,702.4,4170.1,701.7,4170.1z M702.8,4164.8c0-0.2,0-0.4,0-0.6s-0.1-0.5-0.3-0.7s-0.5-0.4-0.9-0.4s-0.8,0.1-1,0.4
			c-0.2,0.3-0.4,0.7-0.5,1.4L702.8,4164.8z"/>
		<path class="st7" d="M710.9,4163.6c-0.9,0-1.5,0.2-1.8,0.5v3.9c0.9,0.2,1.5,0.4,1.9,0.7l-0.2,1.3H706l-0.2-1.3
			c0.2-0.2,0.5-0.4,0.9-0.6v-4.7c-0.4-0.1-0.7-0.3-0.9-0.6l0.2-1.3c0.6-0.1,1.2-0.2,1.7-0.2c0.5,0,0.9,0,1.2,0v1.1
			c0.3-0.3,0.6-0.6,1-0.8s0.8-0.3,1.1-0.3c0.3,0,0.6,0,0.7,0.1l-0.1,2.2C711.4,4163.6,711.2,4163.6,710.9,4163.6z"/>
	</g>
	<g class="st6">
		<path class="st7" d="M680.3,4045.2l3.4,9.8c0.5,0.2,0.8,0.4,1,0.6l-0.2,1.4h-4l-0.2-1.4c0.1-0.2,0.4-0.4,0.8-0.5l-0.5-1.4h-3.4
			l-0.4,1.4c0.4,0.2,0.7,0.3,0.9,0.6l-0.2,1.4h-3.9l-0.2-1.4c0.2-0.3,0.6-0.5,1.1-0.6l3.3-9.8H680.3z M678.9,4047.6
			c0,0.7-0.1,1.5-0.4,2.4l-0.7,2.1h2.4l-0.6-2.1c-0.3-0.8-0.4-1.5-0.4-2.2l0-0.3H678.9z"/>
		<path class="st7" d="M690.2,4050.6c-0.9,0-1.5,0.2-1.8,0.5v3.9c0.9,0.2,1.5,0.4,1.9,0.7l-0.2,1.3h-4.9l-0.2-1.3
			c0.2-0.2,0.5-0.4,0.9-0.6v-4.7c-0.4-0.1-0.7-0.3-0.9-0.6l0.2-1.3c0.6-0.1,1.2-0.2,1.7-0.2c0.5,0,0.9,0,1.2,0v1.1
			c0.3-0.3,0.6-0.6,1-0.8c0.4-0.2,0.8-0.3,1.1-0.3c0.3,0,0.6,0,0.7,0.1l-0.1,2.2C690.7,4050.6,690.5,4050.6,690.2,4050.6z"/>
		<path class="st7" d="M696.1,4044.9c0.6-0.1,1.3-0.2,1.9-0.2c0.6,0,1.1,0,1.5,0.1v10.2c0.3,0.1,0.7,0.2,0.9,0.3v1.3
			c-0.7,0.4-1.5,0.5-2.6,0.5c-0.1-0.1-0.2-0.2-0.3-0.3s-0.2-0.3-0.2-0.4c-0.2,0.2-0.6,0.4-1,0.5s-0.8,0.2-1.2,0.2
			c-1.2,0-2.1-0.3-2.7-1c-0.5-0.7-0.8-1.7-0.8-3.3c0-1.7,0.4-2.9,1.3-3.6c0.7-0.6,1.6-0.9,2.7-0.9c0.5,0,1,0.1,1.4,0.2v-1.7
			c-0.5-0.1-0.9-0.4-1.2-0.6L696.1,4044.9z M695.6,4055.4c0.6,0,1.2-0.2,1.6-0.6v-4.6c-0.5-0.1-1-0.2-1.5-0.2
			c-0.5,0-0.9,0.2-1.1,0.7s-0.3,1.1-0.3,2.1s0.1,1.6,0.3,2C694.7,4055.2,695.1,4055.4,695.6,4055.4z"/>
		<path class="st7" d="M707.4,4056.3c-0.8,0.6-1.7,0.8-2.8,0.8c-1.1,0-1.8-0.2-2.2-0.7c-0.4-0.4-0.6-1.2-0.6-2.2v-3.9
			c-0.4-0.1-0.7-0.3-0.9-0.6l0.2-1.3c0.6-0.1,1.2-0.2,1.8-0.2s1,0,1.4,0.1v5.4c0,0.6,0.1,1,0.3,1.2c0.2,0.2,0.6,0.3,1.1,0.3
			c0.6,0,1.1-0.2,1.5-0.5v-4.3c-0.4-0.1-0.7-0.3-0.9-0.6l0.2-1.3c0.6-0.1,1.2-0.2,1.8-0.2c0.5,0,1,0,1.4,0.1v6.6
			c0.4,0.1,0.7,0.2,0.9,0.3v1.3c-0.7,0.4-1.5,0.5-2.6,0.5C707.6,4056.9,707.4,4056.6,707.4,4056.3z"/>
		<path class="st7" d="M711.3,4048.5c0.6-0.1,1.2-0.2,1.8-0.2s1,0,1.4,0.1v6.8c0.4,0.2,0.8,0.4,0.9,0.6l-0.2,1.3h-3.9l-0.2-1.3
			c0.2-0.2,0.5-0.4,0.9-0.6v-4.7c-0.4-0.1-0.7-0.3-0.9-0.6L711.3,4048.5z M713.3,4047.3c-0.9,0-1.4-0.4-1.4-1.3
			c0-0.9,0.5-1.3,1.4-1.3s1.4,0.4,1.4,1.3C714.7,4046.9,714.2,4047.3,713.3,4047.3z"/>
		<path class="st7" d="M716.3,4048.5c0.6-0.1,1.2-0.2,1.7-0.2c0.5,0,0.9,0,1.2,0v0.8c0.3-0.2,0.7-0.4,1.1-0.6
			c0.5-0.2,0.9-0.2,1.4-0.2c1.1,0,1.9,0.3,2.3,0.8c0.4,0.5,0.7,1.4,0.7,2.7v3.3c0.4,0.2,0.8,0.4,0.9,0.6l-0.2,1.3h-3.9l-0.2-1.3
			c0.2-0.2,0.5-0.4,0.9-0.6v-3.4c0-0.6-0.1-1-0.3-1.2c-0.2-0.2-0.6-0.3-1.1-0.3c-0.5,0-1,0.2-1.5,0.5v4.4c0.4,0.2,0.8,0.4,0.9,0.6
			l-0.2,1.3h-3.9l-0.2-1.3c0.2-0.2,0.5-0.4,0.9-0.6v-4.7c-0.4-0.1-0.7-0.3-0.9-0.6L716.3,4048.5z"/>
		<path class="st7" d="M730.2,4057.1c-1.3,0-2.3-0.4-3-1.1c-0.6-0.7-1-1.8-1-3.2c0-1.4,0.4-2.5,1.1-3.3c0.7-0.8,1.8-1.1,3.1-1.1
			s2.3,0.3,3,1c0.7,0.7,1,1.7,1,3.2c0,1.4-0.4,2.6-1.1,3.4C732.5,4056.7,731.5,4057.1,730.2,4057.1z M728.6,4052.7
			c0,1.8,0.5,2.7,1.6,2.7c0.6,0,1-0.2,1.2-0.6c0.3-0.4,0.4-1.1,0.4-2c0-1.8-0.6-2.7-1.7-2.7c-0.5,0-0.9,0.2-1.2,0.6
			C728.8,4051.1,728.6,4051.7,728.6,4052.7z"/>
		<path class="st7" d="M747.2,4056.1c-0.7,0.7-1.8,1.1-3.3,1.1s-2.6-0.4-3.2-1.1c-0.6-0.7-0.9-1.8-0.9-3.3v-5.5
			c-0.4-0.2-0.7-0.4-0.9-0.6l0.2-1.4h4l0.2,1.4c-0.2,0.2-0.5,0.4-0.9,0.6v5.6c0,0.8,0.1,1.4,0.4,1.8c0.3,0.4,0.7,0.6,1.4,0.6
			s1.2-0.2,1.5-0.6s0.4-1,0.4-1.8v-5.6c-0.5-0.2-0.8-0.4-0.9-0.6l0.2-1.4h3.7l0.2,1.4c-0.2,0.2-0.5,0.4-0.9,0.6v5.5
			C748.2,4054.2,747.8,4055.3,747.2,4056.1z"/>
		<path class="st7" d="M749.8,4048.5c0.6-0.1,1.2-0.2,1.7-0.2c0.5,0,0.9,0,1.2,0v0.8c0.3-0.2,0.7-0.4,1.1-0.6
			c0.5-0.2,0.9-0.2,1.4-0.2c1.1,0,1.9,0.3,2.3,0.8c0.4,0.5,0.7,1.4,0.7,2.7v3.3c0.4,0.2,0.8,0.4,0.9,0.6l-0.2,1.3H755l-0.2-1.3
			c0.2-0.2,0.5-0.4,0.9-0.6v-3.4c0-0.6-0.1-1-0.3-1.2c-0.2-0.2-0.6-0.3-1.1-0.3c-0.5,0-1,0.2-1.5,0.5v4.4c0.4,0.2,0.8,0.4,0.9,0.6
			l-0.2,1.3h-3.9l-0.2-1.3c0.2-0.2,0.5-0.4,0.9-0.6v-4.7c-0.4-0.1-0.7-0.3-0.9-0.6L749.8,4048.5z"/>
		<path class="st7" d="M763.7,4057.1c-1.3,0-2.3-0.4-3-1.1c-0.6-0.7-1-1.8-1-3.2c0-1.4,0.4-2.5,1.1-3.3c0.7-0.8,1.8-1.1,3.1-1.1
			s2.3,0.3,3,1c0.7,0.7,1,1.7,1,3.2c0,1.4-0.4,2.6-1.1,3.4C766,4056.7,765,4057.1,763.7,4057.1z M762.2,4052.7
			c0,1.8,0.5,2.7,1.6,2.7c0.6,0,1-0.2,1.2-0.6c0.3-0.4,0.4-1.1,0.4-2c0-1.8-0.6-2.7-1.7-2.7c-0.5,0-0.9,0.2-1.2,0.6
			C762.3,4051.1,762.2,4051.7,762.2,4052.7z"/>
	</g>
	<g transform="translate(0 103.619)">
		<rect x="364.8" y="4041.4" class="st1" width="164" height="53.9"/>
		<rect x="364.8" y="4111.6" class="st1" width="164" height="53.9"/>
		<rect x="364.8" y="4181.9" class="st1" width="164" height="53.9"/>
		<g class="st6">
			<path class="st7" d="M443.1,4053.3v2.4l-1.1,0.1c-0.1-0.1-0.3-0.4-0.4-0.7h-2v7.9c0.5,0.2,0.8,0.4,0.9,0.6l-0.2,1.4h-4l-0.2-1.4
				c0.1-0.2,0.5-0.4,0.9-0.6v-7.9h-2c-0.1,0.4-0.3,0.6-0.4,0.7l-1.1-0.1v-2.4H443.1z"/>
			<path class="st7" d="M446.4,4065.1c-1.3,0-2.3-0.4-3-1.1c-0.6-0.7-1-1.8-1-3.2c0-1.4,0.4-2.5,1.1-3.3c0.7-0.8,1.8-1.1,3.1-1.1
				s2.3,0.3,3,1c0.7,0.7,1,1.7,1,3.2c0,1.4-0.4,2.6-1.1,3.4C448.8,4064.7,447.8,4065.1,446.4,4065.1z M444.9,4060.7
				c0,1.8,0.5,2.7,1.6,2.7c0.6,0,1-0.2,1.2-0.6c0.3-0.4,0.4-1.1,0.4-2c0-1.8-0.6-2.7-1.7-2.7c-0.5,0-0.9,0.2-1.2,0.6
				C445.1,4059.1,444.9,4059.7,444.9,4060.7z"/>
			<path class="st7" d="M451.5,4056.5c0.6-0.1,1.2-0.2,1.7-0.2s0.9,0,1.2,0v0.8c0.8-0.5,1.6-0.8,2.4-0.8c1.1,0,2,0.3,2.5,1
				c0.5,0.6,0.8,1.7,0.8,3.2c0,0.8-0.1,1.5-0.4,2.1c-0.2,0.6-0.6,1.1-1,1.4c-0.8,0.7-1.7,1-2.8,1c-0.5,0-0.9,0-1.3-0.1v1.5
				c0.7,0.2,1.1,0.4,1.3,0.6l-0.2,1.3h-4.3l-0.2-1.3c0.1-0.2,0.5-0.4,0.9-0.6v-8.1c-0.4-0.1-0.7-0.3-0.9-0.6L451.5,4056.5z
				 M455.8,4063.4c0.6,0,1-0.3,1.3-0.8c0.3-0.5,0.5-1.2,0.5-2.1s-0.1-1.5-0.3-1.8c-0.2-0.3-0.5-0.5-1-0.5c-0.7,0-1.3,0.2-1.7,0.5
				v4.5C455,4063.4,455.4,4063.4,455.8,4063.4z"/>
		</g>
		<g class="st6">
			<path class="st7" d="M425.5,4072.3c-0.3-0.1-0.9-0.2-1.5-0.2c-0.7,0-1.2,0.3-1.6,0.9c-0.4,0.6-0.6,1.6-0.6,3.1s0.2,2.5,0.6,3.1
				c0.4,0.6,1,0.9,1.8,0.9c1.2,0,2.3-0.2,3.3-0.5l0.6,1.5c-1.2,0.7-2.6,1.1-4.2,1.1c-1.6,0-2.8-0.5-3.5-1.4s-1.1-2.4-1.1-4.5
				c0-2.1,0.4-3.6,1.3-4.6c0.9-1,2.1-1.5,3.7-1.5c1.3,0,2.5,0.4,3.7,1.1c0,0.1,0,0.2,0,0.4c0,0.2,0,0.5-0.1,1
				c-0.1,0.5-0.2,0.8-0.3,1.1h-1.6C425.7,4073.4,425.5,4072.9,425.5,4072.3z"/>
			<path class="st7" d="M429.1,4074.8c0-0.2,0-0.4,0-0.5c1.1-0.6,2.2-0.8,3.4-0.8c1.2,0,2.1,0.2,2.6,0.7s0.8,1.2,0.8,2.3v3.6
				c0.4,0.1,0.7,0.2,0.9,0.3v1.5c-0.6,0.3-1.4,0.4-2.5,0.4c-0.1-0.3-0.2-0.7-0.3-1.1c-0.5,0.7-1.4,1.1-2.7,1.1
				c-0.8,0-1.4-0.2-1.9-0.7c-0.5-0.4-0.8-1-0.8-1.8c0-0.8,0.3-1.4,0.8-1.8c0.5-0.4,1.3-0.7,2.3-0.7h1.9v-0.8c0-0.9-0.5-1.3-1.4-1.3
				c-0.4,0-0.6,0-0.9,0.1c0,0.5-0.1,0.8-0.2,1.1h-1.7C429.2,4075.9,429.1,4075.4,429.1,4074.8z M432.1,4080.4c0.6,0,1-0.2,1.4-0.5
				v-1.4h-1.2c-0.8,0-1.2,0.3-1.2,0.9c0,0.3,0.1,0.5,0.3,0.7C431.5,4080.3,431.8,4080.4,432.1,4080.4z"/>
			<path class="st7" d="M437.6,4073.5c0.6-0.1,1.2-0.2,1.7-0.2s0.9,0,1.2,0v0.8c0.3-0.2,0.6-0.4,1-0.6c0.4-0.2,0.8-0.2,1.1-0.2
				c1.3,0,2.2,0.3,2.6,1c0.3-0.3,0.7-0.5,1.1-0.7c0.5-0.2,0.9-0.3,1.3-0.3c1.2,0,2.1,0.3,2.5,0.8c0.4,0.6,0.6,1.6,0.6,3.2v2.8
				c0.4,0.2,0.8,0.4,0.9,0.6l-0.2,1.3h-3.9l-0.2-1.3c0.2-0.2,0.5-0.4,0.9-0.6v-3.4c0-0.6-0.1-1-0.3-1.2s-0.5-0.3-1-0.3
				s-1,0.2-1.4,0.6c0.1,0.4,0.1,0.9,0.1,1.6v2.8c0.4,0.2,0.8,0.4,0.9,0.6l-0.2,1.3h-3.9l-0.2-1.3c0.2-0.2,0.5-0.4,0.9-0.6v-3.4
				c0-0.6-0.1-1-0.3-1.2s-0.5-0.3-1-0.3c-0.5,0-1,0.2-1.4,0.5v4.4c0.4,0.2,0.8,0.4,0.9,0.6l-0.2,1.3h-3.9l-0.2-1.3
				c0.2-0.2,0.5-0.4,0.9-0.6v-4.7c-0.4-0.1-0.7-0.3-0.9-0.6L437.6,4073.5z"/>
			<path class="st7" d="M456.4,4082.1c-1.4,0-2.4-0.4-3.1-1.1c-0.7-0.7-1-1.8-1-3.2c0-0.8,0.1-1.6,0.4-2.2c0.2-0.6,0.6-1.1,1-1.4
				c0.8-0.6,1.7-1,2.8-1s1.9,0.3,2.4,0.8s0.8,1.5,0.8,2.9c0,0.8-0.4,1.2-1.2,1.2h-3.7c0,0.7,0.2,1.2,0.6,1.5
				c0.3,0.3,0.8,0.4,1.5,0.4c0.4,0,0.8,0,1.1-0.1c0.4-0.1,0.6-0.2,0.8-0.3l0.2-0.1l0.5,1.4c-0.1,0.1-0.2,0.2-0.3,0.3s-0.5,0.3-1,0.5
				S457.1,4082.1,456.4,4082.1z M457.5,4076.8c0-0.2,0-0.4,0-0.6s-0.1-0.5-0.3-0.7c-0.2-0.3-0.5-0.4-0.9-0.4c-0.4,0-0.8,0.1-1,0.4
				c-0.2,0.3-0.4,0.7-0.5,1.4L457.5,4076.8z"/>
			<path class="st7" d="M465.6,4075.6c-0.9,0-1.5,0.2-1.8,0.5v3.9c0.9,0.2,1.5,0.4,1.9,0.7l-0.2,1.3h-4.9l-0.2-1.3
				c0.2-0.2,0.5-0.4,0.9-0.6v-4.7c-0.4-0.1-0.7-0.3-0.9-0.6l0.2-1.3c0.6-0.1,1.2-0.2,1.7-0.2s0.9,0,1.2,0v1.1c0.3-0.3,0.6-0.6,1-0.8
				c0.4-0.2,0.8-0.3,1.1-0.3s0.6,0,0.7,0.1l-0.1,2.2C466.2,4075.6,465.9,4075.6,465.6,4075.6z"/>
			<path class="st7" d="M467.5,4074.8c0-0.2,0-0.4,0-0.5c1.1-0.6,2.2-0.8,3.4-0.8c1.2,0,2.1,0.2,2.6,0.7s0.8,1.2,0.8,2.3v3.6
				c0.4,0.1,0.7,0.2,0.9,0.3v1.5c-0.6,0.3-1.4,0.4-2.5,0.4c-0.1-0.3-0.2-0.7-0.3-1.1c-0.5,0.7-1.4,1.1-2.7,1.1
				c-0.8,0-1.4-0.2-1.9-0.7c-0.5-0.4-0.8-1-0.8-1.8c0-0.8,0.3-1.4,0.8-1.8c0.5-0.4,1.3-0.7,2.3-0.7h1.9v-0.8c0-0.9-0.5-1.3-1.4-1.3
				c-0.4,0-0.6,0-0.9,0.1c0,0.5-0.1,0.8-0.2,1.1h-1.7C467.6,4075.9,467.5,4075.4,467.5,4074.8z M470.5,4080.4c0.6,0,1-0.2,1.4-0.5
				v-1.4h-1.2c-0.8,0-1.2,0.3-1.2,0.9c0,0.3,0.1,0.5,0.3,0.7C469.9,4080.3,470.2,4080.4,470.5,4080.4z"/>
		</g>
		<g class="st6">
			<path class="st7" d="M436.9,4126.1c-0.4-0.1-0.8-0.2-1.2-0.2c-0.4,0-0.8,0.1-1,0.3c-0.3,0.2-0.4,0.5-0.4,0.9s0.1,0.7,0.3,0.9
				c0.2,0.2,0.6,0.4,1.1,0.6l1.5,0.4c0.8,0.2,1.5,0.6,1.9,1.1c0.5,0.5,0.7,1.2,0.7,2.2c0,1.2-0.4,2.1-1.2,2.7c-0.8,0.7-1.9,1-3.1,1
				c-0.7,0-1.4-0.1-2.1-0.3c-0.7-0.2-1.3-0.4-1.8-0.7c0-0.1,0-0.2,0-0.4s0-0.5,0.1-1c0.1-0.5,0.2-0.8,0.3-1.1h1.6
				c0.2,0.4,0.3,0.8,0.3,1.4c0.4,0.2,0.9,0.3,1.4,0.3c0.5,0,1-0.1,1.3-0.4s0.5-0.6,0.5-1.1c0-0.2,0-0.4-0.1-0.5s-0.1-0.3-0.3-0.5
				s-0.4-0.3-0.8-0.4l-1.8-0.5c-1.8-0.5-2.7-1.6-2.7-3.4c0-1,0.4-1.9,1.1-2.5c0.7-0.6,1.7-0.9,2.9-0.9s2.4,0.3,3.5,0.8
				c0,0.1,0,0.2,0,0.4c0,0.2,0,0.5-0.1,1c-0.1,0.5-0.2,0.8-0.3,1.1h-1.6C437,4127.2,436.9,4126.7,436.9,4126.1z"/>
			<path class="st7" d="M440.9,4127.5c0.6-0.1,1.2-0.2,1.8-0.2s1,0,1.4,0.1v6.8c0.4,0.2,0.8,0.4,0.9,0.6l-0.2,1.3h-3.9l-0.2-1.3
				c0.2-0.2,0.5-0.4,0.9-0.6v-4.7c-0.4-0.1-0.7-0.3-0.9-0.6L440.9,4127.5z M442.8,4126.3c-0.9,0-1.4-0.4-1.4-1.3
				c0-0.9,0.5-1.3,1.4-1.3c0.9,0,1.4,0.4,1.4,1.3C444.3,4125.9,443.8,4126.3,442.8,4126.3z"/>
			<path class="st7" d="M450.1,4123.9c0.6-0.1,1.3-0.2,1.9-0.2s1.1,0,1.5,0.1v10.2c0.3,0.1,0.7,0.2,0.9,0.3v1.3
				c-0.7,0.4-1.5,0.5-2.6,0.5c-0.1-0.1-0.2-0.2-0.3-0.3c-0.1-0.1-0.2-0.3-0.2-0.4c-0.2,0.2-0.6,0.4-1,0.5c-0.4,0.1-0.8,0.2-1.2,0.2
				c-1.2,0-2.1-0.3-2.7-1c-0.5-0.7-0.8-1.7-0.8-3.3c0-1.7,0.4-2.9,1.3-3.6c0.7-0.6,1.6-0.9,2.7-0.9c0.5,0,1,0.1,1.4,0.2v-1.7
				c-0.5-0.1-0.9-0.4-1.2-0.6L450.1,4123.9z M449.5,4134.4c0.6,0,1.2-0.2,1.6-0.6v-4.6c-0.5-0.1-1-0.2-1.5-0.2
				c-0.5,0-0.9,0.2-1.1,0.7s-0.3,1.1-0.3,2.1s0.1,1.6,0.3,2C448.7,4134.2,449,4134.4,449.5,4134.4z"/>
			<path class="st7" d="M459.2,4136.1c-1.4,0-2.4-0.4-3.1-1.1c-0.7-0.7-1-1.8-1-3.2c0-0.8,0.1-1.6,0.4-2.2c0.2-0.6,0.6-1.1,1-1.4
				c0.8-0.6,1.7-1,2.8-1s1.9,0.3,2.4,0.8s0.8,1.5,0.8,2.9c0,0.8-0.4,1.2-1.2,1.2h-3.7c0,0.7,0.2,1.2,0.6,1.5
				c0.3,0.3,0.8,0.4,1.5,0.4c0.4,0,0.8,0,1.1-0.1c0.4-0.1,0.6-0.2,0.8-0.3l0.2-0.1l0.5,1.4c-0.1,0.1-0.2,0.2-0.3,0.3s-0.5,0.3-1,0.5
				S459.9,4136.1,459.2,4136.1z M460.3,4130.8c0-0.2,0-0.4,0-0.6s-0.1-0.5-0.3-0.7c-0.2-0.3-0.5-0.4-0.9-0.4c-0.4,0-0.8,0.1-1,0.4
				c-0.2,0.3-0.4,0.7-0.5,1.4L460.3,4130.8z"/>
		</g>
		<g class="st6">
			<path class="st7" d="M425.5,4143.3c-0.3-0.1-0.9-0.2-1.5-0.2c-0.7,0-1.2,0.3-1.6,0.9c-0.4,0.6-0.6,1.6-0.6,3.1s0.2,2.5,0.6,3.1
				c0.4,0.6,1,0.9,1.8,0.9c1.2,0,2.3-0.2,3.3-0.5l0.6,1.5c-1.2,0.7-2.6,1.1-4.2,1.1c-1.6,0-2.8-0.5-3.5-1.4s-1.1-2.4-1.1-4.5
				c0-2.1,0.4-3.6,1.3-4.6c0.9-1,2.1-1.5,3.7-1.5c1.3,0,2.5,0.4,3.7,1.1c0,0.1,0,0.2,0,0.4c0,0.2,0,0.5-0.1,1
				c-0.1,0.5-0.2,0.8-0.3,1.1h-1.6C425.7,4144.4,425.5,4143.9,425.5,4143.3z"/>
			<path class="st7" d="M429.1,4145.8c0-0.2,0-0.4,0-0.5c1.1-0.6,2.2-0.8,3.4-0.8c1.2,0,2.1,0.2,2.6,0.7s0.8,1.2,0.8,2.3v3.6
				c0.4,0.1,0.7,0.2,0.9,0.3v1.5c-0.6,0.3-1.4,0.4-2.5,0.4c-0.1-0.3-0.2-0.7-0.3-1.1c-0.5,0.7-1.4,1.1-2.7,1.1
				c-0.8,0-1.4-0.2-1.9-0.7c-0.5-0.4-0.8-1-0.8-1.8c0-0.8,0.3-1.4,0.8-1.8c0.5-0.4,1.3-0.7,2.3-0.7h1.9v-0.8c0-0.9-0.5-1.3-1.4-1.3
				c-0.4,0-0.6,0-0.9,0.1c0,0.5-0.1,0.8-0.2,1.1h-1.7C429.2,4146.9,429.1,4146.4,429.1,4145.8z M432.1,4151.4c0.6,0,1-0.2,1.4-0.5
				v-1.4h-1.2c-0.8,0-1.2,0.3-1.2,0.9c0,0.3,0.1,0.5,0.3,0.7C431.5,4151.3,431.8,4151.4,432.1,4151.4z"/>
			<path class="st7" d="M437.6,4144.5c0.6-0.1,1.2-0.2,1.7-0.2s0.9,0,1.2,0v0.8c0.3-0.2,0.6-0.4,1-0.6c0.4-0.2,0.8-0.2,1.1-0.2
				c1.3,0,2.2,0.3,2.6,1c0.3-0.3,0.7-0.5,1.1-0.7c0.5-0.2,0.9-0.3,1.3-0.3c1.2,0,2.1,0.3,2.5,0.8c0.4,0.6,0.6,1.6,0.6,3.2v2.8
				c0.4,0.2,0.8,0.4,0.9,0.6l-0.2,1.3h-3.9l-0.2-1.3c0.2-0.2,0.5-0.4,0.9-0.6v-3.4c0-0.6-0.1-1-0.3-1.2s-0.5-0.3-1-0.3
				s-1,0.2-1.4,0.6c0.1,0.4,0.1,0.9,0.1,1.6v2.8c0.4,0.2,0.8,0.4,0.9,0.6l-0.2,1.3h-3.9l-0.2-1.3c0.2-0.2,0.5-0.4,0.9-0.6v-3.4
				c0-0.6-0.1-1-0.3-1.2s-0.5-0.3-1-0.3c-0.5,0-1,0.2-1.4,0.5v4.4c0.4,0.2,0.8,0.4,0.9,0.6l-0.2,1.3h-3.9l-0.2-1.3
				c0.2-0.2,0.5-0.4,0.9-0.6v-4.7c-0.4-0.1-0.7-0.3-0.9-0.6L437.6,4144.5z"/>
			<path class="st7" d="M456.4,4153.1c-1.4,0-2.4-0.4-3.1-1.1c-0.7-0.7-1-1.8-1-3.2c0-0.8,0.1-1.6,0.4-2.2c0.2-0.6,0.6-1.1,1-1.4
				c0.8-0.6,1.7-1,2.8-1s1.9,0.3,2.4,0.8s0.8,1.5,0.8,2.9c0,0.8-0.4,1.2-1.2,1.2h-3.7c0,0.7,0.2,1.2,0.6,1.5
				c0.3,0.3,0.8,0.4,1.5,0.4c0.4,0,0.8,0,1.1-0.1c0.4-0.1,0.6-0.2,0.8-0.3l0.2-0.1l0.5,1.4c-0.1,0.1-0.2,0.2-0.3,0.3s-0.5,0.3-1,0.5
				S457.1,4153.1,456.4,4153.1z M457.5,4147.8c0-0.2,0-0.4,0-0.6s-0.1-0.5-0.3-0.7c-0.2-0.3-0.5-0.4-0.9-0.4c-0.4,0-0.8,0.1-1,0.4
				c-0.2,0.3-0.4,0.7-0.5,1.4L457.5,4147.8z"/>
			<path class="st7" d="M465.6,4146.6c-0.9,0-1.5,0.2-1.8,0.5v3.9c0.9,0.2,1.5,0.4,1.9,0.7l-0.2,1.3h-4.9l-0.2-1.3
				c0.2-0.2,0.5-0.4,0.9-0.6v-4.7c-0.4-0.1-0.7-0.3-0.9-0.6l0.2-1.3c0.6-0.1,1.2-0.2,1.7-0.2s0.9,0,1.2,0v1.1c0.3-0.3,0.6-0.6,1-0.8
				c0.4-0.2,0.8-0.3,1.1-0.3s0.6,0,0.7,0.1l-0.1,2.2C466.2,4146.6,465.9,4146.6,465.6,4146.6z"/>
			<path class="st7" d="M467.5,4145.8c0-0.2,0-0.4,0-0.5c1.1-0.6,2.2-0.8,3.4-0.8c1.2,0,2.1,0.2,2.6,0.7s0.8,1.2,0.8,2.3v3.6
				c0.4,0.1,0.7,0.2,0.9,0.3v1.5c-0.6,0.3-1.4,0.4-2.5,0.4c-0.1-0.3-0.2-0.7-0.3-1.1c-0.5,0.7-1.4,1.1-2.7,1.1
				c-0.8,0-1.4-0.2-1.9-0.7c-0.5-0.4-0.8-1-0.8-1.8c0-0.8,0.3-1.4,0.8-1.8c0.5-0.4,1.3-0.7,2.3-0.7h1.9v-0.8c0-0.9-0.5-1.3-1.4-1.3
				c-0.4,0-0.6,0-0.9,0.1c0,0.5-0.1,0.8-0.2,1.1h-1.7C467.6,4146.9,467.5,4146.4,467.5,4145.8z M470.5,4151.4c0.6,0,1-0.2,1.4-0.5
				v-1.4h-1.2c-0.8,0-1.2,0.3-1.2,0.9c0,0.3,0.1,0.5,0.3,0.7C469.9,4151.3,470.2,4151.4,470.5,4151.4z"/>
		</g>
		<g class="st6">
			<path class="st7" d="M423.5,4194.3c1.3,0,2.3,0.1,2.9,0.2s1,0.4,1.3,0.6c0.6,0.5,0.9,1.3,0.9,2.3c0,0.8-0.4,1.5-1.2,2.2
				c1.1,0.5,1.6,1.5,1.6,3c0,1.1-0.4,2-1.1,2.5s-1.9,0.9-3.3,0.9h-4.8l-0.2-1.4c0.1-0.2,0.5-0.4,0.9-0.6v-7.8
				c-0.5-0.2-0.8-0.4-0.9-0.6l0.2-1.4H423.5z M423.8,4196.1h-0.9v2.9h1.4c0.6,0,1-0.1,1.3-0.4s0.5-0.7,0.5-1.1c0-0.4-0.1-0.7-0.3-1
				c-0.2-0.2-0.5-0.3-0.7-0.4C424.7,4196.1,424.3,4196.1,423.8,4196.1z M424.4,4200.9h-1.5v3.2h1.2c0.8,0,1.4-0.1,1.8-0.3
				c0.4-0.2,0.6-0.6,0.6-1.2c0-0.6-0.2-1-0.5-1.3C425.6,4201,425.1,4200.9,424.4,4200.9z"/>
			<path class="st7" d="M433.8,4206.1c-1.3,0-2.3-0.4-3-1.1c-0.6-0.7-1-1.8-1-3.2c0-1.4,0.4-2.5,1.1-3.3c0.7-0.8,1.8-1.1,3.1-1.1
				s2.3,0.3,3,1c0.7,0.7,1,1.7,1,3.2c0,1.4-0.4,2.6-1.1,3.4C436.2,4205.7,435.2,4206.1,433.8,4206.1z M432.3,4201.7
				c0,1.8,0.5,2.7,1.6,2.7c0.6,0,1-0.2,1.2-0.6c0.3-0.4,0.4-1.1,0.4-2c0-1.8-0.6-2.7-1.7-2.7c-0.5,0-0.9,0.2-1.2,0.6
				C432.5,4200.1,432.3,4200.7,432.3,4201.7z"/>
			<path class="st7" d="M442,4195.4v2.1h2.4v1.4H442v4.3c0,0.4,0.1,0.6,0.2,0.8s0.3,0.2,0.7,0.2s0.8-0.1,1.2-0.3l0.5,1.3
				c-0.9,0.4-1.8,0.7-2.7,0.7c-0.9,0-1.5-0.2-1.9-0.6c-0.3-0.4-0.5-1-0.5-1.7v-4.8h-0.8l-0.2-1c0.2-0.2,0.6-0.4,1.1-0.6
				c0.1-0.9,0.5-1.6,1-1.9H442z"/>
			<path class="st7" d="M448.3,4195.4v2.1h2.4v1.4h-2.4v4.3c0,0.4,0.1,0.6,0.2,0.8s0.3,0.2,0.7,0.2s0.8-0.1,1.2-0.3l0.5,1.3
				c-0.9,0.4-1.8,0.7-2.7,0.7c-0.9,0-1.5-0.2-1.9-0.6c-0.3-0.4-0.5-1-0.5-1.7v-4.8h-0.8l-0.2-1c0.2-0.2,0.6-0.4,1.1-0.6
				c0.1-0.9,0.5-1.6,1-1.9H448.3z"/>
			<path class="st7" d="M455.5,4206.1c-1.3,0-2.3-0.4-3-1.1c-0.6-0.7-1-1.8-1-3.2c0-1.4,0.4-2.5,1.1-3.3c0.7-0.8,1.8-1.1,3.1-1.1
				s2.3,0.3,3,1c0.7,0.7,1,1.7,1,3.2c0,1.4-0.4,2.6-1.1,3.4C457.9,4205.7,456.8,4206.1,455.5,4206.1z M454,4201.7
				c0,1.8,0.5,2.7,1.6,2.7c0.6,0,1-0.2,1.2-0.6c0.3-0.4,0.4-1.1,0.4-2c0-1.8-0.6-2.7-1.7-2.7c-0.5,0-0.9,0.2-1.2,0.6
				C454.1,4200.1,454,4200.7,454,4201.7z"/>
			<path class="st7" d="M460.7,4197.5c0.6-0.1,1.2-0.2,1.7-0.2s0.9,0,1.2,0v0.8c0.3-0.2,0.6-0.4,1-0.6c0.4-0.2,0.8-0.2,1.1-0.2
				c1.3,0,2.2,0.3,2.6,1c0.3-0.3,0.7-0.5,1.1-0.7c0.5-0.2,0.9-0.3,1.3-0.3c1.2,0,2.1,0.3,2.5,0.8c0.4,0.6,0.6,1.6,0.6,3.2v2.8
				c0.4,0.2,0.8,0.4,0.9,0.6l-0.2,1.3h-3.9l-0.2-1.3c0.2-0.2,0.5-0.4,0.9-0.6v-3.4c0-0.6-0.1-1-0.3-1.2s-0.5-0.3-1-0.3
				s-1,0.2-1.4,0.6c0.1,0.4,0.1,0.9,0.1,1.6v2.8c0.4,0.2,0.8,0.4,0.9,0.6l-0.2,1.3h-3.9l-0.2-1.3c0.2-0.2,0.5-0.4,0.9-0.6v-3.4
				c0-0.6-0.1-1-0.3-1.2s-0.5-0.3-1-0.3c-0.5,0-1,0.2-1.4,0.5v4.4c0.4,0.2,0.8,0.4,0.9,0.6l-0.2,1.3h-3.9l-0.2-1.3
				c0.2-0.2,0.5-0.4,0.9-0.6v-4.7c-0.4-0.1-0.7-0.3-0.9-0.6L460.7,4197.5z"/>
		</g>
		<g class="st6">
			<path class="st7" d="M425.5,4213.3c-0.3-0.1-0.9-0.2-1.5-0.2c-0.7,0-1.2,0.3-1.6,0.9c-0.4,0.6-0.6,1.6-0.6,3.1s0.2,2.5,0.6,3.1
				c0.4,0.6,1,0.9,1.8,0.9c1.2,0,2.3-0.2,3.3-0.5l0.6,1.5c-1.2,0.7-2.6,1.1-4.2,1.1c-1.6,0-2.8-0.5-3.5-1.4s-1.1-2.4-1.1-4.5
				c0-2.1,0.4-3.6,1.3-4.6c0.9-1,2.1-1.5,3.7-1.5c1.3,0,2.5,0.4,3.7,1.1c0,0.1,0,0.2,0,0.4c0,0.2,0,0.5-0.1,1
				c-0.1,0.5-0.2,0.8-0.3,1.1h-1.6C425.7,4214.4,425.5,4213.9,425.5,4213.3z"/>
			<path class="st7" d="M429.1,4215.8c0-0.2,0-0.4,0-0.5c1.1-0.6,2.2-0.8,3.4-0.8c1.2,0,2.1,0.2,2.6,0.7s0.8,1.2,0.8,2.3v3.6
				c0.4,0.1,0.7,0.2,0.9,0.3v1.5c-0.6,0.3-1.4,0.4-2.5,0.4c-0.1-0.3-0.2-0.7-0.3-1.1c-0.5,0.7-1.4,1.1-2.7,1.1
				c-0.8,0-1.4-0.2-1.9-0.7c-0.5-0.4-0.8-1-0.8-1.8c0-0.8,0.3-1.4,0.8-1.8c0.5-0.4,1.3-0.7,2.3-0.7h1.9v-0.8c0-0.9-0.5-1.3-1.4-1.3
				c-0.4,0-0.6,0-0.9,0.1c0,0.5-0.1,0.8-0.2,1.1h-1.7C429.2,4216.9,429.1,4216.4,429.1,4215.8z M432.1,4221.4c0.6,0,1-0.2,1.4-0.5
				v-1.4h-1.2c-0.8,0-1.2,0.3-1.2,0.9c0,0.3,0.1,0.5,0.3,0.7C431.5,4221.3,431.8,4221.4,432.1,4221.4z"/>
			<path class="st7" d="M437.6,4214.5c0.6-0.1,1.2-0.2,1.7-0.2s0.9,0,1.2,0v0.8c0.3-0.2,0.6-0.4,1-0.6c0.4-0.2,0.8-0.2,1.1-0.2
				c1.3,0,2.2,0.3,2.6,1c0.3-0.3,0.7-0.5,1.1-0.7c0.5-0.2,0.9-0.3,1.3-0.3c1.2,0,2.1,0.3,2.5,0.8c0.4,0.6,0.6,1.6,0.6,3.2v2.8
				c0.4,0.2,0.8,0.4,0.9,0.6l-0.2,1.3h-3.9l-0.2-1.3c0.2-0.2,0.5-0.4,0.9-0.6v-3.4c0-0.6-0.1-1-0.3-1.2s-0.5-0.3-1-0.3
				s-1,0.2-1.4,0.6c0.1,0.4,0.1,0.9,0.1,1.6v2.8c0.4,0.2,0.8,0.4,0.9,0.6l-0.2,1.3h-3.9l-0.2-1.3c0.2-0.2,0.5-0.4,0.9-0.6v-3.4
				c0-0.6-0.1-1-0.3-1.2s-0.5-0.3-1-0.3c-0.5,0-1,0.2-1.4,0.5v4.4c0.4,0.2,0.8,0.4,0.9,0.6l-0.2,1.3h-3.9l-0.2-1.3
				c0.2-0.2,0.5-0.4,0.9-0.6v-4.7c-0.4-0.1-0.7-0.3-0.9-0.6L437.6,4214.5z"/>
			<path class="st7" d="M456.4,4223.1c-1.4,0-2.4-0.4-3.1-1.1c-0.7-0.7-1-1.8-1-3.2c0-0.8,0.1-1.6,0.4-2.2c0.2-0.6,0.6-1.1,1-1.4
				c0.8-0.6,1.7-1,2.8-1s1.9,0.3,2.4,0.8s0.8,1.5,0.8,2.9c0,0.8-0.4,1.2-1.2,1.2h-3.7c0,0.7,0.2,1.2,0.6,1.5
				c0.3,0.3,0.8,0.4,1.5,0.4c0.4,0,0.8,0,1.1-0.1c0.4-0.1,0.6-0.2,0.8-0.3l0.2-0.1l0.5,1.4c-0.1,0.1-0.2,0.2-0.3,0.3s-0.5,0.3-1,0.5
				S457.1,4223.1,456.4,4223.1z M457.5,4217.8c0-0.2,0-0.4,0-0.6s-0.1-0.5-0.3-0.7c-0.2-0.3-0.5-0.4-0.9-0.4c-0.4,0-0.8,0.1-1,0.4
				c-0.2,0.3-0.4,0.7-0.5,1.4L457.5,4217.8z"/>
			<path class="st7" d="M465.6,4216.6c-0.9,0-1.5,0.2-1.8,0.5v3.9c0.9,0.2,1.5,0.4,1.9,0.7l-0.2,1.3h-4.9l-0.2-1.3
				c0.2-0.2,0.5-0.4,0.9-0.6v-4.7c-0.4-0.1-0.7-0.3-0.9-0.6l0.2-1.3c0.6-0.1,1.2-0.2,1.7-0.2s0.9,0,1.2,0v1.1c0.3-0.3,0.6-0.6,1-0.8
				c0.4-0.2,0.8-0.3,1.1-0.3s0.6,0,0.7,0.1l-0.1,2.2C466.2,4216.6,465.9,4216.6,465.6,4216.6z"/>
			<path class="st7" d="M467.5,4215.8c0-0.2,0-0.4,0-0.5c1.1-0.6,2.2-0.8,3.4-0.8c1.2,0,2.1,0.2,2.6,0.7s0.8,1.2,0.8,2.3v3.6
				c0.4,0.1,0.7,0.2,0.9,0.3v1.5c-0.6,0.3-1.4,0.4-2.5,0.4c-0.1-0.3-0.2-0.7-0.3-1.1c-0.5,0.7-1.4,1.1-2.7,1.1
				c-0.8,0-1.4-0.2-1.9-0.7c-0.5-0.4-0.8-1-0.8-1.8c0-0.8,0.3-1.4,0.8-1.8c0.5-0.4,1.3-0.7,2.3-0.7h1.9v-0.8c0-0.9-0.5-1.3-1.4-1.3
				c-0.4,0-0.6,0-0.9,0.1c0,0.5-0.1,0.8-0.2,1.1h-1.7C467.6,4216.9,467.5,4216.4,467.5,4215.8z M470.5,4221.4c0.6,0,1-0.2,1.4-0.5
				v-1.4h-1.2c-0.8,0-1.2,0.3-1.2,0.9c0,0.3,0.1,0.5,0.3,0.7C469.9,4221.3,470.2,4221.4,470.5,4221.4z"/>
		</g>
	</g>
	<g class="st6">
		<path class="st1" d="M583.1,4248.1c-0.7,0.7-1.8,1.1-3.3,1.1c-1.5,0-2.6-0.4-3.2-1.1c-0.6-0.7-0.9-1.8-0.9-3.3v-5.5
			c-0.4-0.2-0.7-0.4-0.9-0.6l0.2-1.4h4l0.2,1.4c-0.2,0.2-0.5,0.4-0.9,0.6v5.6c0,0.8,0.1,1.4,0.4,1.8c0.3,0.4,0.7,0.6,1.4,0.6
			c0.7,0,1.2-0.2,1.5-0.6c0.3-0.4,0.4-1,0.4-1.8v-5.6c-0.5-0.2-0.8-0.4-0.9-0.6l0.2-1.4h3.7l0.2,1.4c-0.2,0.2-0.5,0.4-0.9,0.6v5.5
			C584.2,4246.2,583.8,4247.3,583.1,4248.1z"/>
		<path class="st1" d="M589.5,4249.1l-3.2-9.8c-0.5-0.2-0.8-0.4-1-0.6l0.2-1.4h4l0.2,1.4c-0.2,0.2-0.4,0.4-0.9,0.5l1.4,5
			c0.2,0.8,0.4,1.5,0.4,2.2l0,0.3h0.2c0-0.7,0.2-1.5,0.4-2.4l1.5-5c-0.4-0.1-0.7-0.3-0.9-0.6l0.2-1.4h3.9l0.2,1.4
			c-0.2,0.2-0.6,0.5-1.1,0.6l-3.2,9.8H589.5z"/>
		<path class="st1" d="M602.6,4239.3c-0.3-0.1-0.9-0.2-1.5-0.2c-0.7,0-1.2,0.3-1.6,0.9c-0.4,0.6-0.6,1.6-0.6,3.1s0.2,2.5,0.6,3.1
			c0.4,0.6,1,0.9,1.8,0.9c1.2,0,2.3-0.2,3.3-0.5l0.6,1.5c-1.2,0.7-2.6,1.1-4.2,1.1c-1.6,0-2.8-0.5-3.5-1.4s-1.1-2.4-1.1-4.5
			c0-2.1,0.4-3.6,1.3-4.6c0.9-1,2.1-1.5,3.7-1.5c1.3,0,2.5,0.4,3.7,1.1c0,0.1,0,0.2,0,0.4c0,0.2,0,0.5-0.1,1
			c-0.1,0.5-0.2,0.8-0.3,1.1h-1.6C602.8,4240.4,602.7,4239.9,602.6,4239.3z"/>
	</g>
	<rect x="131" y="4045.2" class="st1" width="164" height="43.5"/>
	<rect x="131" y="4045.2" class="st1" width="164" height="43.5"/>
	<rect x="131" y="3998.3" class="st1" width="164" height="37.5"/>
	<rect x="131" y="3998.3" class="st1" width="164" height="37.5"/>
	<rect x="131" y="3951.5" class="st1" width="164" height="37.5"/>
	<rect x="131" y="3951.5" class="st1" width="164" height="37.5"/>
	<rect x="131" y="3904.6" class="st1" width="164" height="37.5"/>
	<rect x="131" y="3904.6" class="st1" width="164" height="37.5"/>
	<g class="st6">
		<path class="st7" d="M183.5,3922.9c-0.7,0-1.1,0.2-1.1,0.7c0,0.4,0.4,0.7,1.2,0.9l1.3,0.4c1.4,0.4,2.1,1.2,2.1,2.4
			c0,0.8-0.3,1.5-0.9,2.1c-0.6,0.5-1.5,0.8-2.8,0.8c-1.3,0-2.3-0.2-3-0.5c0-0.1,0-0.2,0-0.4c0-0.6,0.1-1.2,0.4-1.7h1.4
			c0.1,0.3,0.2,0.6,0.3,0.8c0.2,0.1,0.5,0.1,1,0.1c1,0,1.5-0.3,1.5-0.9c0-0.2-0.1-0.3-0.2-0.5c-0.1-0.1-0.4-0.2-0.8-0.3l-1.3-0.4
			c-0.7-0.2-1.2-0.5-1.6-0.9s-0.6-0.9-0.6-1.7s0.3-1.4,0.9-1.8c0.6-0.5,1.5-0.7,2.6-0.7s2.1,0.2,2.8,0.5c0,0.1,0,0.2,0,0.3
			c0,0.6-0.1,1.1-0.4,1.6h-1.4c-0.1-0.3-0.2-0.5-0.3-0.8C184.1,3922.9,183.8,3922.9,183.5,3922.9z"/>
		<path class="st7" d="M191.7,3930.1c-1.3,0-2.3-0.4-3-1.1c-0.6-0.7-1-1.8-1-3.2c0-1.4,0.4-2.5,1.1-3.3c0.7-0.8,1.8-1.1,3.1-1.1
			s2.3,0.3,3,1c0.7,0.7,1,1.7,1,3.2c0,1.4-0.4,2.6-1.1,3.4C194.1,3929.7,193,3930.1,191.7,3930.1z M190.2,3925.7
			c0,1.8,0.5,2.7,1.6,2.7c0.6,0,1-0.2,1.2-0.6c0.3-0.4,0.4-1.1,0.4-2c0-1.8-0.6-2.7-1.7-2.7c-0.5,0-0.9,0.2-1.2,0.6
			C190.3,3924.1,190.2,3924.7,190.2,3925.7z"/>
		<path class="st7" d="M197.7,3921.2c0-1.2,0.3-2.1,0.8-2.7c0.5-0.6,1.3-0.9,2.4-0.9c1.1,0,2.1,0.3,2.9,0.9c0,0.1,0,0.2,0,0.3
			c0,0.2,0,0.4-0.1,0.8c-0.1,0.4-0.2,0.6-0.3,0.9h-1.4c-0.2-0.4-0.3-0.7-0.3-1.1c-0.1,0-0.2,0-0.3,0c-0.4,0-0.7,0.1-0.9,0.4
			s-0.3,0.7-0.3,1.3v0.6h2.6v1.6h-2.6v4.8c0.9,0.2,1.4,0.4,1.7,0.7l-0.2,1.3h-4.7l-0.2-1.3c0.2-0.2,0.5-0.4,0.9-0.6v-4.9h-0.7
			l-0.2-1.2c0.2-0.2,0.6-0.4,0.9-0.4V3921.2z"/>
		<path class="st7" d="M206.3,3919.4v2.1h2.4v1.4h-2.4v4.3c0,0.4,0.1,0.6,0.2,0.8s0.3,0.2,0.7,0.2s0.8-0.1,1.2-0.3l0.5,1.3
			c-0.9,0.4-1.8,0.7-2.7,0.7c-0.9,0-1.5-0.2-1.9-0.6c-0.3-0.4-0.5-1-0.5-1.7v-4.8h-0.8l-0.2-1c0.2-0.2,0.6-0.4,1.1-0.6
			c0.1-0.9,0.5-1.6,1-1.9H206.3z"/>
		<path class="st7" d="M217.6,3930.1l-0.9-2.7c-0.2-0.5-0.3-1.2-0.4-2l-0.1-0.4H216c-0.1,0.9-0.3,1.7-0.5,2.4l-0.8,2.7h-2.4
			l-2.1-6.7c-0.5-0.2-0.8-0.4-1-0.6l0.2-1.3h4l0.2,1.3c-0.2,0.2-0.5,0.4-1,0.6l1,4.3h0.2c0.1-0.6,0.3-1.2,0.4-1.9l1.2-4.4h1.9
			l1.1,4.3l0.4,1.9h0.2c0.4-1.9,0.7-3.2,0.8-3.9l0.1-0.5c-0.5-0.2-0.8-0.4-1-0.6l0.2-1.3h3.8l0.2,1.3c-0.2,0.3-0.5,0.5-1.1,0.6
			l-2.1,6.6H217.6z"/>
		<path class="st7" d="M223.6,3922.8c0-0.2,0-0.4,0-0.5c1.1-0.6,2.2-0.8,3.4-0.8c1.2,0,2.1,0.2,2.6,0.7s0.8,1.2,0.8,2.3v3.6
			c0.4,0.1,0.7,0.2,0.9,0.3v1.5c-0.6,0.3-1.4,0.4-2.5,0.4c-0.1-0.3-0.2-0.7-0.3-1.1c-0.5,0.7-1.4,1.1-2.7,1.1
			c-0.8,0-1.4-0.2-1.9-0.7c-0.5-0.4-0.8-1-0.8-1.8c0-0.8,0.3-1.4,0.8-1.8c0.5-0.4,1.3-0.7,2.3-0.7h1.9v-0.8c0-0.9-0.5-1.3-1.4-1.3
			c-0.4,0-0.6,0-0.9,0.1c0,0.5-0.1,0.8-0.2,1.1h-1.7C223.7,3923.9,223.6,3923.4,223.6,3922.8z M226.7,3928.4c0.6,0,1-0.2,1.4-0.5
			v-1.4h-1.2c-0.8,0-1.2,0.3-1.2,0.9c0,0.3,0.1,0.5,0.3,0.7C226.1,3928.3,226.4,3928.4,226.7,3928.4z"/>
		<path class="st7" d="M237.1,3923.6c-0.9,0-1.5,0.2-1.8,0.5v3.9c0.9,0.2,1.5,0.4,1.9,0.7l-0.2,1.3h-4.9l-0.2-1.3
			c0.2-0.2,0.5-0.4,0.9-0.6v-4.7c-0.4-0.1-0.7-0.3-0.9-0.6l0.2-1.3c0.6-0.1,1.2-0.2,1.7-0.2s0.9,0,1.2,0v1.1c0.3-0.3,0.6-0.6,1-0.8
			c0.4-0.2,0.8-0.3,1.1-0.3s0.6,0,0.7,0.1l-0.1,2.2C237.6,3923.6,237.4,3923.6,237.1,3923.6z"/>
		<path class="st7" d="M242.7,3930.1c-1.4,0-2.4-0.4-3.1-1.1c-0.7-0.7-1-1.8-1-3.2c0-0.8,0.1-1.6,0.4-2.2c0.2-0.6,0.6-1.1,1-1.4
			c0.8-0.6,1.7-1,2.8-1s1.9,0.3,2.4,0.8s0.8,1.5,0.8,2.9c0,0.8-0.4,1.2-1.2,1.2H241c0,0.7,0.2,1.2,0.6,1.5c0.3,0.3,0.8,0.4,1.5,0.4
			c0.4,0,0.8,0,1.1-0.1c0.4-0.1,0.6-0.2,0.8-0.3l0.2-0.1l0.5,1.4c-0.1,0.1-0.2,0.2-0.3,0.3s-0.5,0.3-1,0.5
			S243.3,3930.1,242.7,3930.1z M243.7,3924.8c0-0.2,0-0.4,0-0.6s-0.1-0.5-0.3-0.7c-0.2-0.3-0.5-0.4-0.9-0.4c-0.4,0-0.8,0.1-1,0.4
			c-0.2,0.3-0.4,0.7-0.5,1.4L243.7,3924.8z"/>
	</g>
	<g class="st6">
		<path class="st7" d="M185.7,3971.9h-0.8v2c0.8,0.2,1.3,0.4,1.5,0.7l-0.2,1.4h-4.6l-0.2-1.4c0.1-0.2,0.5-0.4,0.9-0.6v-7.8
			c-0.5-0.2-0.8-0.4-0.9-0.6l0.2-1.4h4.5c1.6,0,2.8,0.3,3.5,0.9c0.8,0.5,1.2,1.5,1.2,2.9C190.9,3970.6,189.2,3971.9,185.7,3971.9z
			 M185.9,3966.1h-1v3.9h1.1c0.8,0,1.3-0.2,1.7-0.5c0.4-0.3,0.6-0.8,0.6-1.6s-0.2-1.3-0.6-1.5
			C187.3,3966.3,186.7,3966.1,185.9,3966.1z"/>
		<path class="st7" d="M194,3978c0.2,0,0.4-0.2,0.7-0.6c0.2-0.4,0.4-0.8,0.5-1.4l-2.8-6.6c-0.6-0.2-0.9-0.4-1.1-0.6l0.2-1.3h3.9
			l0.2,1.3c-0.1,0.2-0.4,0.3-0.7,0.5l0.9,2.6c0.2,0.5,0.3,1.1,0.4,1.6l0.1,0.2h0.2c0.1-0.6,0.2-1.2,0.5-1.8l0.9-2.5
			c-0.4-0.2-0.7-0.4-0.9-0.6l0.2-1.3h3.7l0.2,1.3c-0.2,0.3-0.6,0.5-1.1,0.7l-2.8,6.6c-0.5,1.3-0.9,2.1-1.2,2.4c-0.5,0.7-1.2,1-2.1,1
			s-1.6-0.2-2-0.7c0-0.1,0-0.2,0-0.3c0-0.6,0.1-1.2,0.4-1.8h1.4c0.2,0.3,0.3,0.7,0.3,1.2H194z"/>
		<path class="st7" d="M204.5,3965.4v2.1h2.4v1.4h-2.4v4.3c0,0.4,0.1,0.6,0.2,0.8s0.3,0.2,0.7,0.2s0.8-0.1,1.2-0.3l0.5,1.3
			c-0.9,0.4-1.8,0.7-2.7,0.7c-0.9,0-1.5-0.2-1.9-0.6c-0.3-0.4-0.5-1-0.5-1.7v-4.8h-0.8l-0.2-1c0.2-0.2,0.6-0.4,1.1-0.6
			c0.1-0.9,0.5-1.6,1-1.9H204.5z"/>
		<path class="st7" d="M207.7,3963.9c0.6-0.1,1.2-0.2,1.8-0.2c0.5,0,1,0,1.4,0.1v4.2c0.3-0.2,0.6-0.3,1.1-0.5
			c0.5-0.1,0.9-0.2,1.2-0.2c1.1,0,1.9,0.3,2.3,0.8s0.6,1.4,0.6,2.5v3.5c0.4,0.2,0.8,0.4,0.9,0.6l-0.2,1.3h-3.9l-0.2-1.3
			c0.2-0.2,0.5-0.4,0.9-0.6v-3.4c0-0.6-0.1-1-0.3-1.2s-0.6-0.3-1.1-0.3c-0.5,0-1,0.2-1.5,0.5v4.4c0.4,0.2,0.8,0.4,0.9,0.6l-0.2,1.3
			h-3.9l-0.2-1.3c0.2-0.2,0.5-0.4,0.9-0.6v-8.3c-0.4-0.1-0.7-0.3-0.9-0.6L207.7,3963.9z"/>
		<path class="st7" d="M221.6,3976.1c-1.3,0-2.3-0.4-3-1.1c-0.6-0.7-1-1.8-1-3.2c0-1.4,0.4-2.5,1.1-3.3c0.7-0.8,1.8-1.1,3.1-1.1
			s2.3,0.3,3,1c0.7,0.7,1,1.7,1,3.2c0,1.4-0.4,2.6-1.1,3.4C223.9,3975.7,222.9,3976.1,221.6,3976.1z M220.1,3971.7
			c0,1.8,0.5,2.7,1.6,2.7c0.6,0,1-0.2,1.2-0.6c0.3-0.4,0.4-1.1,0.4-2c0-1.8-0.6-2.7-1.7-2.7c-0.5,0-0.9,0.2-1.2,0.6
			C220.2,3970.1,220.1,3970.7,220.1,3971.7z"/>
		<path class="st7" d="M226.8,3967.5c0.6-0.1,1.2-0.2,1.7-0.2s0.9,0,1.2,0v0.8c0.3-0.2,0.7-0.4,1.1-0.6c0.5-0.2,0.9-0.2,1.4-0.2
			c1.1,0,1.9,0.3,2.3,0.8c0.4,0.5,0.7,1.4,0.7,2.7v3.3c0.4,0.2,0.8,0.4,0.9,0.6l-0.2,1.3h-3.9l-0.2-1.3c0.2-0.2,0.5-0.4,0.9-0.6
			v-3.4c0-0.6-0.1-1-0.3-1.2c-0.2-0.2-0.6-0.3-1.1-0.3c-0.5,0-1,0.2-1.5,0.5v4.4c0.4,0.2,0.8,0.4,0.9,0.6l-0.2,1.3h-3.9l-0.2-1.3
			c0.2-0.2,0.5-0.4,0.9-0.6v-4.7c-0.4-0.1-0.7-0.3-0.9-0.6L226.8,3967.5z"/>
		<path class="st7" d="M237,3965.1c0-0.1,0-0.3,0-0.4c0.3-0.1,0.8-0.3,1.4-0.4c0.7-0.1,1.2-0.2,1.7-0.2c0.5,0,0.9,0,1.4,0.1
			c0.4,0.1,0.8,0.2,1.2,0.5c0.4,0.2,0.7,0.5,0.9,0.9c0.2,0.4,0.3,0.9,0.3,1.4s-0.2,1-0.5,1.4c-0.3,0.4-0.7,0.8-1.1,1v0.2
			c1.3,0.5,2,1.4,2,2.6s-0.5,2.2-1.4,2.9c-0.9,0.6-2.1,1-3.5,1c-0.5,0-1-0.1-1.5-0.2s-1-0.3-1.3-0.4l0.4-1.5
			c0.8,0.3,1.5,0.4,2.2,0.4c1.7,0,2.5-0.6,2.5-1.8c0-1.4-0.7-2-2-2c-0.5,0-1,0-1.5,0.1l-0.2-1.4l1.5-0.1c1.3-0.1,1.9-0.7,1.9-1.9
			c0-0.6-0.1-1-0.4-1.3s-0.7-0.4-1.2-0.4c-0.2,0-0.4,0-0.6,0.1c-0.1,0.6-0.2,1.1-0.4,1.4l-1.5-0.1C237.1,3966.6,237,3966,237,3965.1
			z"/>
	</g>
	<g class="st6">
		<path class="st7" d="M188.8,4023.1c-1.6,0-2.8-0.5-3.6-1.4s-1.2-2.4-1.2-4.5s0.4-3.6,1.3-4.6c0.9-1,2.1-1.5,3.8-1.5
			c1.6,0,2.8,0.4,3.6,1.3c0.8,0.9,1.2,2.4,1.2,4.4c0,2.1-0.4,3.6-1.3,4.7C191.6,4022.6,190.4,4023.1,188.8,4023.1z M187.1,4013.9
			c-0.4,0.6-0.6,1.6-0.6,3.1s0.2,2.5,0.6,3.2s1,1,1.8,1c0.8,0,1.3-0.3,1.8-0.9c0.4-0.6,0.6-1.7,0.6-3.1c0-2.7-0.8-4.1-2.4-4.1
			C188.1,4013.1,187.5,4013.3,187.1,4013.9z"/>
		<path class="st7" d="M194.8,4014.5c0.6-0.1,1.2-0.2,1.7-0.2s0.9,0,1.2,0v0.8c0.8-0.5,1.6-0.8,2.4-0.8c1.1,0,2,0.3,2.5,1
			c0.5,0.6,0.8,1.7,0.8,3.2c0,0.8-0.1,1.5-0.4,2.1c-0.2,0.6-0.6,1.1-1,1.4c-0.8,0.7-1.7,1-2.8,1c-0.5,0-0.9,0-1.3-0.1v1.5
			c0.7,0.2,1.1,0.4,1.3,0.6l-0.2,1.3h-4.3l-0.2-1.3c0.1-0.2,0.5-0.4,0.9-0.6v-8.1c-0.4-0.1-0.7-0.3-0.9-0.6L194.8,4014.5z
			 M199.1,4021.4c0.6,0,1-0.3,1.3-0.8c0.3-0.5,0.5-1.2,0.5-2.1s-0.1-1.5-0.3-1.8c-0.2-0.3-0.5-0.5-1-0.5c-0.7,0-1.3,0.2-1.7,0.5v4.5
			C198.3,4021.4,198.7,4021.4,199.1,4021.4z"/>
		<path class="st7" d="M208.4,4023.1c-1.4,0-2.4-0.4-3.1-1.1c-0.7-0.7-1-1.8-1-3.2c0-0.8,0.1-1.6,0.4-2.2c0.2-0.6,0.6-1.1,1-1.4
			c0.8-0.6,1.7-1,2.8-1s1.9,0.3,2.4,0.8s0.8,1.5,0.8,2.9c0,0.8-0.4,1.2-1.2,1.2h-3.7c0,0.7,0.2,1.2,0.6,1.5c0.3,0.3,0.8,0.4,1.5,0.4
			c0.4,0,0.8,0,1.1-0.1c0.4-0.1,0.6-0.2,0.8-0.3l0.2-0.1l0.5,1.4c-0.1,0.1-0.2,0.2-0.3,0.3s-0.5,0.3-1,0.5S209,4023.1,208.4,4023.1z
			 M209.4,4017.8c0-0.2,0-0.4,0-0.6s-0.1-0.5-0.3-0.7c-0.2-0.3-0.5-0.4-0.9-0.4c-0.4,0-0.8,0.1-1,0.4c-0.2,0.3-0.4,0.7-0.5,1.4
			L209.4,4017.8z"/>
		<path class="st7" d="M212.7,4014.5c0.6-0.1,1.2-0.2,1.7-0.2s0.9,0,1.2,0v0.8c0.3-0.2,0.7-0.4,1.1-0.6c0.5-0.2,0.9-0.2,1.4-0.2
			c1.1,0,1.9,0.3,2.3,0.8c0.4,0.5,0.7,1.4,0.7,2.7v3.3c0.4,0.2,0.8,0.4,0.9,0.6l-0.2,1.3h-3.9l-0.2-1.3c0.2-0.2,0.5-0.4,0.9-0.6
			v-3.4c0-0.6-0.1-1-0.3-1.2c-0.2-0.2-0.6-0.3-1.1-0.3c-0.5,0-1,0.2-1.5,0.5v4.4c0.4,0.2,0.8,0.4,0.9,0.6l-0.2,1.3h-3.9l-0.2-1.3
			c0.2-0.2,0.5-0.4,0.9-0.6v-4.7c-0.4-0.1-0.7-0.3-0.9-0.6L212.7,4014.5z"/>
		<path class="st7" d="M229,4013.3c-0.3-0.1-0.9-0.2-1.5-0.2c-0.7,0-1.2,0.3-1.6,0.9c-0.4,0.6-0.6,1.6-0.6,3.1s0.2,2.5,0.6,3.1
			c0.4,0.6,1,0.9,1.8,0.9c1.2,0,2.3-0.2,3.3-0.5l0.6,1.5c-1.2,0.7-2.6,1.1-4.2,1.1c-1.6,0-2.8-0.5-3.5-1.4s-1.1-2.4-1.1-4.5
			c0-2.1,0.4-3.6,1.3-4.6c0.9-1,2.1-1.5,3.7-1.5c1.3,0,2.5,0.4,3.7,1.1c0,0.1,0,0.2,0,0.4c0,0.2,0,0.5-0.1,1
			c-0.1,0.5-0.2,0.8-0.3,1.1h-1.6C229.2,4014.4,229.1,4013.9,229,4013.3z"/>
		<path class="st7" d="M236,4023.1l-3.2-9.8c-0.5-0.2-0.8-0.4-1-0.6l0.2-1.4h4l0.2,1.4c-0.2,0.2-0.4,0.4-0.9,0.5l1.4,5
			c0.2,0.8,0.4,1.5,0.4,2.2l0,0.3h0.2c0-0.7,0.2-1.5,0.4-2.4l1.5-5c-0.4-0.1-0.7-0.3-0.9-0.6l0.2-1.4h3.9l0.2,1.4
			c-0.2,0.2-0.6,0.5-1.1,0.6l-3.2,9.8H236z"/>
	</g>
	<g class="st6">
		<path class="st7" d="M207.7,4068.9h-0.8v2c0.8,0.2,1.3,0.4,1.5,0.7l-0.2,1.4h-4.6l-0.2-1.4c0.1-0.2,0.5-0.4,0.9-0.6v-7.8
			c-0.5-0.2-0.8-0.4-0.9-0.6l0.2-1.4h4.5c1.6,0,2.8,0.3,3.5,0.9c0.8,0.5,1.2,1.5,1.2,2.9C212.9,4067.6,211.2,4068.9,207.7,4068.9z
			 M208,4063.1h-1v3.9h1.1c0.8,0,1.3-0.2,1.7-0.5c0.4-0.3,0.6-0.8,0.6-1.6s-0.2-1.3-0.6-1.5C209.3,4063.3,208.7,4063.1,208,4063.1z"
			/>
		<path class="st7" d="M220.2,4063.3c-0.3-0.1-0.9-0.2-1.5-0.2c-0.7,0-1.2,0.3-1.6,0.9c-0.4,0.6-0.6,1.6-0.6,3.1s0.2,2.5,0.6,3.1
			c0.4,0.6,1,0.9,1.8,0.9c1.2,0,2.3-0.2,3.3-0.5l0.6,1.5c-1.2,0.7-2.6,1.1-4.2,1.1c-1.6,0-2.8-0.5-3.5-1.4s-1.1-2.4-1.1-4.5
			c0-2.1,0.4-3.6,1.3-4.6c0.9-1,2.1-1.5,3.7-1.5c1.3,0,2.5,0.4,3.7,1.1c0,0.1,0,0.2,0,0.4c0,0.2,0,0.5-0.1,1
			c-0.1,0.5-0.2,0.8-0.3,1.1h-1.6C220.4,4064.4,220.2,4063.9,220.2,4063.3z"/>
	</g>
	<path class="st8" d="M528.7,4174c104,0,96.1,110.5,119.2,110.1"/>
	<path class="st8" d="M717.7,4284.1c19.6,0,44.5,24.5,150.6,26.2"/>
	<path class="st9" d="M295,4067h54.4v-9.2h50.7"/>
	<path class="st9" d="M618,4055.2H494"/>
</g>
</svg>
